<svg width="120" height="76" viewBox="0 0 120 76" fill="none" xmlns="http://www.w3.org/2000/svg">
<path d="M95.3319 26.6838C94.0995 26.6838 92.8893 26.7804 91.7077 26.9657C89.8349 12.3155 77.5688 1 62.7052 1C51.1277 1 41.1227 7.86486 36.3789 17.8232C36.2207 17.8195 36.0667 17.7989 35.9076 17.7989C24.6962 17.7989 15.6075 27.0758 15.6075 38.5194C15.6075 40.8741 16.0107 43.1281 16.7196 45.2374C16.3514 45.209 15.983 45.1801 15.6075 45.1801C7.54003 45.1801 1 51.8555 1 60.0901C1 68.3246 7.54003 75 15.6075 75H95.3319C108.403 75 119 64.1841 119 50.8419C119 37.4997 108.403 26.6838 95.3319 26.6838Z" fill="white" stroke="#402B4A" stroke-opacity="0.1" stroke-width="0.860432" stroke-miterlimit="10"/>
</svg>
