<svg width="666" height="760" viewBox="0 0 666 760" fill="none" xmlns="http://www.w3.org/2000/svg">
<path d="M553.357 698C553.357 698 537.793 710.202 531.102 711.659C524.412 713.117 511.095 711.375 512.049 716.565C513.002 721.755 520.141 724.962 527.301 726.617C534.462 728.271 563.769 724.03 569.925 724.117C576.081 724.205 580.178 724.781 582.302 719.635C584.426 714.489 581.024 700.982 581.024 700.982L553.357 698Z" fill="black"/>
<path d="M553.92 698L557.138 698.374L558 702.198C558 702.198 551.963 708.579 546.644 710.655C543.952 711.706 541.635 710.183 540 708.422C546.619 704.165 553.92 698 553.92 698Z" fill="black" stroke="#402B4A" stroke-width="0.860432" stroke-linecap="round" stroke-linejoin="round"/>
<path d="M527.369 726.626C520.175 725.014 513.003 721.888 512.045 716.83C511.988 716.529 511.989 716.255 512.029 716C514.354 717.285 518.668 719.353 524.871 721.042C534.628 723.7 547.034 721.348 562.525 719.544C571.816 718.462 578.845 718.439 583 718.593C582.9 719.037 582.782 719.456 582.626 719.822C580.492 724.837 576.376 724.276 570.191 724.19C564.006 724.105 534.562 728.239 527.369 726.626Z" fill="white" stroke="#402B4A" stroke-width="0.860432" stroke-linecap="round" stroke-linejoin="round"/>
<path d="M637.127 410C637.127 410 637.451 459.894 637.696 478.928C637.942 497.961 633.096 567.862 634.086 570.447C635.075 573.033 641.314 618.702 638.077 629.972C634.84 641.241 629.441 701 629.441 701L603.798 700.123C603.798 700.123 600.916 613.161 597.925 606.947C594.934 600.733 593.822 570.372 592.406 561.608C590.99 552.845 584.582 497.721 584.582 497.721C584.582 497.721 576.467 563.955 577.767 580.946C579.067 597.937 586.538 613.987 584.276 628.87C582.014 643.754 581.724 700.84 581.724 700.84L556.175 693.278C556.175 693.278 550.901 666.973 550.981 661.316C551.06 655.66 551.747 643.326 550.822 636.112C549.898 628.898 536.828 573.166 536.546 556.704C536.265 540.242 536 413.199 536 413.199C536 413.199 590.183 427.852 637.127 410Z" fill="#402B4A"/>
<path d="M536.263 414.414C537.454 414.358 538.77 414.296 540.197 414.227C553.391 417.218 597.67 425.317 636.885 410C636.885 410 636.931 417.15 637 427.115C631.928 431.994 620.947 438.099 597.155 440.955C568.251 444.426 546.89 438.488 536 434.232C536.129 424.307 536.227 417.081 536.263 414.414Z" fill="white" stroke="#402B4A" stroke-width="0.860432" stroke-linecap="round" stroke-linejoin="round"/>
<path d="M534.674 289C534.674 289 517.265 294.89 514.064 298.422C510.863 301.954 516.473 349.534 516.429 352.598C516.384 355.662 511.15 390.834 513.7 395.977C516.25 401.12 529.298 406.407 535.079 405.975C540.859 405.544 540.328 369.782 539.478 355.979C538.628 342.176 534.186 322.705 534.304 314.534C534.423 306.363 536.241 289.532 534.674 289Z" fill="#FFC954" stroke="#402B4A" stroke-width="0.860432" stroke-miterlimit="10"/>
<path d="M503.269 392.291C503.269 392.291 508.785 384.837 520.285 385.003C531.785 385.169 542.496 393.484 542.982 407.303C543.468 421.121 533.954 424.123 525.16 423.996C516.366 423.869 496.86 415.427 503.269 392.291Z" fill="#FFC954" stroke="#402B4A" stroke-width="0.860432" stroke-miterlimit="10"/>
<path d="M496.324 398.044C496.324 398.044 510.684 393.968 520.346 397.328C530.008 400.687 535.073 403.978 535.965 413.64C536.857 423.302 520.54 420.917 511.863 420.252C503.187 419.588 483 401.063 483 401.063L496.324 398.044Z" fill="white" stroke="#402B4A" stroke-width="0.860432" stroke-linecap="round" stroke-linejoin="round"/>
<path d="M506.57 406.738C508.733 400.93 502.031 396.056 502.031 396.056L506.306 388.156C506.306 388.156 503.234 384.396 500.044 389.127C496.855 393.858 494.2 397.536 492.14 395.914C490.08 394.292 493.826 386.914 493.826 386.914C493.826 386.914 491.788 383.7 489.141 386.847C486.494 389.994 485.387 394.755 482.256 395.241C479.125 395.727 471.477 383.939 469.373 385.501C467.268 387.063 469.299 390.808 471.866 393.499C474.432 396.19 475.986 396.743 475.986 396.743C475.986 396.743 463.587 389.665 457.897 386.929C452.207 384.193 450.147 382.571 449.062 385.74C447.977 388.909 461.446 393.88 468.691 397.169C475.935 400.458 489.896 407.56 495.593 409.765C501.29 411.97 503.373 412 503.373 412" fill="white"/>
<path d="M506.57 406.738C508.733 400.93 502.031 396.056 502.031 396.056L506.306 388.156C506.306 388.156 503.234 384.396 500.044 389.127C496.855 393.858 494.2 397.536 492.14 395.914C490.08 394.292 493.826 386.914 493.826 386.914C493.826 386.914 491.788 383.7 489.141 386.847C486.494 389.994 485.387 394.755 482.256 395.241C479.125 395.727 471.477 383.939 469.373 385.501C467.268 387.063 469.299 390.808 471.866 393.499C474.432 396.19 475.986 396.743 475.986 396.743C475.986 396.743 463.587 389.665 457.897 386.929C452.207 384.193 450.147 382.571 449.062 385.74C447.977 388.909 461.446 393.88 468.691 397.169C475.935 400.458 489.896 407.56 495.593 409.765C501.29 411.97 503.373 412 503.373 412" stroke="#402B4A" stroke-width="0.860432" stroke-linecap="round" stroke-linejoin="round"/>
<path d="M600 443C600 443 607.113 478.089 634 475.902" stroke="white" stroke-width="0.860432" stroke-linecap="round" stroke-linejoin="round"/>
<path d="M583 501L571 489" stroke="#402B4A" stroke-width="0.860432" stroke-linecap="round" stroke-linejoin="round"/>
<path d="M628.813 437.395L629 419L625.583 421.036L625 441" fill="white"/>
<path d="M628.813 437.395L629 419L625.583 421.036L625 441" stroke="#402B4A" stroke-width="0.860432" stroke-linecap="round" stroke-linejoin="round"/>
<path d="M544.698 441L545 423.082L540.121 422L538 439.457" fill="white"/>
<path d="M544.698 441L545 423.082L540.121 422L538 439.457" stroke="#402B4A" stroke-width="0.860432" stroke-linecap="round" stroke-linejoin="round"/>
<path d="M596.453 445.621L597 429.115L592.818 428L591 446" fill="white"/>
<path d="M596.453 445.621L597 429.115L592.818 428L591 446" stroke="#402B4A" stroke-width="0.860432" stroke-linecap="round" stroke-linejoin="round"/>
<path d="M593.223 269.98C593.223 269.98 639.691 282.953 639.633 287.057C639.576 291.161 640.106 398.922 639.981 407.814C639.856 416.706 627.849 423.035 611.786 427.254C595.723 431.474 558.624 430.264 550.833 427.417C543.041 424.57 532.526 421.684 531.236 416.535C529.946 411.386 530.657 360.769 530.437 352.214C530.216 343.659 521.73 317.541 524.587 308.004C527.445 298.466 533.003 290.677 538.843 286.997C544.684 283.317 560.162 272.248 570.749 270.004C581.337 267.759 593.223 269.98 593.223 269.98Z" fill="#FFC954" stroke="#402B4A" stroke-width="0.860432" stroke-miterlimit="10"/>
<path d="M560 299C560 299 554.233 331.934 556.967 347.784C558.865 358.791 556.916 394.609 555.046 401.879C553.177 409.149 551.216 423.107 555.91 425" stroke="#402B4A" stroke-width="0.860432" stroke-miterlimit="10"/>
<path d="M582.653 251.488C582.653 251.488 587.899 251.264 589.605 254.285C591.312 257.306 601 273.025 601 273.025L588.341 304L573.677 290.006L559.562 299.688L553.914 286.723L545 299.477C545 299.477 549.476 270.48 552.491 263.034C555.506 255.588 570.478 247.117 574.543 248.074C578.608 249.032 582.653 251.488 582.653 251.488Z" fill="#FFC954" stroke="#402B4A" stroke-width="0.860432" stroke-miterlimit="10"/>
<path d="M582.369 230C582.369 230 584.099 248.612 583.995 256.281C583.892 263.95 575.712 282.416 573.407 285.332C571.101 288.249 559.911 299 559.911 299C559.911 299 558.431 282.752 557.945 276.845C557.459 270.937 557 262.965 557 262.965C557 262.965 569.036 252.521 572.813 245.496C576.59 238.471 582.369 230 582.369 230Z" fill="white" stroke="#402B4A" stroke-width="0.860432" stroke-linecap="round" stroke-linejoin="round"/>
<path d="M533.195 187.302C535.359 178.514 544.946 169.804 556.072 166.11C568.649 161.936 590.953 169.792 600.34 185.299C609.727 200.807 596.9 222.675 596.556 226.442C596.211 230.208 604.045 232.059 604 235.249C603.955 238.44 601.79 247.403 591.874 248.714C581.958 250.025 579.097 246.504 578.248 244.751C577.4 242.998 554.223 214.532 550.767 211.873C549.486 210.887 547.648 209.694 545.843 208.583C544.396 215.049 538.975 222.005 537.239 221.546C534.919 220.934 523.052 216.125 522.052 204.507C521.266 195.372 529.591 189.431 533.195 187.302Z" fill="black"/>
<path d="M534.38 217.683C534.38 217.683 534.369 217.251 534.416 216.505C534.563 214.191 535.273 208.857 538.627 204.059C543.061 197.717 551.481 196.381 554.908 199.923C558.334 203.465 562.189 217.786 572.269 222.005C582.349 226.224 587.073 219.886 586.999 225.125C586.926 230.365 583.225 246.325 577.339 252.938C571.452 259.551 563.795 268.468 558.276 269.555C552.756 270.641 544.08 269.645 543.529 267.599C542.978 265.553 537.994 249.178 535.497 241.282C533.001 233.385 534.38 217.683 534.38 217.683Z" fill="white" stroke="#402B4A" stroke-width="0.860432" stroke-linecap="round" stroke-linejoin="round"/>
<path d="M584.02 226.117C584.02 226.117 584.748 219.68 590.032 220.012C595.317 220.345 594.865 228.935 591.355 234.265C587.845 239.594 582 235.494 582 235.494" fill="white"/>
<path d="M584.02 226.117C584.02 226.117 584.748 219.68 590.032 220.012C595.317 220.345 594.865 228.935 591.355 234.265C587.845 239.594 582 235.494 582 235.494" stroke="#402B4A" stroke-width="0.860432" stroke-linecap="round" stroke-linejoin="round"/>
<path d="M630.754 287.197C630.754 287.197 637.515 282.13 644.132 287.386C650.748 292.641 654.29 370.12 655.174 380.456C656.058 390.793 657 397 657 397L618.041 386.125L615.128 373.695C615.128 373.695 609.468 373.615 610.041 369.494C610.613 365.373 610.969 340.084 611.092 331.311C611.216 322.537 623.804 305.681 623.804 305.681" fill="#FFC954"/>
<path d="M630.754 287.197C630.754 287.197 637.515 282.13 644.132 287.386C650.748 292.641 654.29 370.12 655.174 380.456C656.058 390.793 657 397 657 397L618.041 386.125L615.128 373.695C615.128 373.695 609.468 373.615 610.041 369.494C610.613 365.373 610.969 340.084 611.092 331.311C611.216 322.537 623.804 305.681 623.804 305.681" stroke="#402B4A" stroke-width="0.860432" stroke-miterlimit="10"/>
<path d="M620 373C620 373 628.516 367.741 646 371.149L620 373Z" fill="white"/>
<path d="M620 373C620 373 628.516 367.741 646 371.149" stroke="#402B4A" stroke-width="0.860432" stroke-linecap="round" stroke-linejoin="round"/>
<path d="M633 365C631.99 365.196 630.985 365.52 630 366L633 365Z" fill="white"/>
<path d="M633 365C631.99 365.196 630.985 365.52 630 366" stroke="#402B4A" stroke-width="0.860432" stroke-linecap="round" stroke-linejoin="round"/>
<path d="M655 370C655 370 649.135 366.272 642 365L655 370Z" fill="white"/>
<path d="M655 370C655 370 649.135 366.272 642 365" stroke="#402B4A" stroke-width="0.860432" stroke-linecap="round" stroke-linejoin="round"/>
<path d="M665 387.993C665 387.993 659.421 410.5 654.684 411.911C649.946 413.321 616.645 397.663 616.726 392.264C616.807 386.865 610.1 379.904 617.434 380.001C624.769 380.098 660.396 380.569 665 387.993Z" fill="#FFC954" stroke="#402B4A" stroke-width="0.860432" stroke-miterlimit="10"/>
<path d="M553.616 381.186C553.616 381.186 620.764 387.709 633.023 391.943C645.282 396.177 658.466 407.533 656.868 411.573C655.27 415.614 644.913 422.071 639.781 421.999C634.649 421.928 626.994 418.774 625.455 418.753C623.915 418.731 557.562 392.413 556.03 391.884C554.497 391.355 544.248 390.196 539.658 388.101C535.069 386.005 528.221 379.291 528.221 379.291C528.221 379.291 502.733 379.21 500.181 378.159C497.63 377.108 495.626 374.205 504.38 372.296C513.133 370.387 517.14 366.923 522.785 367.001C528.43 367.08 553.616 381.186 553.616 381.186Z" fill="white" stroke="#402B4A" stroke-width="0.860432" stroke-linecap="round" stroke-linejoin="round"/>
<path d="M532 376.19C532 376.19 529.724 374.75 524.741 375.038C519.758 375.326 504 379 504 379" stroke="#402B4A" stroke-width="0.860432" stroke-miterlimit="10"/>
<path d="M526 370.919C526 370.919 522.533 369.244 519.415 370.416C516.297 371.588 498.404 375.788 498 377" stroke="#402B4A" stroke-width="0.860432" stroke-miterlimit="10"/>
<path d="M408.387 387.903L550.996 389.915L551.069 384.765L408.459 382.753L408.387 387.903Z" fill="white" stroke="#402B4A" stroke-width="0.860432" stroke-linecap="round" stroke-linejoin="round"/>
<path d="M390 312L467.52 313.089L486 386L408.48 384.911L390 312Z" fill="white" stroke="#402B4A" stroke-width="0.860432" stroke-linecap="round" stroke-linejoin="round"/>
<path d="M579.642 429.756L580 441L562.351 440.755L562 429L579.642 429.756Z" fill="white" stroke="#402B4A" stroke-width="0.860432" stroke-linecap="round" stroke-linejoin="round"/>
<path d="M627.917 705.207C627.917 705.207 630.224 721.264 630.883 730.081C631.542 738.898 638.146 748.647 633.136 752.891C628.126 757.135 613.545 756.529 605.37 754.078C597.196 751.627 603.013 735.078 602.924 729.887C602.836 724.695 603.687 714.986 604.623 710.295C605.56 705.605 606.023 703 606.023 703L627.917 705.207Z" fill="black"/>
<path d="M620.978 709.119C620.978 709.119 625.753 733.069 620.627 733C615.502 732.931 611.841 732.881 611.16 729.359C610.479 725.837 612.192 709 612.192 709L620.978 709.119Z" fill="black" stroke="#402B4A" stroke-width="0.860432" stroke-linecap="round" stroke-linejoin="round"/>
<path d="M614.398 753.284C607.291 753.389 603.281 752.712 601 751.943C601.137 753.471 601.657 754.79 602.816 755.797C607.847 760.169 622.487 759.545 630.695 757.02C633.608 756.124 634.733 753.384 635 750C631.271 752.04 625.052 753.127 614.398 753.284Z" fill="white" stroke="#402B4A" stroke-width="0.860432" stroke-linecap="round" stroke-linejoin="round"/>
<path d="M632.989 695.704L631.683 709.815C631.563 711.115 630.486 712.079 629.25 711.995L604.316 710.286C603.118 710.204 602.183 709.164 602.169 707.899L602 692.448C601.984 690.996 603.176 689.857 604.545 690.015L630.954 693.063C632.204 693.207 633.111 694.385 632.989 695.704Z" fill="white" stroke="#402B4A" stroke-width="0.860432" stroke-linecap="round" stroke-linejoin="round"/>
<path d="M555.326 682.154L587.252 693.328C588.619 693.807 589.329 695.276 588.851 696.638L585.152 707.179C584.673 708.543 583.179 709.301 581.787 708.887L552.869 700.278C551.706 699.932 550.94 698.857 551.004 697.659L551.696 684.552C551.79 682.768 553.622 681.557 555.326 682.154Z" fill="white" stroke="#402B4A" stroke-width="0.860432" stroke-linecap="round" stroke-linejoin="round"/>
<path d="M23 229H46" stroke="#402B4A" stroke-width="0.860432" stroke-linecap="round" stroke-linejoin="round"/>
<path d="M28 173C20.9389 176.377 16.0584 183.611 16.0584 191.99C16.0584 194.379 16.4741 196.666 17.2049 198.806C16.8252 198.777 16.4455 198.747 16.0584 198.747C7.74179 198.747 1 205.52 1 213.874C1 222.228 7.74179 229 16.0584 229" stroke="#402B4A" stroke-width="0.860432" stroke-linecap="round" stroke-linejoin="round"/>
<path d="M74 155.391C71.1905 154.487 68.1998 154 65.0972 154C53.3903 154 43.2736 160.937 38.4766 171C38.3167 170.996 38.1609 170.975 38 170.975" stroke="#402B4A" stroke-width="0.860432" stroke-linecap="round" stroke-linejoin="round"/>
<path d="M99 180.694C97.705 180.694 96.4335 180.799 95.1919 181C94.1444 172.539 90.0017 165.104 84 160" stroke="#402B4A" stroke-width="0.860432" stroke-linecap="round" stroke-linejoin="round"/>
<path d="M61 229H98.6002C112.076 229 123 218.255 123 205" stroke="#402B4A" stroke-width="0.860432" stroke-linecap="round" stroke-linejoin="round"/>
<path d="M256.69 121.302C254.695 121.302 252.736 121.458 250.823 121.756C247.792 98.1966 227.938 80 203.879 80C185.139 80 168.944 91.0394 161.266 107.053C161.01 107.047 160.761 107.014 160.503 107.014C142.356 107.014 127.644 121.933 127.644 140.335C127.644 144.122 128.297 147.746 129.444 151.138C128.848 151.093 128.252 151.046 127.644 151.046C114.586 151.046 104 161.781 104 175.023C104 188.265 114.586 199 127.644 199H256.69C277.848 199 295 181.607 295 160.151C295 138.695 277.848 121.302 256.69 121.302Z" fill="white" stroke="#402B4A" stroke-width="0.860432" stroke-miterlimit="10"/>
<path d="M202 160V133" stroke="#402B4A" stroke-width="0.860432" stroke-linecap="round" stroke-linejoin="round"/>
<path d="M217 142L202 127L187 142" stroke="#402B4A" stroke-width="0.860432" stroke-linecap="round" stroke-linejoin="round"/>
<path d="M202 167V173" stroke="#402B4A" stroke-width="0.860432" stroke-linecap="round" stroke-linejoin="round"/>
<path d="M202 181V185" stroke="#402B4A" stroke-width="0.860432" stroke-linecap="round" stroke-linejoin="round"/>
<path d="M274.779 727H242.336C234.355 727 228.915 720.582 230.184 712.665L242.742 634.335C244.011 626.418 251.51 620 259.49 620H359" stroke="#402B4A" stroke-width="0.860432" stroke-linecap="round" stroke-linejoin="round"/>
<path d="M257 598H285.932C287.734 598 289.351 599.111 290.004 600.797L293.449 609.693H354.729C361.041 609.693 366.401 613.788 368.318 619.478L371.755 619.779C379.677 619.779 385.077 626.21 383.818 634.144L371.353 712.635C370.093 720.569 362.65 727 354.729 727H293.653" stroke="#402B4A" stroke-width="0.860432" stroke-linecap="round" stroke-linejoin="round"/>
<path d="M227 659V624.358C227 616.679 232.92 610.457 240.398 609.915L243.904 600.825C244.561 599.122 246.187 598 248 598" stroke="#402B4A" stroke-width="0.860432" stroke-linecap="round" stroke-linejoin="round"/>
<path d="M242 727C233.716 727 227 720.587 227 712.677V681" stroke="#402B4A" stroke-width="0.860432" stroke-linecap="round" stroke-linejoin="round"/>
<path d="M219.281 729C215.26 729 212 725.8 212 721.854V677.948C212 674.176 214.987 671.119 218.761 670.853L220.53 666.388C220.862 665.551 221.683 665 222.598 665H241.176C242.091 665 242.912 665.551 243.243 666.388L244.992 670.801H276.101C279.306 670.801 282.027 672.833 283 675.656" fill="#402B4A"/>
<mask id="mask0_1_2" style="mask-type:luminance" maskUnits="userSpaceOnUse" x="211" y="664" width="72" height="66">
<path d="M219.052 729.457C215.03 729.457 211.77 726.195 211.77 722.172V677.416C211.77 673.571 214.757 670.455 218.532 670.184L220.302 665.632C220.633 664.779 221.454 664.218 222.369 664.218H240.952C241.867 664.218 242.688 664.779 243.019 665.632L244.768 670.131H275.884C279.089 670.131 281.811 672.202 282.784 675.08" fill="white"/>
</mask>
<g mask="url(#mask0_1_2)">
<g opacity="0.3">
<path d="M219.052 729.457C215.03 729.457 211.77 726.195 211.77 722.172V677.416C211.77 673.571 214.757 670.455 218.532 670.184L220.302 665.632C220.633 664.779 221.454 664.218 222.369 664.218H240.952C241.867 664.218 242.688 664.779 243.019 665.632L244.768 670.131H275.884C279.089 670.131 281.811 672.202 282.784 675.08" fill="black"/>
<path d="M219.052 729.457C215.03 729.457 211.77 726.195 211.77 722.172V677.416C211.77 673.571 214.757 670.455 218.532 670.184L220.302 665.632C220.633 664.779 221.454 664.218 222.369 664.218H240.952C241.867 664.218 242.688 664.779 243.019 665.632L244.768 670.131H275.884C279.089 670.131 281.811 672.202 282.784 675.08" stroke="#402B4A" stroke-width="0.860432" stroke-miterlimit="10"/>
</g>
</g>
<path d="M219.144 729H275.311C279.286 729 283.021 725.761 283.654 721.766L289.908 682.234C290.541 678.239 287.831 675 283.855 675H227.689C223.714 675 219.979 678.239 219.346 682.234L213.092 721.766C212.459 725.761 215.169 729 219.144 729Z" fill="#762E5E"/>
<path d="M324 301H178V331H324V301Z" fill="white" stroke="#402B4A" stroke-width="0.860432" stroke-linecap="round" stroke-linejoin="round"/>
<path d="M324 340H178V370H324V340Z" fill="white" stroke="#402B4A" stroke-width="0.860432" stroke-linecap="round" stroke-linejoin="round"/>
<path d="M324 380H178V408H324V380Z" fill="white" stroke="#402B4A" stroke-width="0.860432" stroke-linecap="round" stroke-linejoin="round"/>
<path d="M324 418H178V448H324V418Z" fill="white" stroke="#402B4A" stroke-width="0.860432" stroke-linecap="round" stroke-linejoin="round"/>
<path d="M324 457H178V487H324V457Z" fill="white" stroke="#402B4A" stroke-width="0.860432" stroke-linecap="round" stroke-linejoin="round"/>
<path d="M324.918 297H210.082C207.828 297 206 298.838 206 301.105V329.895C206 332.162 207.828 334 210.082 334H324.918C327.172 334 329 332.162 329 329.895V301.105C329 298.838 327.172 297 324.918 297Z" fill="#848484"/>
<path d="M324.918 336H210.082C207.828 336 206 337.888 206 340.216V369.784C206 372.112 207.828 374 210.082 374H324.918C327.172 374 329 372.112 329 369.784V340.216C329 337.888 327.172 336 324.918 336Z" fill="#848484"/>
<path d="M324.918 376H210.082C207.828 376 206 377.788 206 379.994V408.006C206 410.212 207.828 412 210.082 412H324.918C327.172 412 329 410.212 329 408.006V379.994C329 377.788 327.172 376 324.918 376Z" fill="#848484"/>
<path d="M324.918 414H210.082C207.828 414 206 415.888 206 418.216V447.784C206 450.112 207.828 452 210.082 452H324.918C327.172 452 329 450.112 329 447.784V418.216C329 415.888 327.172 414 324.918 414Z" fill="#848484"/>
<path d="M324.918 453H210.082C207.828 453 206 454.888 206 457.216V486.784C206 489.112 207.828 491 210.082 491H324.918C327.172 491 329 489.112 329 486.784V457.216C329 454.888 327.172 453 324.918 453Z" fill="#848484"/>
<path d="M195 296H23V727H195V296Z" fill="white" stroke="#402B4A" stroke-width="0.860432" stroke-linecap="round" stroke-linejoin="round"/>
<path d="M134.918 297H20.0821C17.8276 297 16 298.838 16 301.105V329.895C16 332.162 17.8276 334 20.0821 334H134.918C137.172 334 139 332.162 139 329.895V301.105C139 298.838 137.172 297 134.918 297Z" fill="white" stroke="#402B4A" stroke-width="0.860432" stroke-linecap="round" stroke-linejoin="round"/>
<path d="M198.918 297H84.0821C81.8276 297 80 298.838 80 301.105V329.895C80 332.162 81.8276 334 84.0821 334H198.918C201.172 334 203 332.162 203 329.895V301.105C203 298.838 201.172 297 198.918 297Z" fill="white" stroke="#402B4A" stroke-width="0.860432" stroke-linecap="round" stroke-linejoin="round"/>
<path d="M83 328.788L83.0231 303.208C83.0241 301.988 84.0184 301 85.2443 301L196.78 301.026C198.007 301.026 199.001 302.017 199 303.238L198.977 328.792C198.976 330.012 197.982 331 196.756 331H85.2208C83.9935 331 82.9989 330.009 83 328.788Z" fill="white" stroke="#402B4A" stroke-width="0.860432" stroke-miterlimit="10"/>
<path d="M153.317 319H93.6831C92.2012 319 91 320.265 91 321.826V327.174C91 328.735 92.2012 330 93.6831 330H153.317C154.799 330 156 328.735 156 327.174V321.826C156 320.265 154.799 319 153.317 319Z" fill="#FFC954" stroke="#402B4A" stroke-width="0.860432" stroke-miterlimit="10"/>
<path d="M165.317 307H105.683C104.201 307 103 308.265 103 309.826V315.174C103 316.735 104.201 318 105.683 318H165.317C166.799 318 168 316.735 168 315.174V309.826C168 308.265 166.799 307 165.317 307Z" fill="#FFC954" stroke="#402B4A" stroke-width="0.860432" stroke-miterlimit="10"/>
<path d="M134.918 493H20.0821C17.8276 493 16 494.838 16 497.105V525.895C16 528.162 17.8276 530 20.0821 530H134.918C137.172 530 139 528.162 139 525.895V497.105C139 494.838 137.172 493 134.918 493Z" fill="white" stroke="#402B4A" stroke-width="0.860432" stroke-linecap="round" stroke-linejoin="round"/>
<path d="M198.918 493H84.0821C81.8276 493 80 494.838 80 497.105V525.895C80 528.162 81.8276 530 84.0821 530H198.918C201.172 530 203 528.162 203 525.895V497.105C203 494.838 201.172 493 198.918 493Z" fill="#848484"/>
<path d="M168 508H96V514H168V508Z" fill="white" stroke="#402B4A" stroke-width="0.860432" stroke-miterlimit="10"/>
<path d="M182 511C182 512.657 180.433 514 178.5 514C176.567 514 175 512.657 175 511C175 509.343 176.567 508 178.5 508C180.433 508 182 509.343 182 511Z" fill="#FFC954" stroke="#402B4A" stroke-width="0.860432" stroke-miterlimit="10"/>
<path d="M192 511C192 512.657 190.657 514 189 514C187.343 514 186 512.657 186 511C186 509.343 187.343 508 189 508C190.657 508 192 509.343 192 511Z" fill="white" stroke="#402B4A" stroke-width="0.860432" stroke-miterlimit="10"/>
<path d="M140 510H98V512H140V510Z" fill="#FFC954"/>
<path d="M134.918 532H20.0821C17.8276 532 16 533.788 16 535.994V564.006C16 566.212 17.8276 568 20.0821 568H134.918C137.172 568 139 566.212 139 564.006V535.994C139 533.788 137.172 532 134.918 532Z" fill="white" stroke="#402B4A" stroke-width="0.860432" stroke-linecap="round" stroke-linejoin="round"/>
<path d="M198.918 532H84.0821C81.8276 532 80 533.788 80 535.994V564.006C80 566.212 81.8276 568 84.0821 568H198.918C201.172 568 203 566.212 203 564.006V535.994C203 533.788 201.172 532 198.918 532Z" fill="#848484"/>
<path d="M168 547H96V552H168V547Z" fill="white" stroke="#402B4A" stroke-width="0.860432" stroke-miterlimit="10"/>
<path d="M178.5 552C180.433 552 182 550.881 182 549.5C182 548.119 180.433 547 178.5 547C176.567 547 175 548.119 175 549.5C175 550.881 176.567 552 178.5 552Z" fill="#FFC954" stroke="#402B4A" stroke-width="0.860432" stroke-miterlimit="10"/>
<path d="M192 549.5C192 550.881 190.657 552 189 552C187.343 552 186 550.881 186 549.5C186 548.119 187.343 547 189 547C190.657 547 192 548.119 192 549.5Z" fill="white" stroke="#402B4A" stroke-width="0.860432" stroke-miterlimit="10"/>
<path d="M140 549H98V551H140V549Z" fill="#FFC954"/>
<path d="M134.918 571H20.0821C17.8276 571 16 572.788 16 574.994V603.006C16 605.212 17.8276 607 20.0821 607H134.918C137.172 607 139 605.212 139 603.006V574.994C139 572.788 137.172 571 134.918 571Z" fill="white" stroke="#402B4A" stroke-width="0.860432" stroke-linecap="round" stroke-linejoin="round"/>
<path d="M198.918 571H84.0821C81.8276 571 80 572.788 80 574.994V603.006C80 605.212 81.8276 607 84.0821 607H198.918C201.172 607 203 605.212 203 603.006V574.994C203 572.788 201.172 571 198.918 571Z" fill="#848484"/>
<path d="M168 586H96V592H168V586Z" fill="white" stroke="#402B4A" stroke-width="0.860432" stroke-miterlimit="10"/>
<path d="M178.5 592C180.433 592 182 590.657 182 589C182 587.343 180.433 586 178.5 586C176.567 586 175 587.343 175 589C175 590.657 176.567 592 178.5 592Z" fill="#FFC954" stroke="#402B4A" stroke-width="0.860432" stroke-miterlimit="10"/>
<path d="M192 589C192 590.657 190.657 592 189 592C187.343 592 186 590.657 186 589C186 587.343 187.343 586 189 586C190.657 586 192 587.343 192 589Z" fill="white" stroke="#402B4A" stroke-width="0.860432" stroke-miterlimit="10"/>
<path d="M140 588H98V590H140V588Z" fill="#FFC954"/>
<path d="M134.918 610H20.0821C17.8276 610 16 611.838 16 614.105V642.895C16 645.162 17.8276 647 20.0821 647H134.918C137.172 647 139 645.162 139 642.895V614.105C139 611.838 137.172 610 134.918 610Z" fill="white" stroke="#402B4A" stroke-width="0.860432" stroke-linecap="round" stroke-linejoin="round"/>
<path d="M198.918 610H84.0821C81.8276 610 80 611.838 80 614.105V642.895C80 645.162 81.8276 647 84.0821 647H198.918C201.172 647 203 645.162 203 642.895V614.105C203 611.838 201.172 610 198.918 610Z" fill="#848484"/>
<path d="M168 625H96V631H168V625Z" fill="white" stroke="#402B4A" stroke-width="0.860432" stroke-miterlimit="10"/>
<path d="M182 628C182 629.657 180.433 631 178.5 631C176.567 631 175 629.657 175 628C175 626.343 176.567 625 178.5 625C180.433 625 182 626.343 182 628Z" fill="#FFC954" stroke="#402B4A" stroke-width="0.860432" stroke-miterlimit="10"/>
<path d="M192 628C192 629.657 190.657 631 189 631C187.343 631 186 629.657 186 628C186 626.343 187.343 625 189 625C190.657 625 192 626.343 192 628Z" fill="white" stroke="#402B4A" stroke-width="0.860432" stroke-miterlimit="10"/>
<path d="M140 627H98V629H140V627Z" fill="#FFC954"/>
<path d="M134.918 649H20.0821C17.8276 649 16 650.788 16 652.994V681.006C16 683.212 17.8276 685 20.0821 685H134.918C137.172 685 139 683.212 139 681.006V652.994C139 650.788 137.172 649 134.918 649Z" fill="white" stroke="#402B4A" stroke-width="0.860432" stroke-linecap="round" stroke-linejoin="round"/>
<path d="M198.918 649H84.0821C81.8276 649 80 650.788 80 652.994V681.006C80 683.212 81.8276 685 84.0821 685H198.918C201.172 685 203 683.212 203 681.006V652.994C203 650.788 201.172 649 198.918 649Z" fill="#848484"/>
<path d="M168 665H96V671H168V665Z" fill="white" stroke="#402B4A" stroke-width="0.860432" stroke-miterlimit="10"/>
<path d="M178.5 671C180.433 671 182 669.657 182 668C182 666.343 180.433 665 178.5 665C176.567 665 175 666.343 175 668C175 669.657 176.567 671 178.5 671Z" fill="#FFC954" stroke="#402B4A" stroke-width="0.860432" stroke-miterlimit="10"/>
<path d="M192 668C192 669.657 190.657 671 189 671C187.343 671 186 669.657 186 668C186 666.343 187.343 665 189 665C190.657 665 192 666.343 192 668Z" fill="white" stroke="#402B4A" stroke-width="0.860432" stroke-miterlimit="10"/>
<path d="M140 667H98V669H140V667Z" fill="#FFC954"/>
<path d="M134.918 688H20.0821C17.8276 688 16 689.788 16 691.994V720.006C16 722.212 17.8276 724 20.0821 724H134.918C137.172 724 139 722.212 139 720.006V691.994C139 689.788 137.172 688 134.918 688Z" fill="white" stroke="#402B4A" stroke-width="0.860432" stroke-linecap="round" stroke-linejoin="round"/>
<path d="M198.918 688H84.0821C81.8276 688 80 689.788 80 691.994V720.006C80 722.212 81.8276 724 84.0821 724H198.918C201.172 724 203 722.212 203 720.006V691.994C203 689.788 201.172 688 198.918 688Z" fill="#848484"/>
<path d="M168 703H96V709H168V703Z" fill="white" stroke="#402B4A" stroke-width="0.860432" stroke-miterlimit="10"/>
<path d="M178.5 709C180.433 709 182 707.657 182 706C182 704.343 180.433 703 178.5 703C176.567 703 175 704.343 175 706C175 707.657 176.567 709 178.5 709Z" fill="#FFC954" stroke="#402B4A" stroke-width="0.860432" stroke-miterlimit="10"/>
<path d="M192 706C192 707.657 190.657 709 189 709C187.343 709 186 707.657 186 706C186 704.343 187.343 703 189 703C190.657 703 192 704.343 192 706Z" fill="white" stroke="#402B4A" stroke-width="0.860432" stroke-miterlimit="10"/>
<path d="M140 705H98V707H140V705Z" fill="#FFC954"/>
<path d="M134.918 453H20.0823C17.8277 453 16 454.888 16 457.217V486.783C16 489.112 17.8277 491 20.0823 491H134.918C137.172 491 139 489.112 139 486.783V457.217C139 454.888 137.172 453 134.918 453Z" fill="white" stroke="#402B4A" stroke-width="0.860432" stroke-linecap="round" stroke-linejoin="round"/>
<path d="M198.918 453H84.0823C81.8277 453 80 454.888 80 457.217V486.783C80 489.112 81.8277 491 84.0823 491H198.918C201.172 491 203 489.112 203 486.783V457.217C203 454.888 201.172 453 198.918 453Z" fill="white" stroke="#402B4A" stroke-width="0.860432" stroke-linecap="round" stroke-linejoin="round"/>
<path d="M83 484.714L83.0231 458.282C83.0241 457.021 84.0184 456 85.2443 456L196.78 456.027C198.007 456.027 199.001 457.051 199 458.312L198.977 484.718C198.976 485.979 197.982 487 196.756 487H85.2208C83.9935 487 82.9989 485.976 83 484.714Z" fill="white" stroke="#402B4A" stroke-width="0.860432" stroke-miterlimit="10"/>
<path d="M153.317 476H93.6833C92.2013 476 91 477.15 91 478.569V483.43C91 484.85 92.2013 486 93.6833 486H153.317C154.799 486 156 484.85 156 483.43V478.569C156 477.15 154.799 476 153.317 476Z" fill="#FFC954" stroke="#402B4A" stroke-width="0.860432" stroke-miterlimit="10"/>
<path d="M189.29 476H161.71C160.213 476 159 477.15 159 478.569V483.43C159 484.85 160.213 486 161.71 486H189.29C190.787 486 192 484.85 192 483.43V478.569C192 477.15 190.787 476 189.29 476Z" fill="#FFC954" stroke="#402B4A" stroke-width="0.860432" stroke-miterlimit="10"/>
<path d="M127.29 464H99.7097C98.2132 464 97 465.38 97 467.083V472.917C97 474.619 98.2132 476 99.7097 476H127.29C128.787 476 130 474.619 130 472.917V467.083C130 465.38 128.787 464 127.29 464Z" fill="#FFC954" stroke="#402B4A" stroke-width="0.860432" stroke-miterlimit="10"/>
<path d="M134.918 414H20.0821C17.8276 414 16 415.888 16 418.216V447.784C16 450.112 17.8276 452 20.0821 452H134.918C137.172 452 139 450.112 139 447.784V418.216C139 415.888 137.172 414 134.918 414Z" fill="white" stroke="#402B4A" stroke-width="0.860432" stroke-linecap="round" stroke-linejoin="round"/>
<path d="M198.918 414H84.0821C81.8276 414 80 415.888 80 418.216V447.784C80 450.112 81.8276 452 84.0821 452H198.918C201.172 452 203 450.112 203 447.784V418.216C203 415.888 201.172 414 198.918 414Z" fill="white" stroke="#402B4A" stroke-width="0.860432" stroke-linecap="round" stroke-linejoin="round"/>
<path d="M83 445.714L83.0231 419.282C83.0241 418.021 84.0184 417 85.2443 417L196.78 417.027C198.007 417.027 199.001 418.051 199 419.313L198.977 445.718C198.976 446.979 197.982 448 196.756 448H85.2208C83.9935 448 82.9989 446.976 83 445.714Z" fill="white" stroke="#402B4A" stroke-width="0.860432" stroke-miterlimit="10"/>
<path d="M154.29 436H126.71C125.213 436 124 437.265 124 438.826V444.174C124 445.735 125.213 447 126.71 447H154.29C155.787 447 157 445.735 157 444.174V438.826C157 437.265 155.787 436 154.29 436Z" fill="#FFC954" stroke="#402B4A" stroke-width="0.860432" stroke-miterlimit="10"/>
<path d="M189.29 436H161.71C160.213 436 159 437.265 159 438.826V444.174C159 445.735 160.213 447 161.71 447H189.29C190.787 447 192 445.735 192 444.174V438.826C192 437.265 190.787 436 189.29 436Z" fill="#FFC954" stroke="#402B4A" stroke-width="0.860432" stroke-miterlimit="10"/>
<path d="M119.373 436H92.6274C91.1763 436 90 437.265 90 438.826V444.174C90 445.735 91.1763 447 92.6274 447H119.373C120.824 447 122 445.735 122 444.174V438.826C122 437.265 120.824 436 119.373 436Z" fill="#FFC954" stroke="#402B4A" stroke-width="0.860432" stroke-miterlimit="10"/>
<path d="M144.455 425H118.546C117.14 425 116 426.15 116 427.57V432.431C116 433.85 117.14 435 118.546 435H144.455C145.86 435 147 433.85 147 432.431V427.57C147 426.15 145.86 425 144.455 425Z" fill="#FFC954" stroke="#402B4A" stroke-width="0.860432" stroke-miterlimit="10"/>
<path d="M135.758 376H19.2422C17.4516 376 16 377.42 16 379.173V408.827C16 410.58 17.4516 412 19.2422 412H135.758C137.548 412 139 410.58 139 408.827V379.173C139 377.42 137.548 376 135.758 376Z" fill="white" stroke="#402B4A" stroke-width="0.860432" stroke-linecap="round" stroke-linejoin="round"/>
<path d="M199.758 376H83.2422C81.4516 376 80 377.42 80 379.173V408.827C80 410.58 81.4516 412 83.2422 412H199.758C201.548 412 203 410.58 203 408.827V379.173C203 377.42 201.548 376 199.758 376Z" fill="white" stroke="#402B4A" stroke-width="0.860432" stroke-linecap="round" stroke-linejoin="round"/>
<path d="M83 405.862L83.0231 381.134C83.0241 379.955 84.0184 379 85.2443 379L196.78 379.025C198.007 379.025 199.001 379.983 199 381.163L198.977 405.865C198.976 407.045 197.982 408 196.756 408H85.2208C83.9935 408 82.9989 407.042 83 405.862Z" fill="white" stroke="#402B4A" stroke-width="0.860432" stroke-miterlimit="10"/>
<path d="M174.317 397H114.683C113.201 397 112 398.15 112 399.57V404.43C112 405.85 113.201 407 114.683 407H174.317C175.799 407 177 405.85 177 404.43V399.57C177 398.15 175.799 397 174.317 397Z" fill="#FFC954" stroke="#402B4A" stroke-width="0.860432" stroke-miterlimit="10"/>
<path d="M165.869 396H105.131C103.954 396 103 394.801 103 393.322V393.679C103 392.199 103.954 391 105.131 391H165.869C167.046 391 168 392.199 168 393.679V393.322C168 394.801 167.046 396 165.869 396Z" fill="#FFC954" stroke="#402B4A" stroke-width="0.860432" stroke-miterlimit="10"/>
<path d="M134.918 336H20.0821C17.8276 336 16 337.888 16 340.216V369.784C16 372.112 17.8276 374 20.0821 374H134.918C137.172 374 139 372.112 139 369.784V340.216C139 337.888 137.172 336 134.918 336Z" fill="white" stroke="#402B4A" stroke-width="0.860432" stroke-linecap="round" stroke-linejoin="round"/>
<path d="M198.918 336H84.0821C81.8276 336 80 337.888 80 340.216V369.784C80 372.112 81.8276 374 84.0821 374H198.918C201.172 374 203 372.112 203 369.784V340.216C203 337.888 201.172 336 198.918 336Z" fill="white" stroke="#402B4A" stroke-width="0.860432" stroke-linecap="round" stroke-linejoin="round"/>
<path d="M83 367.788L83.0231 342.208C83.0241 340.988 84.0184 340 85.2443 340L196.78 340.026C198.007 340.026 199.001 341.017 199 342.238L198.977 367.792C198.976 369.012 197.982 370 196.756 370H85.2208C83.9935 370 82.9989 369.009 83 367.788Z" fill="white" stroke="#402B4A" stroke-width="0.860432" stroke-miterlimit="10"/>
<path d="M186.275 358H125.725C124.22 358 123 359.265 123 360.826V366.174C123 367.735 124.22 369 125.725 369H186.275C187.78 369 189 367.735 189 366.174V360.826C189 359.265 187.78 358 186.275 358Z" fill="#FFC954" stroke="#402B4A" stroke-width="0.860432" stroke-miterlimit="10"/>
<path d="M165.29 347H137.71C136.213 347 135 348.15 135 349.57V354.43C135 355.85 136.213 357 137.71 357H165.29C166.787 357 168 355.85 168 354.43V349.57C168 348.15 166.787 347 165.29 347Z" fill="#FFC954" stroke="#402B4A" stroke-width="0.860432" stroke-miterlimit="10"/>
<path d="M22 321V330" stroke="#402B4A" stroke-width="0.860432" stroke-linecap="round" stroke-linejoin="round"/>
<path d="M25 321V330" stroke="#402B4A" stroke-width="0.860432" stroke-linecap="round" stroke-linejoin="round"/>
<path d="M28 321V330" stroke="#402B4A" stroke-width="0.860432" stroke-linecap="round" stroke-linejoin="round"/>
<path d="M31 321V330" stroke="#402B4A" stroke-width="0.860432" stroke-linecap="round" stroke-linejoin="round"/>
<path d="M34 321V330" stroke="#402B4A" stroke-width="0.860432" stroke-linecap="round" stroke-linejoin="round"/>
<path d="M22 711V721" stroke="#402B4A" stroke-width="0.860432" stroke-linecap="round" stroke-linejoin="round"/>
<path d="M25 711V721" stroke="#402B4A" stroke-width="0.860432" stroke-linecap="round" stroke-linejoin="round"/>
<path d="M28 711V721" stroke="#402B4A" stroke-width="0.860432" stroke-linecap="round" stroke-linejoin="round"/>
<path d="M31 711V721" stroke="#402B4A" stroke-width="0.860432" stroke-linecap="round" stroke-linejoin="round"/>
<path d="M34 711V721" stroke="#402B4A" stroke-width="0.860432" stroke-linecap="round" stroke-linejoin="round"/>
<path d="M22 673V682" stroke="#402B4A" stroke-width="0.860432" stroke-linecap="round" stroke-linejoin="round"/>
<path d="M25 673V682" stroke="#402B4A" stroke-width="0.860432" stroke-linecap="round" stroke-linejoin="round"/>
<path d="M28 673V682" stroke="#402B4A" stroke-width="0.860432" stroke-linecap="round" stroke-linejoin="round"/>
<path d="M31 673V682" stroke="#402B4A" stroke-width="0.860432" stroke-linecap="round" stroke-linejoin="round"/>
<path d="M34 673V682" stroke="#402B4A" stroke-width="0.860432" stroke-linecap="round" stroke-linejoin="round"/>
<path d="M22 633V643" stroke="#402B4A" stroke-width="0.860432" stroke-linecap="round" stroke-linejoin="round"/>
<path d="M25 633V643" stroke="#402B4A" stroke-width="0.860432" stroke-linecap="round" stroke-linejoin="round"/>
<path d="M28 633V643" stroke="#402B4A" stroke-width="0.860432" stroke-linecap="round" stroke-linejoin="round"/>
<path d="M31 633V643" stroke="#402B4A" stroke-width="0.860432" stroke-linecap="round" stroke-linejoin="round"/>
<path d="M34 633V643" stroke="#402B4A" stroke-width="0.860432" stroke-linecap="round" stroke-linejoin="round"/>
<path d="M22 594V603" stroke="#402B4A" stroke-width="0.860432" stroke-linecap="round" stroke-linejoin="round"/>
<path d="M25 594V603" stroke="#402B4A" stroke-width="0.860432" stroke-linecap="round" stroke-linejoin="round"/>
<path d="M28 594V603" stroke="#402B4A" stroke-width="0.860432" stroke-linecap="round" stroke-linejoin="round"/>
<path d="M31 594V603" stroke="#402B4A" stroke-width="0.860432" stroke-linecap="round" stroke-linejoin="round"/>
<path d="M34 594V603" stroke="#402B4A" stroke-width="0.860432" stroke-linecap="round" stroke-linejoin="round"/>
<path d="M22 554V564" stroke="#402B4A" stroke-width="0.860432" stroke-linecap="round" stroke-linejoin="round"/>
<path d="M25 554V564" stroke="#402B4A" stroke-width="0.860432" stroke-linecap="round" stroke-linejoin="round"/>
<path d="M28 554V564" stroke="#402B4A" stroke-width="0.860432" stroke-linecap="round" stroke-linejoin="round"/>
<path d="M31 554V564" stroke="#402B4A" stroke-width="0.860432" stroke-linecap="round" stroke-linejoin="round"/>
<path d="M34 554V564" stroke="#402B4A" stroke-width="0.860432" stroke-linecap="round" stroke-linejoin="round"/>
<path d="M22 516V526" stroke="#402B4A" stroke-width="0.860432" stroke-linecap="round" stroke-linejoin="round"/>
<path d="M25 516V526" stroke="#402B4A" stroke-width="0.860432" stroke-linecap="round" stroke-linejoin="round"/>
<path d="M28 516V526" stroke="#402B4A" stroke-width="0.860432" stroke-linecap="round" stroke-linejoin="round"/>
<path d="M31 516V526" stroke="#402B4A" stroke-width="0.860432" stroke-linecap="round" stroke-linejoin="round"/>
<path d="M34 516V526" stroke="#402B4A" stroke-width="0.860432" stroke-linecap="round" stroke-linejoin="round"/>
<path d="M22 478V486" stroke="#402B4A" stroke-width="0.860432" stroke-linecap="round" stroke-linejoin="round"/>
<path d="M25 478V486" stroke="#402B4A" stroke-width="0.860432" stroke-linecap="round" stroke-linejoin="round"/>
<path d="M28 478V486" stroke="#402B4A" stroke-width="0.860432" stroke-linecap="round" stroke-linejoin="round"/>
<path d="M31 478V486" stroke="#402B4A" stroke-width="0.860432" stroke-linecap="round" stroke-linejoin="round"/>
<path d="M34 478V486" stroke="#402B4A" stroke-width="0.860432" stroke-linecap="round" stroke-linejoin="round"/>
<path d="M22 438V447" stroke="#402B4A" stroke-width="0.860432" stroke-linecap="round" stroke-linejoin="round"/>
<path d="M25 438V447" stroke="#402B4A" stroke-width="0.860432" stroke-linecap="round" stroke-linejoin="round"/>
<path d="M28 438V447" stroke="#402B4A" stroke-width="0.860432" stroke-linecap="round" stroke-linejoin="round"/>
<path d="M31 438V447" stroke="#402B4A" stroke-width="0.860432" stroke-linecap="round" stroke-linejoin="round"/>
<path d="M34 438V447" stroke="#402B4A" stroke-width="0.860432" stroke-linecap="round" stroke-linejoin="round"/>
<path d="M22 399V407" stroke="#402B4A" stroke-width="0.860432" stroke-linecap="round" stroke-linejoin="round"/>
<path d="M25 399V407" stroke="#402B4A" stroke-width="0.860432" stroke-linecap="round" stroke-linejoin="round"/>
<path d="M28 399V407" stroke="#402B4A" stroke-width="0.860432" stroke-linecap="round" stroke-linejoin="round"/>
<path d="M31 399V407" stroke="#402B4A" stroke-width="0.860432" stroke-linecap="round" stroke-linejoin="round"/>
<path d="M34 399V407" stroke="#402B4A" stroke-width="0.860432" stroke-linecap="round" stroke-linejoin="round"/>
<path d="M22 360V369" stroke="#402B4A" stroke-width="0.860432" stroke-linecap="round" stroke-linejoin="round"/>
<path d="M25 360V369" stroke="#402B4A" stroke-width="0.860432" stroke-linecap="round" stroke-linejoin="round"/>
<path d="M28 360V369" stroke="#402B4A" stroke-width="0.860432" stroke-linecap="round" stroke-linejoin="round"/>
<path d="M31 360V369" stroke="#402B4A" stroke-width="0.860432" stroke-linecap="round" stroke-linejoin="round"/>
<path d="M34 360V369" stroke="#402B4A" stroke-width="0.860432" stroke-linecap="round" stroke-linejoin="round"/>
<path d="M501.022 99.4375C501.613 96.2614 501.96 92.9987 501.96 89.651C501.96 60.2745 478.152 36.4604 448.784 36.4604C437.843 36.4604 427.68 39.7726 419.226 45.4385C408.491 19.3624 382.847 1 352.905 1C313.302 1 281.197 33.1132 281.197 72.7267C281.197 73.6093 281.232 74.4836 281.264 75.3585C261.698 80.9393 247.357 98.9146 247.357 120.276C247.357 143.898 264.892 163.375 287.643 166.523V167.019H498.737C517.426 167.019 532.577 151.865 532.577 133.171C532.577 115.248 518.641 100.618 501.022 99.4375Z" fill="#FFC954" stroke="#402B4A" stroke-width="0.860432" stroke-miterlimit="10"/>
<path d="M356.472 26.1287H315.527L335.34 39.3401L356.472 26.1287Z" fill="white"/>
<path d="M335.297 42.3584L312.892 27.419V55.5702H357.744V28.3256L335.297 42.3584Z" fill="white"/>
<path d="M433.234 54.8176V84.4669C432.109 83.8606 430.747 83.4994 429.272 83.4994C425.437 83.4994 422.328 85.9025 422.328 88.8666C422.328 91.8309 425.437 94.2338 429.272 94.2338C435.745 94.2338 436.216 89.8138 436.216 89.8138V63.6943L454.653 61.0702V80.994C453.529 80.3877 452.167 80.0267 450.691 80.0267C446.857 80.0267 443.748 82.4296 443.748 85.3939C443.748 88.358 446.857 90.7609 450.691 90.7609C454.107 90.7609 456.931 88.8518 457.512 86.3409L457.635 60.6458V51.3447L433.234 54.8176Z" fill="white"/>
<path d="M328.941 80.4545C333.561 80.4545 337.307 76.7076 337.307 72.0854C337.307 67.4636 333.561 63.7167 328.941 63.7167C324.32 63.7167 320.574 67.4636 320.574 72.0854C320.574 76.7076 324.32 80.4545 328.941 80.4545Z" fill="white"/>
<path d="M334.004 82.2167H323.876C318.039 82.2167 313.307 86.9496 313.307 92.7879V98.5141H344.573V92.7879C344.573 86.9496 339.841 82.2167 334.004 82.2167Z" fill="white"/>
<path d="M491.386 125.363C491.386 114.618 478.826 105.908 463.333 105.908C447.84 105.908 435.28 114.618 435.28 125.363C435.28 135.433 446.311 143.715 460.451 144.716L459.967 144.818L474.928 152.301L474.284 143.279C484.335 140.32 491.386 133.413 491.386 125.363ZM476.424 127.234H448.746V124.989H476.424V127.234ZM476.424 133.452H448.746V131.207H476.424V133.452ZM476.424 121.248H448.746V119.003H476.424V121.248Z" fill="white"/>
<path d="M380.172 105.221C371.129 105.221 363.798 112.554 363.798 121.599C363.798 130.644 380.172 148.483 380.172 148.483C380.172 148.483 396.545 130.644 396.545 121.599C396.545 112.554 389.214 105.221 380.172 105.221ZM380.172 129.942C375.565 129.942 371.83 126.207 371.83 121.599C371.83 116.991 375.565 113.256 380.172 113.256C384.778 113.256 388.513 116.991 388.513 121.599C388.513 126.207 384.778 129.942 380.172 129.942Z" fill="white"/>
<path d="M316.416 110.885H276.476V145.129H316.416V110.885Z" fill="#FFC954" stroke="white" stroke-width="0.860432" stroke-miterlimit="10"/>
<path d="M316.416 127.245L309.569 121.158L301.011 133.713L291.311 130.289L276.476 145.128H316.416V127.245Z" fill="white"/>
<path d="M288.46 124.012C290.981 124.012 293.025 121.968 293.025 119.446C293.025 116.925 290.981 114.881 288.46 114.881C285.939 114.881 283.896 116.925 283.896 119.446C283.896 121.968 285.939 124.012 288.46 124.012Z" fill="white"/>
<path d="M328.398 114.881H288.457V149.124H328.398V114.881Z" fill="#FFC954" stroke="white" stroke-width="0.860432" stroke-miterlimit="10"/>
<path d="M328.398 131.241L321.551 125.153L312.992 137.709L303.292 134.285L288.457 149.124H328.398V131.241Z" fill="white"/>
<path d="M305.007 123.441C305.007 125.963 302.963 128.007 300.442 128.007C297.921 128.007 295.877 125.963 295.877 123.441C295.877 120.92 297.921 118.875 300.442 118.875C302.963 118.875 305.007 120.92 305.007 123.441Z" fill="white"/>
<path d="M398.99 40.6714V48.9845H408.424L398.99 40.6714Z" fill="white"/>
<path d="M397.596 40.7801H376.024V85.7905H408.423V50.1387H397.596V40.7801ZM401.079 75.9271H382.972C382.414 75.9271 381.961 75.4743 381.961 74.916C381.961 74.358 382.414 73.9052 382.972 73.9052H401.079C401.637 73.9052 402.09 74.358 402.09 74.916C402.09 75.4741 401.637 75.9271 401.079 75.9271ZM401.079 69.7687H382.972C382.414 69.7687 381.961 69.3159 381.961 68.7578C381.961 68.1995 382.414 67.7467 382.972 67.7467H401.079C401.637 67.7467 402.09 68.1995 402.09 68.7578C402.09 69.3159 401.637 69.7687 401.079 69.7687ZM401.079 63.6117H382.972C382.414 63.6117 381.961 63.1589 381.961 62.6006C381.961 62.0425 382.414 61.5895 382.972 61.5895H401.079C401.637 61.5895 402.09 62.0425 402.09 62.6006C402.09 63.1587 401.637 63.6117 401.079 63.6117ZM401.079 55.4311C401.637 55.4311 402.09 55.8841 402.09 56.4422C402.09 57.0004 401.637 57.4532 401.079 57.4532H382.972C382.414 57.4532 381.961 57.0004 381.961 56.4422C381.961 55.8841 382.414 55.4311 382.972 55.4311H401.079Z" fill="white"/>
<path d="M440.984 306.508V303.418" stroke="#402B4A" stroke-width="0.860432" stroke-miterlimit="10"/>
<path d="M440.984 297.416V180.388" stroke="#402B4A" stroke-width="0.860432" stroke-miterlimit="10" stroke-dasharray="2.51 2.51"/>
<path d="M440.984 177.387V174.297" stroke="#402B4A" stroke-width="0.860432" stroke-miterlimit="10"/>
<path d="M440.985 168.042L448.343 180.79H433.627L440.985 168.042Z" fill="#402B4A"/>
<path d="M355.259 174.297V177.387" stroke="#402B4A" stroke-width="0.860432" stroke-miterlimit="10"/>
<path d="M355.259 183.565V341.085" stroke="#402B4A" stroke-width="0.860432" stroke-miterlimit="10" stroke-dasharray="2.58 2.58"/>
<path d="M355.259 344.174V347.264H358.348" stroke="#402B4A" stroke-width="0.860432" stroke-miterlimit="10"/>
<path d="M364.272 347.264H384.99" stroke="#402B4A" stroke-width="0.860432" stroke-miterlimit="10" stroke-dasharray="2.47 2.47"/>
<path d="M387.948 347.264H391.037" stroke="#402B4A" stroke-width="0.860432" stroke-miterlimit="10"/>
<path d="M397.972 347.13L385.227 354.49V339.77L397.972 347.13Z" fill="#402B4A"/>
</svg>
