<svg width="115" height="88" viewBox="0 0 115 88" fill="none" xmlns="http://www.w3.org/2000/svg">
<path d="M41.7067 86.3287H20.2323C14.9497 86.3287 11.3484 82.0805 12.1884 76.8402L20.5006 24.9929C21.3407 19.7525 26.3042 15.5044 31.5868 15.5044H97.4531" stroke="#402B4A" stroke-width="0.860432" stroke-linecap="round" stroke-linejoin="round"/>
<path d="M29.9351 0.942383H49.0856C50.2782 0.942383 51.3486 1.67755 51.7808 2.79394L54.061 8.68219H94.6226C98.801 8.68219 102.349 11.3929 103.618 15.1588L105.893 15.3581C111.136 15.3581 114.711 19.615 113.877 24.8662L105.626 76.8206C104.793 82.0718 99.8659 86.3286 94.6226 86.3286H54.1961" stroke="#402B4A" stroke-width="0.860432" stroke-linecap="round" stroke-linejoin="round"/>
<path d="M10.0815 41.3188V18.3893C10.0815 13.3064 13.9996 9.18769 18.9498 8.82876L21.2702 2.81242C21.705 1.68489 22.7818 0.942383 23.9815 0.942383" stroke="#402B4A" stroke-width="0.860432" stroke-linecap="round" stroke-linejoin="round"/>
<mask id="mask0_1_147" style="mask-type:luminance" maskUnits="userSpaceOnUse" x="0" y="44" width="48" height="44">
<path d="M4.82062 87.9549C2.15836 87.9549 0 85.7961 0 83.1331V53.5089C0 50.9638 1.97764 48.9013 4.47631 48.7217L5.64751 45.7091C5.86698 45.1445 6.41054 44.7727 7.01611 44.7727H19.316C19.9215 44.7727 20.4651 45.1445 20.6845 45.7091L21.8422 48.687H42.4378C44.5594 48.687 46.3608 50.0578 47.0051 51.9623" fill="white"/>
</mask>
<g mask="url(#mask0_1_147)">
<g opacity="0.3">
<path d="M4.82062 87.9549C2.15836 87.9549 0 85.7961 0 83.1331V53.5089C0 50.9638 1.97764 48.9013 4.47631 48.7217L5.64751 45.7091C5.86698 45.1445 6.41054 44.7727 7.01611 44.7727H19.316C19.9215 44.7727 20.4651 45.1445 20.6845 45.7091L21.8422 48.687H42.4378C44.5594 48.687 46.3608 50.0578 47.0051 51.9623" fill="black"/>
<path d="M4.82062 87.9549C2.15836 87.9549 0 85.7961 0 83.1331V53.5089C0 50.9638 1.97764 48.9013 4.47631 48.7217L5.64751 45.7091C5.86698 45.1445 6.41054 44.7727 7.01611 44.7727H19.316C19.9215 44.7727 20.4651 45.1445 20.6845 45.7091L21.8422 48.687H42.4378C44.5594 48.687 46.3608 50.0578 47.0051 51.9623" stroke="#402B4A" stroke-width="0.860432" stroke-miterlimit="10"/>
</g>
</g>
<path d="M4.88351 87.6521H42.0607C44.6919 87.6521 47.1641 85.5082 47.5826 82.8636L51.7228 56.6976C52.1413 54.053 50.3475 51.9091 47.7163 51.9091H10.5391C7.90789 51.9091 5.43568 54.053 5.01717 56.6976L0.877002 82.8636C0.458494 85.5082 2.25227 87.6521 4.88351 87.6521Z" fill="#762E5E"/>
</svg>
