<svg width="96" height="25" viewBox="0 0 96 25" fill="none" xmlns="http://www.w3.org/2000/svg">
<path d="M0.631823 0.624999H6.27522V19.158H15.6586V24H0.631823V0.624999ZM21.9046 12.3125C21.9046 13.6927 22.1718 14.9171 22.7061 15.9857C23.2626 17.032 24.0307 17.8557 25.0102 18.4568C26.012 19.0579 27.1807 19.3584 28.5164 19.3584C29.8299 19.3584 30.9764 19.0579 31.9559 18.4568C32.9577 17.8557 33.7257 17.032 34.26 15.9857C34.8165 14.9171 35.0948 13.6927 35.0948 12.3125C35.0948 10.9323 34.8277 9.71899 34.2934 8.67268C33.7591 7.60411 33.0022 6.76928 32.0227 6.16821C31.0432 5.56714 29.8744 5.26661 28.5164 5.26661C27.1807 5.26661 26.012 5.56714 25.0102 6.16821C24.0307 6.76928 23.2626 7.60411 22.7061 8.67268C22.1718 9.71899 21.9046 10.9323 21.9046 12.3125ZM15.9273 12.3125C15.9273 10.5093 16.239 8.8619 16.8623 7.37036C17.5079 5.87881 18.3984 4.58762 19.5337 3.49679C20.6691 2.40595 22.0048 1.57113 23.5409 0.992321C25.077 0.39125 26.7355 0.090714 28.5164 0.090714C30.3196 0.090714 31.9782 0.39125 33.492 0.992321C35.028 1.57113 36.3637 2.40595 37.4991 3.49679C38.6345 4.58762 39.5138 5.87881 40.1371 7.37036C40.7605 8.8619 41.0721 10.5093 41.0721 12.3125C41.0721 14.1157 40.7605 15.7742 40.1371 17.288C39.5361 18.8018 38.6679 20.1153 37.5325 21.2284C36.4194 22.3415 35.0948 23.2097 33.5587 23.833C32.0227 24.4341 30.3419 24.7346 28.5164 24.7346C26.6687 24.7346 24.9768 24.4341 23.4407 23.833C21.9046 23.2097 20.5689 22.3415 19.4336 21.2284C18.3205 20.1153 17.4523 18.8018 16.8289 17.288C16.2279 15.7742 15.9273 14.1157 15.9273 12.3125ZM56.2755 15.5516V11.2105H68.0966C68.2079 13.0805 68.0187 14.8281 67.5289 16.4532C67.0392 18.0783 66.2823 19.5142 65.2582 20.7609C64.2342 22.0076 62.9541 22.9871 61.418 23.6995C59.882 24.3896 58.1233 24.7346 56.142 24.7346C54.272 24.7346 52.5578 24.4452 50.9995 23.8664C49.4411 23.2654 48.0943 22.4194 46.9589 21.3286C45.8236 20.2155 44.9331 18.902 44.2875 17.3882C43.6642 15.8521 43.3525 14.1602 43.3525 12.3125C43.3525 10.4648 43.6753 8.79512 44.3209 7.30357C44.9665 5.78976 45.8792 4.49857 47.0591 3.43C48.239 2.36143 49.6192 1.53774 51.1998 0.958927C52.7804 0.380118 54.4946 0.090714 56.3423 0.090714C57.9897 0.090714 59.4701 0.324464 60.7836 0.791963C62.097 1.25946 63.2546 1.91619 64.2564 2.76214C65.2805 3.58583 66.1598 4.54309 66.8945 5.63393L61.8855 8.23857C61.3513 7.30357 60.6277 6.53554 59.715 5.93446C58.8245 5.31113 57.7003 4.99946 56.3423 4.99946C55.0511 4.99946 53.8601 5.28887 52.7693 5.86768C51.7007 6.44649 50.8436 7.28131 50.198 8.37214C49.5747 9.44071 49.263 10.7542 49.263 12.3125C49.263 13.8486 49.5636 15.1843 50.1646 16.3196C50.788 17.4327 51.6228 18.301 52.6691 18.9243C53.7377 19.5254 54.9621 19.8259 56.3423 19.8259C57.1883 19.8259 57.9563 19.7257 58.6464 19.5254C59.3366 19.3027 59.9265 19.0022 60.4163 18.6237C60.906 18.223 61.3179 17.7667 61.6518 17.2546C62.008 16.7204 62.2863 16.1527 62.4866 15.5516H56.2755ZM76.5267 12.3125C76.5267 13.6927 76.7939 14.9171 77.3282 15.9857C77.8847 17.032 78.6528 17.8557 79.6323 18.4568C80.6341 19.0579 81.8028 19.3584 83.1385 19.3584C84.452 19.3584 85.5985 19.0579 86.578 18.4568C87.5798 17.8557 88.3478 17.032 88.8821 15.9857C89.4386 14.9171 89.7169 13.6927 89.7169 12.3125C89.7169 10.9323 89.4498 9.71899 88.9155 8.67268C88.3812 7.60411 87.6243 6.76928 86.6448 6.16821C85.6653 5.56714 84.4965 5.26661 83.1385 5.26661C81.8028 5.26661 80.6341 5.56714 79.6323 6.16821C78.6528 6.76928 77.8847 7.60411 77.3282 8.67268C76.7939 9.71899 76.5267 10.9323 76.5267 12.3125ZM70.5494 12.3125C70.5494 10.5093 70.8611 8.8619 71.4844 7.37036C72.13 5.87881 73.0205 4.58762 74.1558 3.49679C75.2912 2.40595 76.6269 1.57113 78.163 0.992321C79.6991 0.39125 81.3576 0.090714 83.1385 0.090714C84.9417 0.090714 86.6003 0.39125 88.1141 0.992321C89.6501 1.57113 90.9858 2.40595 92.1212 3.49679C93.2566 4.58762 94.1359 5.87881 94.7592 7.37036C95.3826 8.8619 95.6942 10.5093 95.6942 12.3125C95.6942 14.1157 95.3826 15.7742 94.7592 17.288C94.1582 18.8018 93.29 20.1153 92.1546 21.2284C91.0415 22.3415 89.7169 23.2097 88.1808 23.833C86.6448 24.4341 84.964 24.7346 83.1385 24.7346C81.2908 24.7346 79.5989 24.4341 78.0628 23.833C76.5267 23.2097 75.191 22.3415 74.0557 21.2284C72.9426 20.1153 72.0744 18.8018 71.451 17.288C70.85 15.7742 70.5494 14.1157 70.5494 12.3125Z" fill="white"/>
</svg>
