<svg width="504" height="634" viewBox="0 0 504 634" fill="none" xmlns="http://www.w3.org/2000/svg">
<path d="M252 634C391.176 634 504 616.315 504 594.5C504 572.685 391.176 555 252 555C112.824 555 0 572.685 0 594.5C0 616.315 112.824 634 252 634Z" fill="#FBE5F3"/>
<g clip-path="url(#clip0_0_122)">
<path d="M317 28.1609H58V383H317V28.1609Z" fill="#363636"/>
<path d="M306.763 361.896H258.793H79.5662V42.5025H306.763V322.161V361.896Z" fill="#E0E0E0"/>
<path d="M303.174 355.97H255.636H78.0246V38.2788H303.174V316.448V355.97Z" fill="#EBEBEB"/>
<path d="M278.98 331.247L253.048 352.359H73.8208V39.0847H301.017V313.386L278.98 331.247Z" fill="#FAFAFA"/>
<path d="M278.98 331.247C278.98 331.247 279.439 330.855 280.365 330.095C281.296 329.334 282.682 328.201 284.519 326.699C288.209 323.696 293.708 319.22 300.961 313.317L300.928 313.386C300.902 268.328 300.842 168.209 300.766 39.0849L301.017 39.336C233.362 39.344 156.707 39.3531 75.8042 39.3627H73.8209L74.0989 39.0849C74.0781 156.86 74.0589 265.51 74.0435 352.359L73.8209 352.136C155.634 352.195 218.481 352.239 253.047 352.264L252.988 352.285C261.636 345.271 268.128 340.006 272.462 336.491C274.628 334.741 276.253 333.428 277.342 332.549C278.429 331.675 278.98 331.247 278.98 331.247C278.98 331.247 278.449 331.7 277.373 332.587C276.291 333.475 274.676 334.801 272.524 336.567C268.203 340.097 261.731 345.386 253.108 352.433L253.081 352.454H253.047C218.481 352.479 155.634 352.524 73.8209 352.582L73.5981 352.582L73.598 352.359C73.5827 265.51 73.5635 156.86 73.5426 39.0849V38.8067H75.8042C156.707 38.8162 233.362 38.8254 301.017 38.8334H301.269L301.269 39.0849C301.192 168.209 301.133 268.328 301.106 313.386V313.428L301.073 313.455C293.796 319.329 288.279 323.782 284.576 326.77C282.727 328.256 281.331 329.377 280.394 330.131C279.458 330.879 278.98 331.247 278.98 331.247Z" fill="#363636"/>
<path d="M156.769 17.1911H218.876C227.219 17.1911 233.993 23.9635 233.993 32.3053V49.0619H141.007V32.9493C141.007 24.2521 148.07 17.1911 156.769 17.1911Z" fill="#762E5E"/>
<path d="M163.782 17.1911L160.383 0H213.921L210.947 17.1911H163.782Z" fill="#762E5E"/>
<path d="M135.86 127.264H97.5839V88.9948H135.86V127.264ZM98.6519 126.196H134.792V90.0626H98.6519V126.196Z" fill="#762E5E"/>
<path d="M271.116 98.2363C271.116 98.3899 244.473 98.5143 211.614 98.5143C178.745 98.5143 152.107 98.3899 152.107 98.2363C152.107 98.0828 178.745 97.9583 211.614 97.9583C244.473 97.9583 271.116 98.0828 271.116 98.2363Z" fill="#363636"/>
<path d="M271.116 106.189C271.116 106.342 244.473 106.467 211.614 106.467C178.745 106.467 152.107 106.342 152.107 106.189C152.107 106.035 178.745 105.911 211.614 105.911C244.473 105.911 271.116 106.035 271.116 106.189Z" fill="#363636"/>
<path d="M271.116 114.141C271.116 114.295 244.473 114.419 211.614 114.419C178.745 114.419 152.107 114.295 152.107 114.141C152.107 113.987 178.745 113.863 211.614 113.863C244.473 113.863 271.116 113.987 271.116 114.141Z" fill="#363636"/>
<path d="M271.116 122.093C271.116 122.247 244.473 122.371 211.614 122.371C178.745 122.371 152.107 122.247 152.107 122.093C152.107 121.94 178.745 121.815 211.614 121.815C244.473 121.815 271.116 121.94 271.116 122.093Z" fill="#363636"/>
<path d="M135.86 186.243H97.5839V147.974H135.86V186.243ZM98.6519 185.175H134.792V149.042H98.6519V185.175Z" fill="#762E5E"/>
<path d="M271.116 157.215C271.116 157.369 244.473 157.493 211.614 157.493C178.745 157.493 152.107 157.369 152.107 157.215C152.107 157.062 178.745 156.937 211.614 156.937C244.473 156.937 271.116 157.062 271.116 157.215Z" fill="#363636"/>
<path d="M271.116 165.168C271.116 165.321 244.473 165.446 211.614 165.446C178.745 165.446 152.107 165.321 152.107 165.168C152.107 165.014 178.745 164.89 211.614 164.89C244.473 164.89 271.116 165.014 271.116 165.168Z" fill="#363636"/>
<path d="M271.116 173.12C271.116 173.274 244.473 173.398 211.614 173.398C178.745 173.398 152.107 173.274 152.107 173.12C152.107 172.967 178.745 172.842 211.614 172.842C244.473 172.842 271.116 172.967 271.116 173.12Z" fill="#363636"/>
<path d="M271.116 181.072C271.116 181.226 244.473 181.35 211.614 181.35C178.745 181.35 152.107 181.226 152.107 181.072C152.107 180.919 178.745 180.794 211.614 180.794C244.473 180.794 271.116 180.919 271.116 181.072Z" fill="#363636"/>
<path d="M135.86 243.316H97.5839V205.046H135.86V243.316ZM98.6519 242.248H134.792V206.114H98.6519V242.248Z" fill="#762E5E"/>
<path d="M271.116 214.288C271.116 214.442 244.473 214.566 211.614 214.566C178.745 214.566 152.107 214.442 152.107 214.288C152.107 214.135 178.745 214.01 211.614 214.01C244.473 214.01 271.116 214.135 271.116 214.288Z" fill="#363636"/>
<path d="M271.116 222.241C271.116 222.394 244.473 222.519 211.614 222.519C178.745 222.519 152.107 222.394 152.107 222.241C152.107 222.087 178.745 221.962 211.614 221.962C244.473 221.962 271.116 222.087 271.116 222.241Z" fill="#363636"/>
<path d="M271.116 230.193C271.116 230.346 244.473 230.471 211.614 230.471C178.745 230.471 152.107 230.346 152.107 230.193C152.107 230.039 178.745 229.915 211.614 229.915C244.473 229.915 271.116 230.039 271.116 230.193Z" fill="#363636"/>
<path d="M271.116 238.145C271.116 238.299 244.473 238.423 211.614 238.423C178.745 238.423 152.107 238.299 152.107 238.145C152.107 237.992 178.745 237.867 211.614 237.867C244.473 237.867 271.116 237.992 271.116 238.145Z" fill="#363636"/>
<path d="M135.86 298.421H97.5839V260.152H135.86V298.421ZM98.6519 297.353H134.792V261.219H98.6519V297.353Z" fill="#762E5E"/>
<path d="M271.116 269.393C271.116 269.547 244.473 269.671 211.614 269.671C178.745 269.671 152.107 269.547 152.107 269.393C152.107 269.24 178.745 269.115 211.614 269.115C244.473 269.115 271.116 269.24 271.116 269.393Z" fill="#363636"/>
<path d="M271.116 277.346C271.116 277.499 244.473 277.624 211.614 277.624C178.745 277.624 152.107 277.499 152.107 277.346C152.107 277.192 178.745 277.068 211.614 277.068C244.473 277.068 271.116 277.192 271.116 277.346Z" fill="#363636"/>
<path d="M271.116 285.298C271.116 285.452 244.473 285.576 211.614 285.576C178.745 285.576 152.107 285.452 152.107 285.298C152.107 285.145 178.745 285.02 211.614 285.02C244.473 285.02 271.116 285.145 271.116 285.298Z" fill="#363636"/>
<path d="M271.116 293.25C271.116 293.404 244.473 293.529 211.614 293.529C178.745 293.529 152.107 293.404 152.107 293.25C152.107 293.097 178.745 292.972 211.614 292.972C244.473 292.972 271.116 293.097 271.116 293.25Z" fill="#363636"/>
<path d="M260.172 300.492L235.264 352.068H253.048L260.172 300.492Z" fill="#E0E0E0"/>
<path d="M253.048 352.359L260.172 300.783L301.017 313.386L253.048 352.359Z" fill="#FAFAFA"/>
<path d="M253.048 352.359C254.051 351.534 258.46 347.905 266.783 341.056C275.318 334.07 287.23 324.32 300.846 313.175L300.937 313.646C295.871 312.084 290.586 310.456 285.167 308.786C276.327 306.053 267.846 303.43 260.095 301.033L260.431 300.819C258.297 315.8 256.468 328.633 255.168 337.756C253.88 346.625 253.215 351.203 253.048 352.359C253.044 352.366 253.052 352.289 253.071 352.13C253.094 351.946 253.123 351.711 253.161 351.417C253.248 350.748 253.371 349.81 253.528 348.608C253.859 346.103 254.334 342.501 254.931 337.976C256.161 328.782 257.892 315.847 259.913 300.747L259.953 300.441L260.249 300.533C268.003 302.92 276.487 305.532 285.331 308.255C290.749 309.929 296.032 311.561 301.097 313.126L301.585 313.277L301.189 313.597C287.408 324.711 275.352 334.434 266.713 341.4C262.447 344.828 259.027 347.576 256.646 349.489C255.495 350.412 254.597 351.132 253.961 351.641C253.674 351.869 253.447 352.049 253.273 352.188C253.12 352.308 253.044 352.366 253.048 352.359Z" fill="#363636"/>
<g opacity="0.3">
<path d="M210.223 0L207.27 17.1911H210.947L213.921 0H209.238" fill="black"/>
</g>
</g>
<path d="M145.94 361.469V362.649" stroke="black" stroke-linecap="round" stroke-linejoin="round"/>
<path d="M276.91 293.033H278.09" stroke="black" stroke-linecap="round" stroke-linejoin="round"/>
<path d="M150.027 202.188C140.537 202.995 128.459 191.704 128.459 191.704C128.459 191.704 126.612 193.481 125.07 191.274C123.528 189.066 116.832 183.946 116.454 179.511C116.077 175.077 123.986 167.894 123.986 167.894C117.885 169.55 117.242 165.993 117.242 165.993C117.242 165.993 127.496 157.57 131.081 157.344C132.486 157.255 138.601 160.75 144.504 165.475C150.68 170.418 162.271 187.838 162.271 187.838C162.271 187.838 201.508 216.183 211.425 223.441C224.509 233.017 240.019 249.998 240.019 249.998C240.019 249.998 292.123 273.359 306.409 286.198L286.994 331.971C286.994 331.971 239.642 300.406 234.907 292.397C230.171 284.389 225.436 289.207 220.701 283.971C215.965 278.735 211.425 272.755 211.425 272.755C211.425 272.755 199.964 267.762 188.891 256.455C177.817 245.149 168.069 227.856 161.949 217.491C155.828 207.127 150.027 202.188 150.027 202.188Z" fill="white" stroke="black" stroke-linecap="round" stroke-linejoin="round"/>
<path d="M152.01 195.1C152.01 195.1 137.851 191.639 136.62 182.211C136.22 179.147 133.58 175.621 133.58 175.621C133.58 175.621 120.356 174.962 121.197 169.533L138.828 167.962C138.828 167.962 148.497 171.148 154.196 180.993" fill="white"/>
<path d="M152.01 195.1C152.01 195.1 137.851 191.639 136.62 182.211C136.22 179.147 133.58 175.621 133.58 175.621C133.58 175.621 120.356 174.962 121.197 169.533L138.828 167.962C138.828 167.962 148.497 171.148 154.196 180.993" stroke="black" stroke-linecap="round" stroke-linejoin="round"/>
<path d="M128.239 191.56C128.239 191.56 129.096 190.331 128.813 187.777C128.813 187.777 132.56 187.079 132.142 183.664C132.142 183.664 137.699 182.962 134.112 176.221" stroke="black" stroke-linecap="round" stroke-linejoin="round"/>
<path d="M131.781 183.301C131.781 183.301 124.364 177.624 123.522 175.041" stroke="black" stroke-linecap="round" stroke-linejoin="round"/>
<path d="M128.241 188.02C128.241 188.02 120.124 182.816 119.982 179.761" stroke="black" stroke-linecap="round" stroke-linejoin="round"/>
<path d="M130.601 162.062C130.601 162.062 127.937 166.941 123.522 167.962" stroke="black" stroke-linecap="round" stroke-linejoin="round"/>
<path d="M129.422 163.242C129.422 163.242 131.334 164.7 132.962 166.782" stroke="black" stroke-linecap="round" stroke-linejoin="round"/>
<path d="M430.105 323.089C430.105 323.089 399.071 309.593 367.621 302.232C336.171 294.871 285.337 288.314 285.337 288.314C285.337 288.314 299.332 431.051 295.649 439.639C291.965 448.227 269.829 477.057 269.829 477.057C269.829 477.057 389.586 523.708 410.461 527.68C431.336 531.652 420.448 459.268 420.448 459.268C420.448 459.268 442.382 367.255 430.105 323.089Z" fill="#FFC954"/>
<path d="M386.636 307.676C386.636 307.676 389.455 313.099 382.043 315.855C362.836 323.015 342.371 316.697 344.552 309.108C345.386 306.209 350.139 309.108 349.837 298.28C349.802 296.884 349.305 295.255 348.543 293.519C347.372 290.834 345.528 287.899 343.666 285.268C340.42 280.686 337.086 276.981 337.086 276.981C337.086 276.981 367.571 257.347 390.183 276.981C390.183 276.981 381.777 281.277 386.636 307.676Z" fill="white" stroke="black" stroke-linecap="round" stroke-linejoin="round"/>
<path d="M425.449 562.308C413.307 581.96 351.699 591.19 318.07 590.317C284.459 589.461 187.681 543.939 181.116 534.3C175.036 525.374 160.096 495.869 183.125 478.034C184.954 476.626 186.999 475.29 189.331 474.043C205.096 465.562 309.946 492.305 309.946 492.305C309.946 492.305 316.438 488.225 318.824 488.528C326.141 489.454 331.324 495.334 346.157 499.521C356.506 502.461 384.754 491.165 402.797 500.875C404.77 501.926 406.599 503.227 408.285 504.831C425.144 520.83 437.573 542.656 425.449 562.308Z" fill="#FFC954"/>
<path d="M425.449 562.308C413.307 581.96 351.699 591.19 318.07 590.317C284.459 589.461 187.681 543.939 181.116 534.3C175.036 525.374 160.096 495.869 183.125 478.034C184.954 476.626 186.999 475.29 189.331 474.043C205.096 465.562 309.946 492.305 309.946 492.305C309.946 492.305 316.438 488.225 318.824 488.528C326.141 489.454 331.324 495.334 346.157 499.521C356.506 502.461 384.754 491.165 402.797 500.875C404.77 501.926 406.599 503.227 408.285 504.831C425.144 520.83 437.573 542.656 425.449 562.308Z" fill="#363636"/>
<path opacity="0.3" d="M401.98 500.864C383.506 499.635 367.039 503.482 355.535 510.232C341.899 518.247 277.5 549.076 277.5 549.076C277.644 545.763 281.228 539.084 281.228 539.084C275.171 533.724 259.331 529.556 259.331 529.556C247.057 519.137 198.355 488.059 182.515 478.031C184.342 476.624 186.385 475.289 188.715 474.042C204.465 465.564 309.216 492.297 309.216 492.297C309.216 492.297 315.703 488.219 318.086 488.522C325.397 489.448 330.575 495.325 345.394 499.51C355.732 502.449 383.954 491.158 401.98 500.864Z" fill="#363636"/>
<path d="M425.449 562.308C413.307 581.96 351.699 591.19 318.07 590.317C284.459 589.461 187.681 543.939 181.116 534.3C175.036 525.374 160.096 495.869 183.125 478.034C184.954 476.626 186.999 475.29 189.331 474.043C205.096 465.562 309.946 492.305 309.946 492.305C309.946 492.305 316.438 488.225 318.824 488.528C326.141 489.454 331.324 495.334 346.157 499.521C356.506 502.461 384.754 491.165 402.797 500.875C404.77 501.926 406.599 503.227 408.285 504.831C425.144 520.83 437.573 542.656 425.449 562.308Z" stroke="black" stroke-linecap="round" stroke-linejoin="round"/>
<path d="M406.333 579.754L407.884 586.546C407.884 586.546 403.756 598.305 385.594 600.223C367.433 602.141 356.686 606.18 347.96 606.705C339.234 607.23 334.152 606.484 334.152 606.484L332.369 603.81L406.333 579.754Z" fill="white" stroke="black" stroke-linecap="round" stroke-linejoin="round"/>
<path d="M300.508 579.751L332.237 604.533C332.237 604.533 356.839 602.593 377.737 597.766L377.738 597.75C392.775 594.287 405.903 589.319 406.625 582.513C407.724 572.164 396.608 569.33 383.396 569.733C380.927 569.788 378.396 569.977 375.842 570.243C354.696 572.499 327.823 560.875 327.823 560.875L300.508 579.751Z" fill="black"/>
<path d="M300.508 579.751L332.237 604.533C332.237 604.533 356.839 602.593 377.737 597.766L377.738 597.75C392.775 594.287 405.903 589.319 406.625 582.513C407.724 572.164 396.608 569.33 383.396 569.733C380.927 569.788 378.396 569.977 375.842 570.243C354.696 572.499 327.823 560.875 327.823 560.875L300.508 579.751Z" fill="black"/>
<path opacity="0.3" d="M406.648 582.255C400.947 584.487 393.865 587.592 388.997 590.885C388.997 590.885 359.521 605.96 314.232 590.433L300.508 579.727L327.832 560.875C327.832 560.875 354.7 572.486 375.853 570.223C378.413 569.958 380.941 569.771 383.407 569.724C396.519 569.318 407.559 572.096 406.648 582.255Z" fill="#402B4A"/>
<path d="M300.508 579.751L332.237 604.533C332.237 604.533 356.839 602.593 377.737 597.766L377.738 597.75C392.775 594.287 405.903 589.319 406.625 582.513C407.724 572.164 396.608 569.33 383.396 569.733C380.927 569.788 378.396 569.977 375.842 570.243C354.696 572.499 327.823 560.875 327.823 560.875L300.508 579.751Z" stroke="black" stroke-linecap="round" stroke-linejoin="round"/>
<path d="M330.002 589.281C323.917 590.176 330.603 601.399 338.851 597.99C347.099 594.581 336.086 588.386 330.002 589.281Z" fill="white"/>
<path d="M330.002 589.281C323.917 590.176 330.603 601.399 338.851 597.99C347.099 594.581 336.086 588.386 330.002 589.281Z" fill="black"/>
<path opacity="0.2" d="M341.43 596.273C337.268 595.815 332.889 595.128 328.309 594.182C327.139 591.953 327.407 589.664 329.997 589.282C335.112 588.519 343.703 592.823 341.43 596.273Z" fill="#402B4A"/>
<path d="M330.002 589.281C323.917 590.176 330.603 601.399 338.851 597.99C347.099 594.581 336.086 588.386 330.002 589.281Z" stroke="black" stroke-linecap="round" stroke-linejoin="round"/>
<path d="M377.349 597.453C392.589 593.957 405.894 588.942 406.627 582.072C407.74 571.626 396.474 568.765 383.084 569.172C382.496 569.729 369.52 582.169 377.349 597.453Z" fill="white"/>
<path d="M377.349 597.453C392.589 593.957 405.894 588.942 406.627 582.072C407.74 571.626 396.474 568.765 383.084 569.172C382.496 569.729 369.52 582.169 377.349 597.453Z" fill="black"/>
<path opacity="0.3" d="M406.649 582.021C400.868 584.309 393.685 587.493 388.748 590.869C388.748 590.869 384.288 593.173 376.166 595.093C371.022 580.885 382.521 569.702 383.078 569.174C396.377 568.758 407.573 571.606 406.649 582.021Z" fill="#402B4A"/>
<path d="M377.349 597.453C392.589 593.957 405.894 588.942 406.627 582.072C407.74 571.626 396.474 568.765 383.084 569.172C382.496 569.729 369.52 582.169 377.349 597.453Z" stroke="black" stroke-linecap="round" stroke-linejoin="round"/>
<path d="M366.879 584.466C366.911 584.469 366.943 584.47 366.974 584.472C367.885 584.512 368.659 583.875 368.701 583.05C369.033 576.805 374.331 571.718 374.385 571.667C375.015 571.07 374.994 570.123 374.337 569.552C373.681 568.98 372.638 568.999 372.007 569.592C371.754 569.83 365.798 575.516 365.406 582.905C365.364 583.702 366.015 584.383 366.879 584.466Z" fill="white" stroke="black" stroke-linecap="round" stroke-linejoin="round"/>
<path d="M360.9 585.645C360.944 585.65 360.99 585.653 361.035 585.653C361.898 585.671 362.612 584.982 362.628 584.115C362.759 577.497 367.364 571.758 367.411 571.7C367.956 571.03 367.859 570.04 367.192 569.491C366.522 568.942 365.544 569.037 364.995 569.708C364.777 569.974 359.655 576.324 359.504 584.052C359.487 584.874 360.102 585.561 360.9 585.645Z" fill="white" stroke="black" stroke-linecap="round" stroke-linejoin="round"/>
<path d="M352.788 584.465C352.798 584.466 352.808 584.467 352.818 584.468C353.764 584.543 354.6 583.903 354.683 583.038C355.212 577.524 360.343 570.476 360.395 570.405C360.923 569.683 360.713 568.707 359.924 568.223C359.137 567.736 358.065 567.932 357.537 568.651C357.305 568.966 351.861 576.438 351.254 582.762C351.172 583.618 351.857 584.375 352.788 584.465Z" fill="white" stroke="black" stroke-linecap="round" stroke-linejoin="round"/>
<path d="M345.818 583.285C345.964 583.3 346.114 583.296 346.267 583.274C347.171 583.134 347.78 582.348 347.63 581.517C346.45 575.037 352.995 569.486 353.062 569.432C353.739 568.867 353.791 567.902 353.179 567.278C352.566 566.654 351.518 566.604 350.838 567.166C350.512 567.437 342.875 573.876 344.357 582.02C344.483 582.711 345.096 583.215 345.818 583.285Z" fill="white" stroke="black" stroke-linecap="round" stroke-linejoin="round"/>
<path d="M338.73 582.105C338.897 582.123 339.071 582.114 339.244 582.072C340.086 581.873 340.611 581.01 340.417 580.143C339.057 574.048 344.895 567.16 344.954 567.092C345.525 566.425 345.465 565.409 344.819 564.82C344.174 564.231 343.187 564.291 342.613 564.955C342.327 565.286 335.645 573.143 337.37 580.865C337.524 581.552 338.084 582.035 338.73 582.105Z" fill="white" stroke="black" stroke-linecap="round" stroke-linejoin="round"/>
<path d="M176.508 570.315L174.258 576.909C174.258 576.909 177.127 589.046 194.954 592.869C212.782 596.692 223.028 601.844 231.634 603.286C240.241 604.728 245.364 604.522 245.364 604.522L247.413 602.05L176.508 570.315Z" fill="white" stroke="black" stroke-linecap="round" stroke-linejoin="round"/>
<path d="M281.631 580.495L247.723 602.172C247.723 602.172 223.647 597.598 203.53 590.5V590.484C189.053 585.386 176.618 578.97 176.618 572.014C176.618 561.437 187.884 559.754 200.88 561.565C203.311 561.882 205.789 562.343 208.282 562.883C228.914 567.409 256.651 558.515 256.651 558.515L281.631 580.495Z" fill="black"/>
<path d="M281.631 580.495L247.723 602.172C247.723 602.172 223.647 597.598 203.53 590.5V590.484C189.053 585.386 176.618 578.97 176.618 572.014C176.618 561.437 187.884 559.754 200.88 561.565C203.311 561.882 205.789 562.343 208.282 562.883C228.914 567.409 256.651 558.515 256.651 558.515L281.631 580.495Z" fill="black"/>
<path opacity="0.3" d="M281.629 580.169L261.772 592.733C241.838 586.678 228.869 573.864 221.453 564.085C239.061 564.132 256.762 558.515 256.762 558.515L281.629 580.169Z" fill="#402B4A"/>
<path d="M281.631 580.495L247.723 602.172C247.723 602.172 223.647 597.598 203.53 590.5V590.484C189.053 585.386 176.618 578.97 176.618 572.014C176.618 561.437 187.884 559.754 200.88 561.565C203.311 561.882 205.789 562.343 208.282 562.883C228.914 567.409 256.651 558.515 256.651 558.515L281.631 580.495Z" stroke="black" stroke-linecap="round" stroke-linejoin="round"/>
<path d="M203.683 590.373C189.124 585.285 176.618 578.88 176.618 571.936C176.618 561.377 187.948 559.697 201.019 561.504C201.536 562.123 212.945 575.915 203.683 590.373Z" fill="white" stroke="black" stroke-linecap="round" stroke-linejoin="round"/>
<path d="M215.255 578.574C215.226 578.574 215.198 578.573 215.17 578.571C214.365 578.522 213.749 577.785 213.796 576.926C214.144 570.423 210.004 564.627 209.962 564.569C209.469 563.888 209.585 562.909 210.221 562.382C210.857 561.855 211.772 561.979 212.267 562.655C212.465 562.928 217.122 569.409 216.71 577.103C216.666 577.933 216.023 578.574 215.255 578.574Z" fill="white" stroke="black" stroke-linecap="round" stroke-linejoin="round"/>
<path d="M222.148 579.754C222.102 579.754 222.055 579.753 222.01 579.748C221.126 579.677 220.471 578.937 220.548 578.097C221.124 571.684 217.038 565.661 216.995 565.6C216.511 564.896 216.716 563.949 217.456 563.487C218.199 563.024 219.187 563.217 219.677 563.922C219.871 564.201 224.42 570.868 223.744 578.357C223.674 579.153 222.972 579.754 222.148 579.754Z" fill="white" stroke="black" stroke-linecap="round" stroke-linejoin="round"/>
<path d="M229.347 579.754H229.319C228.465 579.739 227.784 579.043 227.799 578.2C227.895 572.83 224.035 565.549 223.996 565.475C223.598 564.73 223.887 563.807 224.643 563.413C225.397 563.017 226.336 563.306 226.733 564.048C226.908 564.375 231.005 572.093 230.894 578.254C230.879 579.088 230.189 579.754 229.347 579.754Z" fill="white" stroke="black" stroke-linecap="round" stroke-linejoin="round"/>
<path d="M236.143 579.754C236.015 579.754 235.886 579.736 235.756 579.697C234.99 579.461 234.541 578.587 234.753 577.743C236.415 571.16 231.312 564.763 231.26 564.699C230.731 564.047 230.782 563.045 231.372 562.46C231.963 561.876 232.874 561.931 233.405 562.58C233.66 562.893 239.619 570.319 237.531 578.592C237.353 579.294 236.774 579.754 236.143 579.754Z" fill="white" stroke="black" stroke-linecap="round" stroke-linejoin="round"/>
<path d="M244.124 578.574C243.955 578.574 243.782 578.547 243.613 578.488C242.792 578.206 242.357 577.314 242.639 576.494C244.623 570.726 239.497 563.429 239.445 563.357C238.943 562.65 239.107 561.671 239.813 561.168C240.517 560.665 241.498 560.827 242.002 561.531C242.254 561.882 248.124 570.208 245.609 577.515C245.385 578.165 244.776 578.574 244.124 578.574Z" fill="white" stroke="black" stroke-linecap="round" stroke-linejoin="round"/>
<path d="M251.453 587.101C256.779 588.631 249.653 599.611 242.662 595.26C235.671 590.91 246.127 585.572 251.453 587.101Z" fill="white" stroke="black" stroke-linecap="round" stroke-linejoin="round"/>
<path d="M187.238 529.018C195.562 540.737 220.201 553.677 244.756 564.357C247.397 568.746 252.771 576.954 260.154 584.591C275.271 600.227 281.433 591.467 281.433 591.467C281.433 591.467 290.979 590.39 305.081 588.448C306.017 590.267 308.16 593.12 312.208 592.477C314.042 592.186 317.572 589.549 321.553 586.068C357.144 580.679 405.457 571.694 418.503 561.123" fill="#363636"/>
<path d="M187.238 529.018C195.562 540.737 220.201 553.677 244.756 564.357C247.397 568.746 252.771 576.954 260.154 584.591C275.271 600.227 281.433 591.467 281.433 591.467C281.433 591.467 290.979 590.39 305.081 588.448C306.017 590.267 308.16 593.12 312.208 592.477C314.042 592.186 317.572 589.549 321.553 586.068C357.144 580.679 405.457 571.694 418.503 561.123" stroke="black" stroke-linecap="round" stroke-linejoin="round"/>
<path d="M404.344 507.223C398.207 500.464 392.071 500.157 379.183 501.079C379.183 501.079 345.561 511.754 322.112 525.963C298.662 540.173 264.426 555.102 264.426 555.102C264.426 555.102 253.993 552.077 246.735 555.102C246.735 555.102 241.637 555.498 245.053 564.415" stroke="black" stroke-linecap="round" stroke-linejoin="round"/>
<path d="M420.862 547.896C420.862 547.896 421.043 558.353 405.523 565.595" stroke="black" stroke-linecap="round" stroke-linejoin="round"/>
<path d="M256.852 504.239C256.852 504.239 280.221 520.815 284.879 531.745C284.879 531.745 293.864 535.497 298.149 538.457" stroke="black" stroke-linecap="round" stroke-linejoin="round"/>
<path d="M287.534 518.398C288.719 523.326 289.163 528.681 288.153 533.737" stroke="black" stroke-linecap="round" stroke-linejoin="round"/>
<path d="M281.626 507.779C282.982 509.641 284.146 511.632 285.166 513.678" stroke="black" stroke-linecap="round" stroke-linejoin="round"/>
<path d="M314.668 505.419C314.668 505.419 322.227 515.835 324.108 524.298" stroke="black" stroke-linecap="round" stroke-linejoin="round"/>
<path d="M358.324 569.135C361.093 568.928 363.859 568.575 366.583 567.955" stroke="black" stroke-linecap="round" stroke-linejoin="round"/>
<path d="M285.167 560.875C306.519 565.239 329.905 568.573 352.422 569.135" stroke="black" stroke-linecap="round" stroke-linejoin="round"/>
<path d="M443.277 402.508C443.277 402.508 439.036 476.079 434.038 480.392C429.04 484.705 421.149 485.937 406.215 487.169C391.281 488.402 325.266 492.44 325.266 492.44L318.205 471.323C318.205 471.323 353.31 467.776 368.891 462.069C384.472 456.362 404.753 452.621 404.753 452.621C404.753 452.621 401.804 434.093 401.804 426.127V388.607" fill="white"/>
<path d="M443.277 402.508C443.277 402.508 439.036 476.079 434.038 480.392C429.04 484.705 421.149 485.937 406.215 487.169C391.281 488.402 325.266 492.44 325.266 492.44L318.205 471.323C318.205 471.323 353.31 467.776 368.891 462.069C384.472 456.362 404.753 452.621 404.753 452.621C404.753 452.621 401.804 434.093 401.804 426.127V388.607" stroke="black" stroke-linecap="round" stroke-linejoin="round"/>
<path d="M430.532 322.531C446.591 332.359 451.326 355.084 445.768 403.606C445.768 403.606 450.509 409.339 443.503 412.205C443.503 412.205 417.277 402.45 405.071 409.17C392.865 415.89 396.033 399.878 396.033 399.878C396.033 399.878 391.013 355.244 402.128 347.18" fill="#FFC954"/>
<path d="M400.802 340.23C400.802 340.23 383.675 356.283 398.746 396.825C398.746 396.825 396.653 404.201 396.672 406.91C396.691 409.619 400.802 411.025 400.802 411.025" stroke="black" stroke-linecap="round" stroke-linejoin="round"/>
<path d="M381.925 367.368C381.925 367.368 383.114 387.068 396.084 395.686" stroke="black" stroke-linecap="round" stroke-linejoin="round"/>
<path d="M386.643 322.13C386.643 322.13 362.629 331.642 343.519 321.111C332.192 314.869 336.858 304.832 336.858 304.832" stroke="black" stroke-linecap="round" stroke-linejoin="round"/>
<path d="M214.309 507.779H344.051C346.982 507.779 349.9 507.379 352.735 506.588L378.325 499.447C379.053 499.244 379.561 498.543 379.561 497.742C379.561 496.769 378.819 495.98 377.904 495.98H208.95C208.035 495.98 207.293 496.769 207.293 497.742V500.316C207.293 504.438 210.434 507.779 214.309 507.779Z" fill="#363636" stroke="black" stroke-linecap="round" stroke-linejoin="round"/>
<path d="M201.375 500.699H331.549C333.821 500.699 335.181 498.821 334.588 496.505L310.437 402.241C309.844 399.924 307.521 398.046 305.25 398.046H175.075C172.804 398.046 171.443 399.924 172.037 402.241L196.187 496.505C196.781 498.821 199.103 500.699 201.375 500.699Z" fill="#363636" stroke="black" stroke-linecap="round" stroke-linejoin="round"/>
<path d="M180.158 401.586H177.798" stroke="black" stroke-linecap="round" stroke-linejoin="round"/>
<path d="M199.034 401.586H186.055" stroke="black" stroke-linecap="round" stroke-linejoin="round"/>
<path d="M328.827 488.9L307.608 405.778C307.017 403.463 304.704 401.586 302.443 401.586H202.576" stroke="black" stroke-linecap="round" stroke-linejoin="round"/>
<path d="M331.189 495.98L330.009 493.62" stroke="black" stroke-linecap="round" stroke-linejoin="round"/>
<path d="M241.515 452.055C241.593 452.759 241.732 453.472 241.947 454.19C243.528 459.554 248.573 462.812 253.207 461.453C257.841 460.094 260.318 454.638 258.736 449.274C257.138 443.897 252.095 440.654 247.461 442.013C246.913 442.177 246.386 442.399 245.895 442.676C246.293 446.641 244.574 450.351 241.515 452.055Z" fill="white" stroke="black" stroke-linecap="round" stroke-linejoin="round"/>
<path d="M298.321 276.115C287.148 274.879 281.045 264.126 274.332 262.444C267.618 260.763 263.325 258.856 263.325 258.856C263.325 258.856 261.009 250.662 257.549 253.522C254.089 256.383 249.516 317.511 253.99 315.592C258.464 313.674 258.464 320.885 258.464 320.885L299.952 357.929L334.726 295.548C334.726 295.548 309.495 277.352 298.321 276.115Z" fill="#FFC954"/>
<path d="M118.798 164.421V165.601V165.601" stroke="black" stroke-linecap="round" stroke-linejoin="round"/>
<path d="M122.341 163.242H116.441V169.141H122.341V163.242Z" fill="#FFC954" stroke="black" stroke-linecap="round" stroke-linejoin="round"/>
<path d="M306.41 293.033C306.41 293.033 294.894 313.085 293.431 343.77" stroke="black" stroke-linecap="round" stroke-linejoin="round"/>
<path d="M274.55 306.012C274.55 306.012 277.856 323.113 287.529 335.511" stroke="black" stroke-linecap="round" stroke-linejoin="round"/>
<path d="M318.205 376.808C318.205 376.808 334.538 429.67 370.122 445.243" stroke="black" stroke-linecap="round" stroke-linejoin="round"/>
<path d="M360.685 281.234C360.685 281.234 359.15 292.263 347.953 293.033C346.761 290.468 344.883 287.663 342.986 285.15C350.409 282.892 360.685 281.234 360.685 281.234Z" fill="black"/>
<path d="M384.573 281.983C384.573 281.983 403.02 284.284 410.742 258.998C418.465 233.713 412.396 214.655 381.861 205.478C364.932 200.39 348.003 204.485 341.902 217.567C336.672 228.785 339.143 238.105 337.937 241.866C336.588 246.072 324.108 249.652 324.109 252.541C324.11 254.933 331.023 258.998 331.023 258.998L328.99 265.278L330.906 266.316C330.906 266.316 327.363 280.472 328.99 285.456C330.179 289.1 361.424 290.613 363.865 281.58" fill="white"/>
<path d="M384.573 281.983C384.573 281.983 403.02 284.284 410.742 258.998C418.465 233.713 412.396 214.655 381.861 205.478C364.932 200.39 348.003 204.485 341.902 217.567C336.672 228.785 339.143 238.105 337.937 241.866C336.588 246.072 324.108 249.652 324.109 252.541C324.11 254.933 331.023 258.998 331.023 258.998L328.99 265.278L330.906 266.316C330.906 266.316 327.363 280.472 328.99 285.456C330.179 289.1 361.424 290.613 363.865 281.58" stroke="black" stroke-linecap="round" stroke-linejoin="round"/>
<path d="M341.81 226.958C341.81 226.958 348.288 228.481 350.069 231.678" stroke="black" stroke-linecap="round" stroke-linejoin="round"/>
<path d="M343.05 240.894C342.84 242.845 343.169 244.527 343.786 244.65C344.403 244.773 345.073 243.291 345.283 241.34C345.493 239.389 345.163 237.707 344.547 237.584C343.93 237.461 343.26 238.943 343.05 240.894Z" fill="black"/>
<path d="M331.186 265.895C331.186 265.895 340.642 269.897 344.165 267.478" stroke="black" stroke-linecap="round" stroke-linejoin="round"/>
<path d="M411.697 219.331C411.697 219.331 410.261 208.885 400.003 201.307C389.746 193.729 377.436 192.09 377.436 192.09C377.436 192.09 383.386 194.682 385.643 198.097C385.643 198.097 370.256 186.56 351.997 194.139C333.738 201.717 335.995 221.412 335.995 221.412L338.662 216.258C338.662 216.258 338.354 222.403 341.585 224.656C341.585 224.656 343.534 218.716 345.509 216.054C345.509 216.054 350.356 230.595 363.691 235.511C363.691 235.511 362.255 232.644 363.486 228.342C363.486 228.342 370.866 244.318 368.715 252.101L371.076 256.197C371.076 256.197 379.563 247.611 386.463 254.763C390.428 258.873 378.872 274.425 377.231 274.425L384.206 284.666C384.206 284.666 401.645 287.147 411.697 268.293C421.75 249.438 419.288 241.374 419.288 241.374C419.288 241.374 422.57 245.956 422.981 248.619C422.981 248.619 425.853 228.342 411.697 219.331Z" fill="black"/>
<path d="M371.305 257.867C371.305 257.867 376.591 239.587 387.93 246.033C399.27 252.48 391.164 262.218 387.111 265.948C383.058 269.677 380.018 276.514 377.384 276.514C374.75 276.514 374.142 273.199 374.142 273.199" fill="white"/>
<path d="M371.305 257.867C371.305 257.867 376.591 239.587 387.93 246.033C399.27 252.48 391.164 262.218 387.111 265.948C383.058 269.677 380.018 276.514 377.384 276.514C374.75 276.514 374.142 273.199 374.142 273.199" stroke="black" stroke-linecap="round" stroke-linejoin="round"/>
<defs>
<clipPath id="clip0_0_122">
<rect width="259" height="383" fill="white" transform="translate(58)"/>
</clipPath>
</defs>
</svg>
