<svg width="202" height="196" viewBox="0 0 202 196" fill="none" xmlns="http://www.w3.org/2000/svg">
<path d="M27.8016 10.2847C38.1375 10.2847 46.5328 19.0687 46.5328 29.8832C46.5328 40.6976 38.1375 49.4816 27.8016 49.4816C17.4656 49.4816 9.07031 40.7417 9.07031 29.9273C9.07031 19.0687 17.4656 10.3289 27.8016 10.2847ZM27.8016 0.838623C12.4453 0.838623 0 13.8601 0 29.9273C0 45.9945 12.4453 59.016 27.8016 59.016C43.1578 59.016 55.6031 45.9945 55.6031 29.9273C55.6031 13.8601 43.1578 0.838623 27.8016 0.838623Z" fill="#363636"/>
<path d="M188.895 13.6394C190.92 13.6394 192.608 15.3609 192.608 17.5238V42.3308C192.608 44.4496 190.962 46.2152 188.895 46.2152H83.3422C81.3172 46.2152 79.6297 44.4937 79.6297 42.3308V17.4796C79.6297 15.3609 81.275 13.5953 83.3422 13.5953H188.895M188.895 4.14917H83.3422C76.2969 4.14917 70.6016 10.1082 70.6016 17.4796V42.2867C70.6016 49.6582 76.2969 55.6171 83.3422 55.6171H188.853C195.898 55.6171 201.594 49.6582 201.594 42.2867V17.4796C201.636 10.1082 195.941 4.14917 188.895 4.14917Z" fill="#363636"/>
<path d="M27.8016 78.5061C38.1375 78.5061 46.5328 87.2901 46.5328 98.1045C46.5328 108.919 38.1375 117.703 27.8016 117.747C17.4656 117.791 9.07031 108.963 9.02812 98.1045C9.07031 87.2901 17.4656 78.5061 27.8016 78.5061ZM27.8016 69.0159C12.4453 69.0159 0 82.0374 0 98.1045C0 114.172 12.4453 127.193 27.8016 127.193C43.1578 127.193 55.6031 114.172 55.6031 98.1045C55.6031 82.0374 43.1578 69.0159 27.8016 69.0159Z" fill="#363636"/>
<path d="M188.895 81.8165C190.92 81.8165 192.608 83.5379 192.608 85.7008V110.552C192.608 112.671 190.962 114.436 188.895 114.436H83.3422C81.3172 114.436 79.6297 112.715 79.6297 110.552V85.745C79.6297 83.6262 81.275 81.8606 83.3422 81.8606L188.895 81.8165ZM188.895 72.3704H83.3422C76.2969 72.3704 70.6016 78.3293 70.6016 85.7008V110.552C70.6016 117.923 76.2969 123.882 83.3422 123.882H188.853C195.898 123.882 201.594 117.923 201.594 110.552V85.745C201.636 78.3293 195.941 72.3704 188.895 72.3704Z" fill="#363636"/>
<path d="M27.8016 146.639C38.1375 146.639 46.5328 155.423 46.5328 166.238C46.5328 177.052 38.1375 185.836 27.8016 185.88C17.4656 185.924 9.07031 177.096 9.07031 166.282C9.07031 155.423 17.4656 146.639 27.8016 146.639ZM27.8016 137.193C12.4453 137.149 0 150.171 0 166.238C0 182.305 12.4453 195.326 27.8016 195.326C43.1578 195.326 55.6031 182.305 55.6031 166.238C55.6031 150.171 43.1578 137.193 27.8016 137.193Z" fill="#363636"/>
<path d="M188.895 149.95C190.92 149.95 192.608 151.671 192.608 153.834V178.685C192.608 180.804 190.962 182.57 188.895 182.57H83.3422C81.3172 182.57 79.6297 180.848 79.6297 178.685V153.834C79.6297 151.715 81.275 149.95 83.3422 149.95H188.895ZM188.895 140.504H83.3422C76.2969 140.504 70.6016 146.463 70.6016 153.834V178.685C70.6016 186.057 76.2969 192.016 83.3422 192.016H188.853C195.898 192.016 201.594 186.057 201.594 178.685V153.834C201.636 146.463 195.941 140.504 188.895 140.504Z" fill="#363636"/>
</svg>
