<svg id="Layer_1" enable-background="new 0 0 512 512" viewBox="0 0 512 512" xmlns="http://www.w3.org/2000/svg"><g id="Layer_2_00000103229152478503354820000015836330744587016626_"><g id="Layer_1_copy_10"><g id="_114"><path d="m65.9 23.3c24.5 0 44.4 19.9 44.4 44.4s-19.9 44.4-44.4 44.4-44.4-19.8-44.4-44.3c0-24.6 19.9-44.4 44.4-44.5m0-21.4c-36.4 0-65.9 29.5-65.9 65.9s29.5 65.9 65.9 65.9 65.9-29.5 65.9-65.9c0-36.4-29.5-65.9-65.9-65.9z"/><path d="m481.8 30.9c4.8 0 8.8 3.9 8.8 8.8v56.2c0 4.8-3.9 8.8-8.8 8.8h-250.2c-4.8 0-8.8-3.9-8.8-8.8v-56.3c0-4.8 3.9-8.8 8.8-8.8h250.2m0-21.4h-250.2c-16.7 0-30.2 13.5-30.2 30.2v56.2c0 16.7 13.5 30.2 30.2 30.2h250.1c16.7 0 30.2-13.5 30.2-30.2v-56.2c.1-16.7-13.4-30.2-30.1-30.2z"/><path d="m65.9 211.6c24.5 0 44.4 19.9 44.4 44.4s-19.9 44.4-44.4 44.5-44.4-19.9-44.5-44.5c.1-24.5 20-44.4 44.5-44.4m0-21.5c-36.4 0-65.9 29.5-65.9 65.9s29.5 65.9 65.9 65.9 65.9-29.5 65.9-65.9-29.5-65.9-65.9-65.9z"/><path d="m481.8 219.1c4.8 0 8.8 3.9 8.8 8.8v56.3c0 4.8-3.9 8.8-8.8 8.8h-250.2c-4.8 0-8.8-3.9-8.8-8.8v-56.2c0-4.8 3.9-8.8 8.8-8.8zm0-21.4h-250.2c-16.7 0-30.2 13.5-30.2 30.2v56.3c0 16.7 13.5 30.2 30.2 30.2h250.1c16.7 0 30.2-13.5 30.2-30.2v-56.2c.1-16.8-13.4-30.3-30.1-30.3z"/><path d="m65.9 399.8c24.5 0 44.4 19.9 44.4 44.4s-19.9 44.4-44.4 44.5-44.4-19.9-44.4-44.4c0-24.6 19.9-44.5 44.4-44.5m0-21.4c-36.4-.1-65.9 29.4-65.9 65.8s29.5 65.9 65.9 65.9 65.9-29.5 65.9-65.9c0-36.4-29.5-65.8-65.9-65.8z"/><path d="m481.8 407.3c4.8 0 8.8 3.9 8.8 8.8v56.3c0 4.8-3.9 8.8-8.8 8.8h-250.2c-4.8 0-8.8-3.9-8.8-8.8v-56.3c0-4.8 3.9-8.8 8.8-8.8zm0-21.4h-250.2c-16.7 0-30.2 13.5-30.2 30.2v56.3c0 16.7 13.5 30.2 30.2 30.2h250.1c16.7 0 30.2-13.5 30.2-30.2v-56.3c.1-16.7-13.4-30.2-30.1-30.2z"/></g></g></g></svg>