<svg width="91" height="39" viewBox="0 0 91 39" fill="none" xmlns="http://www.w3.org/2000/svg">
<path d="M7 36H15" stroke="#402B4A" stroke-width="0.860432" stroke-linecap="round" stroke-linejoin="round"/>
<path d="M9 19C6.90783 20.0252 5.46174 22.2212 5.46174 24.7649C5.46174 25.4901 5.58492 26.1842 5.80144 26.8339C5.68895 26.8251 5.57645 26.8162 5.46174 26.8162C2.99757 26.8162 1 28.8721 1 31.4081C1 33.9441 2.99757 36 5.46174 36" stroke="#402B4A" stroke-width="0.860432" stroke-linecap="round" stroke-linejoin="round"/>
<path d="M23 14.3272C22.1415 14.1146 21.2277 14 20.2797 14C16.7026 14 13.6114 15.6323 12.1456 18C12.0968 17.9991 12.0492 17.9942 12 17.9942" stroke="#402B4A" stroke-width="0.860432" stroke-linecap="round" stroke-linejoin="round"/>
<path d="M33.5 23C32 21.5 29.3156 21.933 28.9845 22C28.7052 19.1798 27.6005 16.7013 26 15" stroke="#402B4A" stroke-width="0.860432" stroke-linecap="round" stroke-linejoin="round"/>
<path d="M19 36H29.9162C33.8284 36 37 32.866 37 29" stroke="#402B4A" stroke-width="0.860432" stroke-linecap="round" stroke-linejoin="round"/>
<path d="M77.8644 15.2121C77.2702 15.1753 76.6839 15.1848 76.1088 15.237C75.6339 8.26522 70.0507 2.55745 62.8846 2.11389C57.3027 1.76839 52.2785 4.71051 49.7004 9.26995C49.6242 9.26348 49.5506 9.24917 49.4738 9.24442C44.0685 8.90985 39.4155 13.018 39.0811 18.4201C39.0123 19.5317 39.1409 20.6078 39.421 21.6247C39.2443 21.6003 39.0676 21.5756 38.8865 21.5644C34.997 21.3237 31.6488 24.2798 31.4082 28.1671C31.1676 32.0544 34.1256 35.4008 38.0152 35.6415L76.4526 38.0207C82.7547 38.4108 88.1797 33.6211 88.5695 27.3227C88.9594 21.0242 84.1665 15.6021 77.8644 15.2121Z" fill="white" stroke="#402B4A" stroke-width="0.860432" stroke-miterlimit="10"/>
<path d="M62 25V17" stroke="#402B4A" stroke-width="0.860432" stroke-linecap="round" stroke-linejoin="round"/>
<path d="M66 20L61.5 16L57 20" stroke="#402B4A" stroke-width="0.860432" stroke-linecap="round" stroke-linejoin="round"/>
<path d="M62 28V29" stroke="#402B4A" stroke-width="0.860432" stroke-linecap="round" stroke-linejoin="round"/>
<path d="M62 32V33" stroke="#402B4A" stroke-width="0.860432" stroke-linecap="round" stroke-linejoin="round"/>
</svg>
