<svg width="536" height="589" viewBox="0 0 536 589" fill="none" xmlns="http://www.w3.org/2000/svg">
<path d="M234.995 588.067C364.779 588.067 469.99 579.656 469.99 569.28C469.99 558.905 364.779 550.494 234.995 550.494C105.211 550.494 0 558.905 0 569.28C0 579.656 105.211 588.067 234.995 588.067Z" fill="#FFEEC9"/>
<path d="M232.356 433.404H220.914V568.843H232.356V433.404Z" fill="black"/>
<path d="M241.157 418.55H246.438V409.812H241.157V418.55Z" fill="#90ABEA"/>
<path d="M235.874 415.929H242.035V412.434H235.874V415.929Z" fill="#90ABEA"/>
<path d="M236.756 301.46H215.633V433.404H236.756V301.46Z" fill="black"/>
<path d="M268.442 566.222H183.949V572.338H268.442V566.222Z" fill="black"/>
<path d="M127.898 301.461H463.548C467.105 301.461 469.989 298.526 469.989 294.907C469.989 291.288 467.105 288.354 463.548 288.354H127.898C124.341 288.354 121.457 291.288 121.457 294.907C121.457 298.526 124.341 301.461 127.898 301.461Z" fill="black"/>
<path d="M328.399 321.558H207.599C201.827 321.558 197.148 326.203 197.148 331.933V451.865C197.148 457.595 201.827 462.24 207.599 462.24H328.399C334.171 462.24 338.85 457.595 338.85 451.865V331.933C338.85 326.203 334.171 321.558 328.399 321.558Z" fill="white"/>
<path d="M328.639 463.114H245.386C244.994 463.114 244.676 462.799 244.676 462.411C244.676 462.023 244.994 461.708 245.386 461.708H328.639C333.971 461.708 338.309 457.416 338.309 452.141V409.641C338.309 409.253 338.627 408.938 339.02 408.938C339.412 408.938 339.73 409.253 339.73 409.641V452.141C339.73 458.191 334.754 463.114 328.639 463.114Z" fill="black"/>
<path d="M338.849 402.822C338.363 402.822 337.969 402.51 337.969 402.126V379.924C337.969 379.54 338.363 379.229 338.849 379.229C339.335 379.229 339.729 379.54 339.729 379.924V402.126C339.729 402.51 339.335 402.822 338.849 402.822Z" fill="black"/>
<path d="M197.85 445.638C197.463 445.638 197.148 445.326 197.148 444.941V332.43C197.148 326.435 202.064 321.558 208.107 321.558H318.785C319.172 321.558 319.487 321.87 319.487 322.254C319.487 322.639 319.172 322.951 318.785 322.951H208.107C202.838 322.951 198.552 327.203 198.552 332.43V444.941C198.552 445.326 198.238 445.638 197.85 445.638Z" fill="black"/>
<path d="M319.008 339.509L314.132 334.666L306.675 342.068L303.645 353.572L310.79 346.478L311.993 347.673L304.853 354.763L316.434 351.757L323.888 344.354L319.008 339.509Z" fill="white"/>
<path d="M266.68 391.462L279.002 388.262L269.901 379.229L266.68 391.462Z" fill="#FFC954"/>
<path d="M320.316 338.209L314.107 332.044L304.931 341.152L300.966 356.201L274.817 382.164L268.763 376.154L264.039 394.084L282.102 389.394L276.048 383.384L302.197 357.421L317.354 353.486L326.528 344.376L320.316 338.209ZM278.727 388.485L266.473 391.668L269.676 379.504L278.727 388.485ZM316.458 351.935L304.632 355.004L311.923 347.765L310.695 346.544L303.398 353.787L306.493 342.043L314.107 334.485L319.087 339.43L324.069 344.376L316.458 351.935Z" fill="#FFC954"/>
<path d="M296.515 366.076C302.848 373.369 306.336 382.695 306.336 392.336C306.336 414.525 288.151 432.578 265.802 432.578C243.451 432.578 225.267 414.525 225.267 392.336C225.268 370.145 243.452 352.093 265.802 352.093C275.489 352.093 284.869 355.541 292.206 361.803L293.323 360.513C285.672 353.987 275.899 350.394 265.802 350.394C242.509 350.394 223.557 369.208 223.555 392.336C223.555 415.462 242.507 434.278 265.802 434.278C289.096 434.278 308.047 415.462 308.047 392.336C308.047 382.287 304.413 372.567 297.813 364.966L296.515 366.076Z" fill="#FFC954"/>
<path d="M265.803 364.331C272.23 364.331 278.286 366.425 283.316 370.383L284.382 369.047C279.047 364.847 272.623 362.627 265.803 362.627C249.299 362.627 235.875 375.954 235.875 392.335C235.875 408.718 249.299 422.045 265.8 422.045C282.299 422.045 295.724 408.718 295.724 392.335C295.724 385.551 293.361 378.916 289.07 373.654L287.734 374.726C291.779 379.687 294.006 385.94 294.006 392.335C294.006 407.777 281.352 420.341 265.8 420.341C250.245 420.341 237.592 407.777 237.592 392.335C237.592 376.893 250.245 364.331 265.803 364.331Z" fill="#FFC954"/>
<path d="M265.797 375.734C256.576 375.734 249.074 383.378 249.074 392.773C249.074 402.168 256.576 409.812 265.797 409.812C275.017 409.812 282.519 402.168 282.519 392.773H280.828C280.828 401.218 274.085 408.089 265.797 408.089C257.509 408.089 250.766 401.218 250.766 392.773C250.766 384.328 257.51 377.457 265.797 377.457V375.734Z" fill="#FFC954"/>
<path d="M264.419 388.78L263.961 387.093C261.564 387.73 259.832 389.809 259.655 392.267C259.43 395.445 261.853 398.213 265.058 398.438C265.195 398.448 265.331 398.452 265.467 398.452C268.056 398.452 270.379 396.731 271.082 394.235L269.386 393.764C268.869 395.597 267.114 396.813 265.182 396.696C262.946 396.539 261.256 394.607 261.415 392.391C261.538 390.676 262.745 389.225 264.419 388.78Z" fill="#FFC954"/>
<path d="M266.678 445.638H264.918V447.385H266.678V445.638Z" fill="#FFC954"/>
<path d="M263.159 445.638H261.398V447.385H263.159V445.638Z" fill="#FFC954"/>
<path d="M259.639 445.638H257.879V447.385H259.639V445.638Z" fill="#FFC954"/>
<path d="M256.12 445.638H254.359V447.385H256.12V445.638Z" fill="#FFC954"/>
<path d="M252.596 445.638H250.836V447.385H252.596V445.638Z" fill="#FFC954"/>
<path d="M249.077 445.638H247.316V447.385H249.077V445.638Z" fill="#FFC954"/>
<path d="M244.677 445.638H243.797V447.385H244.677V445.638Z" fill="#FFC954"/>
<path d="M241.157 445.638H240.277V447.385H241.157V445.638Z" fill="#FFC954"/>
<path d="M237.635 445.638H235.875V447.385H237.635V445.638Z" fill="#FFC954"/>
<path d="M234.116 445.638H232.355V447.385H234.116V445.638Z" fill="#FFC954"/>
<path d="M230.592 445.638H228.832V447.385H230.592V445.638Z" fill="#FFC954"/>
<path d="M44.0064 201.848L42.2461 201.859V204.469L44.0064 204.45V201.848Z" fill="white"/>
<path d="M54.6737 133.691V142.079L48.4062 141.512V143.855L54.6737 144.398V152.79L56.3825 152.915V144.546L62.4884 145.075V142.786L56.3825 142.234V133.87L54.6737 133.691Z" fill="white"/>
<path d="M535.119 4.52164V239.267C535.119 241.636 532.088 243.243 528.372 242.86L488.396 238.732L431.712 232.877L358.678 225.335L276.959 216.896C274.678 216.661 272.84 214.978 272.84 213.137V30.652C272.84 29.1181 274.118 27.6941 275.866 27.1274C276.215 27.0126 276.581 26.9319 276.959 26.893L342.809 20.0928L394.804 14.7241L461.797 7.80692L528.372 0.931177C532.088 0.545239 535.119 2.15485 535.119 4.52164Z" fill="#FFC954"/>
<path d="M535.997 126.701H535.117V186.119H535.997V126.701Z" fill="black"/>
<path d="M535.997 89.1274H535.117V108.351H535.997V89.1274Z" fill="black"/>
<path d="M528.707 242.916L277.403 216.958C274.887 216.699 272.84 214.793 272.84 212.708V30.2651C272.84 28.557 274.224 26.9149 276.207 26.2719C276.597 26.1436 277 26.0571 277.403 26.0158L395.197 13.8497L462.161 6.93412L528.707 0.0597825C531.16 -0.195295 533.432 0.375618 534.785 1.5864C535.579 2.29811 535.999 3.18125 535.999 4.14056V80.1238H535.006V4.14056C535.006 3.46862 534.699 2.83937 534.12 2.3203C532.99 1.30866 530.956 0.817782 528.81 1.042L462.263 7.91636L343.327 20.1994L277.506 26.9981C277.174 27.0321 276.841 27.1034 276.517 27.21C274.936 27.7228 273.833 28.9789 273.833 30.2651V212.708C273.833 214.302 275.481 215.768 277.505 215.976L432.192 231.954L528.81 241.934L528.707 242.916Z" fill="black"/>
<path d="M505.198 53.6352C505.198 63.1682 497.741 71.2299 488.677 71.6356C479.759 72.0347 472.633 64.8483 472.633 55.59C472.633 46.3318 479.759 38.2899 488.677 37.6182C497.741 36.9357 505.198 44.1022 505.198 53.6352Z" fill="white"/>
<path d="M505.198 120.126C505.198 129.675 497.741 137.312 488.677 137.185C479.759 137.06 472.633 129.442 472.633 120.169C472.633 110.895 479.759 103.259 488.677 103.111C497.741 102.96 505.198 110.577 505.198 120.126Z" fill="white"/>
<path d="M505.198 187.491C505.198 197.026 497.741 204.213 488.677 203.553C479.759 202.905 472.633 194.88 472.633 185.62C472.633 176.361 479.759 169.155 488.677 169.531C497.741 169.913 505.198 177.957 505.198 187.491Z" fill="white"/>
<path d="M464.972 47.1901C463.776 47.2683 462.583 47.3463 461.392 47.4242C458.542 47.6105 455.707 47.7959 452.886 47.9803C449.492 48.2022 446.119 48.4227 442.766 48.6419C439.883 48.8304 437.015 49.0179 434.162 49.2044C432.779 49.2948 431.397 49.3595 430.021 49.4751C430.001 49.4768 429.981 49.4778 429.961 49.4791C428.8 49.5549 427.691 50.7044 427.744 51.9654C427.798 53.2306 428.717 54.2474 429.961 54.1715C431.085 54.1029 432.212 54.0341 433.341 53.9653C436.062 53.7992 438.797 53.6323 441.546 53.4646C444.891 53.2605 448.256 53.0552 451.643 52.8485C454.589 52.6688 457.551 52.488 460.529 52.3064C461.984 52.2176 463.446 52.1548 464.909 52.0391C464.93 52.0374 464.951 52.0365 464.972 52.0352C466.213 51.9596 467.404 50.7702 467.346 49.4627C467.288 48.151 466.302 47.1032 464.972 47.1901Z" fill="white"/>
<path d="M464.972 60.2952C463.776 60.3552 462.583 60.415 461.392 60.4748C458.542 60.6178 455.707 60.76 452.886 60.9015C449.492 61.0717 446.119 61.241 442.766 61.4092C439.883 61.5538 437.015 61.6976 434.162 61.8408C432.779 61.9102 431.397 61.9557 430.021 62.0485C430.001 62.0498 429.981 62.0505 429.961 62.0515C428.8 62.1097 427.691 63.1647 427.744 64.3355C427.798 65.5103 428.717 66.4635 429.961 66.4061C431.085 66.3543 432.212 66.3023 433.341 66.2503C436.062 66.1248 438.797 65.9987 441.546 65.8719C444.891 65.7177 448.256 65.5624 451.643 65.4063C454.589 65.2704 457.551 65.1338 460.529 64.9965C461.984 64.9294 463.446 64.8865 464.909 64.7945C464.93 64.7932 464.951 64.7926 464.972 64.7916C466.213 64.7344 467.404 63.6431 467.346 62.4291C467.288 61.2113 466.302 60.2285 464.972 60.2952Z" fill="white"/>
<path d="M464.972 111.846C463.776 111.858 462.583 111.869 461.392 111.88C458.542 111.907 455.707 111.934 452.886 111.961C449.492 111.993 446.119 112.025 442.766 112.057C439.883 112.085 437.015 112.112 434.162 112.139C432.779 112.152 431.397 112.138 430.021 112.178C430.001 112.179 429.981 112.179 429.961 112.179C428.8 112.19 427.691 113.327 427.744 114.65C427.798 115.977 428.717 117.095 429.961 117.089C431.085 117.083 432.212 117.078 433.341 117.072C436.062 117.059 438.797 117.045 441.546 117.032C444.891 117.015 448.256 116.999 451.643 116.982C454.589 116.967 457.551 116.953 460.529 116.938C461.984 116.931 463.446 116.951 464.909 116.917C464.93 116.916 464.951 116.916 464.972 116.916C466.213 116.91 467.404 115.736 467.346 114.364C467.288 112.988 466.302 111.834 464.972 111.846Z" fill="white"/>
<path d="M464.972 124.172C463.776 124.169 462.583 124.166 461.392 124.163C458.542 124.157 455.707 124.15 452.886 124.143C449.492 124.135 446.119 124.127 442.766 124.119C439.883 124.112 437.015 124.105 434.162 124.099C432.779 124.095 431.397 124.065 430.021 124.089C430.001 124.089 429.981 124.089 429.961 124.089C428.8 124.086 427.691 125.227 427.744 126.57C427.798 127.918 428.717 129.064 429.961 129.072C431.085 129.08 432.212 129.088 433.341 129.096C436.062 129.115 438.797 129.135 441.546 129.154C444.891 129.177 448.256 129.201 451.643 129.225C454.589 129.245 457.551 129.266 460.529 129.287C461.984 129.297 463.446 129.336 464.909 129.318C464.93 129.317 464.951 129.318 464.972 129.318C466.213 129.327 467.404 128.149 467.346 126.756C467.288 125.359 466.302 124.175 464.972 124.172Z" fill="white"/>
<path d="M464.972 175.665C463.776 175.604 462.583 175.544 461.392 175.483C458.542 175.339 455.707 175.195 452.886 175.052C449.492 174.879 446.119 174.708 442.766 174.538C439.883 174.392 437.015 174.246 434.162 174.101C432.779 174.031 431.397 173.933 430.021 173.891C430.001 173.89 429.981 173.889 429.961 173.888C428.8 173.829 427.691 174.93 427.744 176.292C427.798 177.659 428.717 178.863 429.961 178.932C431.085 178.994 432.212 179.057 433.341 179.119C436.062 179.27 438.797 179.422 441.546 179.574C444.891 179.76 448.256 179.946 451.643 180.134C454.589 180.297 457.551 180.462 460.529 180.627C461.984 180.707 463.446 180.817 464.909 180.87C464.93 180.87 464.951 180.872 464.972 180.873C466.213 180.942 467.404 179.808 467.346 178.395C467.288 176.978 466.302 175.733 464.972 175.665Z" fill="white"/>
<path d="M464.972 189.072C463.776 189.001 462.583 188.931 461.392 188.86C458.542 188.691 455.707 188.523 452.886 188.356C449.492 188.154 446.119 187.954 442.766 187.756C439.883 187.585 437.015 187.415 434.162 187.245C432.779 187.163 431.397 187.056 430.021 187C430.001 186.999 429.981 186.998 429.961 186.996C428.8 186.928 427.691 187.952 427.744 189.236C427.798 190.524 428.717 191.67 429.961 191.749C431.085 191.82 432.212 191.892 433.341 191.964C436.062 192.137 438.797 192.312 441.546 192.487C444.891 192.7 448.256 192.914 451.643 193.13C454.589 193.318 457.551 193.507 460.529 193.696C461.984 193.789 463.446 193.909 464.909 193.975C464.93 193.976 464.951 193.978 464.972 193.979C466.213 194.058 467.404 193.003 467.346 191.672C467.288 190.336 466.302 189.151 464.972 189.072Z" fill="white"/>
<path d="M311.07 173.851C309.808 173.851 308.496 173.755 307.132 173.565L306.67 173.501L306.597 172.942C304.685 158.282 309.175 148.454 320.088 143.556L317.516 140.682C289.607 152.474 292.58 179.935 293.839 189.828C301.966 191.096 325.364 194.089 333.568 158.623L330.927 155.671C327.891 167.764 321.181 173.855 311.07 173.851Z" fill="#762E5E"/>
<path d="M307.581 171.864C312.449 172.509 325.451 173.62 330.051 154.119L321.105 144.177C305.379 150.797 306.835 166.046 307.581 171.864Z" fill="#762E5E"/>
<path d="M405.585 45.5429C403.163 45.3537 400.635 45.4197 398.064 45.7369C380.809 47.8661 362.393 60.8403 347.449 80.9053C334.598 98.163 321.433 123.768 315.969 136.173L337.522 160.779C347.635 153.17 368.588 134.892 382.359 117.53C400.78 94.3019 409.843 66.4651 405.585 45.5429ZM393.751 59.7876L394.77 60.7873L384.134 74.6209L383.136 73.6181L393.751 59.7876ZM331.98 142.458L331.082 141.443L355.204 110.012L356.148 111.022L331.98 142.458ZM369.798 106.926C366.572 107.139 363.503 105.881 361.149 103.391C356.325 98.2927 355.995 89.4679 360.407 83.6285C362.559 80.7829 365.512 79.0449 368.731 78.7415C371.972 78.4362 375.093 79.6201 377.513 82.0868C382.546 87.2165 382.893 96.2761 378.281 102.187C376.061 105.032 373.045 106.711 369.798 106.926Z" fill="#762E5E"/>
<path d="M376.577 83.4399C374.382 81.2268 371.549 80.1613 368.607 80.4306C365.681 80.6984 362.996 82.2544 361.038 84.8061C357.02 90.0466 357.321 97.973 361.713 102.547C363.854 104.778 366.644 105.904 369.576 105.708C372.523 105.511 375.26 104.001 377.273 101.45C381.453 96.1525 381.139 88.0397 376.577 83.4399Z" fill="#FFC954"/>
<path d="M315.941 103.108L293.965 132.62L314.774 135.439C317.889 128.456 323.45 117.346 330.05 105.853L315.941 103.108Z" fill="#762E5E"/>
<path d="M337.969 161.971L342.122 187.867L366.133 158.708L362.135 141.556C352.761 150.335 343.677 157.78 337.969 161.971Z" fill="#762E5E"/>
<path d="M383.464 118.921C402.569 95.219 411.868 66.661 407.185 45.2644L407.073 44.7516L406.595 44.7085C403.914 44.4698 401.106 44.527 398.252 44.8784C380.477 47.0669 361.568 60.1985 346.277 80.4681C340.813 87.7135 335.301 96.4271 330.333 104.998L315.096 102.056L291.324 134.056L314.391 137.218L316.41 139.493C287.699 152.166 291.38 181.287 292.611 190.977L292.681 191.535L293.132 191.608C295.443 191.979 297.67 192.186 299.816 192.228C317.472 192.572 329.263 181.763 334.491 159.877L336.6 162.254L341.263 191.567L367.665 159.352L363.282 140.451C370.39 133.685 377.584 126.215 383.464 118.921ZM293.69 132.962L315.533 103.608L329.557 106.337C322.996 117.77 317.469 128.82 314.373 135.766L293.69 132.962ZM293.662 190.278C292.4 180.278 289.42 152.521 317.392 140.6L319.969 143.506C309.032 148.457 304.531 158.392 306.448 173.21L306.521 173.774L306.984 173.839C308.351 174.032 309.667 174.128 310.931 174.129C321.065 174.133 327.79 167.976 330.832 155.752L333.479 158.735C325.256 194.585 301.807 191.56 293.662 190.278ZM320.951 144.613L329.828 154.619C325.263 174.248 312.361 173.129 307.531 172.48C306.791 166.624 305.345 151.276 320.951 144.613ZM315.431 136.432C320.948 124.089 334.239 98.6095 347.214 81.4365C362.301 61.4701 380.894 48.5595 398.314 46.4409C400.909 46.1252 403.462 46.0595 405.907 46.2478C410.206 67.0672 401.056 94.7673 382.459 117.882C368.556 135.158 347.402 153.347 337.191 160.918L315.431 136.432ZM366.2 158.888L342.03 188.435L337.85 162.194C343.595 157.947 352.74 150.403 362.175 141.507L366.2 158.888Z" fill="white"/>
<path d="M377.897 81.9994C375.435 79.5583 372.26 78.3866 368.963 78.6888C365.687 78.989 362.683 80.709 360.494 83.5251C356.005 89.3039 356.341 98.037 361.249 103.082C363.644 105.547 366.766 106.792 370.048 106.581C373.351 106.368 376.419 104.706 378.678 101.891C383.371 96.0414 383.017 87.0758 377.897 81.9994ZM377.675 100.877C375.665 103.387 372.932 104.872 369.989 105.066C367.062 105.258 364.276 104.151 362.139 101.956C357.753 97.4568 357.453 89.6598 361.464 84.5049C363.419 81.9948 366.1 80.4642 369.022 80.2007C371.96 79.9358 374.788 80.984 376.98 83.161C381.534 87.6857 381.849 95.6661 377.675 100.877Z" fill="white"/>
<path d="M330.93 141.418L331.844 142.429L356.453 111.105L355.493 110.099L330.93 141.418Z" fill="white"/>
<path d="M395.181 61.293L394.102 60.292L382.859 74.1423L383.916 75.1466L395.181 61.293Z" fill="white"/>
<g style="mix-blend-mode:multiply" opacity="0.15">
<path d="M432.148 232.43L358.73 224.904L275.484 27.1168C275.835 27.0022 276.203 26.9218 276.584 26.8829L342.779 20.0972L432.148 232.43Z" fill="#FFC954"/>
</g>
<g style="mix-blend-mode:multiply" opacity="0.15">
<path d="M535.121 183.315V239.268C535.121 241.636 532.098 243.243 528.392 242.86L488.523 238.733L395.18 14.7798L461.994 7.86426L535.121 183.315Z" fill="#FFC954"/>
</g>
<path d="M407.75 288.354H68.6523L124.733 180.003H463.831L407.75 288.354Z" fill="#FFC954"/>
<path d="M459.428 173.886L403.471 282.237H65.1289L121.086 173.886H459.428Z" fill="#DBDBDB"/>
<path d="M328.958 249.033H178.668L203.523 200.1H353.814L328.958 249.033Z" fill="white"/>
<path d="M295.015 214.955C291.841 227.502 278.947 237.673 266.215 237.673C253.484 237.673 245.736 227.502 248.911 214.955C252.085 202.407 264.979 192.236 277.71 192.236C290.442 192.236 298.189 202.407 295.015 214.955Z" fill="#FFC954"/>
<path d="M265.973 226.314C265.255 226.314 264.605 226.042 264.193 225.496L258.293 217.681C257.47 216.591 257.913 214.823 259.282 213.734C260.652 212.643 262.429 212.643 263.252 213.734L267.663 219.575L283.42 207.035C284.79 205.944 286.566 205.944 287.39 207.035C288.213 208.124 287.769 209.892 286.4 210.982L268.163 225.496C267.478 226.042 266.691 226.314 265.973 226.314Z" fill="white"/>
<g style="mix-blend-mode:multiply" opacity="0.32">
<path d="M343.248 173.886L196.878 282.237H86.25L234.267 173.886H343.248Z" fill="#FFE3F6"/>
</g>
<g style="mix-blend-mode:multiply" opacity="0.32">
<path d="M459.429 173.886L403.593 282.237H308.047L455.732 173.886H459.429Z" fill="#FFE3F6"/>
</g>
<path d="M282.519 198.55C282.519 198.55 281.791 201.048 277.802 201.762C276.522 201.99 274.12 202.33 271.447 202.682C272.916 205.288 274.174 212.469 274.174 212.469L267.28 219.608C267.28 219.608 264.741 218.537 267.28 214.612L267.873 213.589C268.421 212.978 268.733 212.453 268.733 212.111L267.873 213.589C266.131 215.535 261.991 218.351 257.849 218.895C252.407 219.608 250.593 218.181 250.593 218.181L238.62 222.819L234.992 208.9L245.876 207.474C245.876 207.474 254.946 198.55 256.76 197.479L257.345 197.503L282.519 198.55Z" fill="white"/>
<path d="M238.063 223.693L234.117 208.367L245.502 206.856C246.637 205.728 254.702 197.74 256.471 196.682L256.6 196.605L283.405 197.734L283.229 198.344C283.195 198.461 282.358 201.206 278.072 201.982C276.746 202.222 274.334 202.562 272.322 202.834C273.683 205.885 274.764 212.071 274.813 212.353L274.856 212.6L267.477 220.334L267.156 220.196C267.117 220.18 266.194 219.774 265.844 218.645C265.599 217.856 265.692 216.935 266.119 215.892C264.022 217.464 261.02 219.088 257.895 219.503C253.318 220.11 251.149 219.226 250.449 218.836L238.063 223.693ZM235.372 209.21L238.754 222.346L250.587 217.706L250.815 217.887C250.827 217.896 252.619 219.194 257.763 218.511C261.993 217.949 265.986 215.027 267.543 213.289L269.324 210.189V212.072C269.324 212.548 269.01 213.137 268.365 213.874L267.79 214.876C266.885 216.294 266.546 217.481 266.798 218.329C266.907 218.697 267.11 218.941 267.279 219.088L273.778 212.277C273.543 210.984 272.399 204.964 271.123 202.674L270.766 202.033L271.496 201.935C274.522 201.531 276.734 201.207 277.892 200.997C280.37 200.549 281.487 199.395 281.957 198.674L256.866 197.618C255.249 198.705 249.162 204.626 246.092 207.684L245.972 207.803L235.372 209.21Z" fill="black"/>
<path d="M271.959 201.848H262.277V202.721H271.959V201.848Z" fill="black"/>
<path d="M59.7339 545.931C59.7339 545.931 62.2587 540.568 71.6363 541.998C81.014 543.429 82.0959 545.216 83.1778 549.864C84.26 554.512 87.5062 559.517 89.67 560.59C91.8343 561.662 99.7691 567.025 106.261 568.098C112.753 569.17 113.475 573.103 112.032 574.891C110.589 576.679 86.0633 578.109 80.6533 577.394C80.6533 577.394 62.2586 577.036 57.9305 575.606C53.6024 574.176 59.3732 547.719 59.7339 545.931Z" fill="black"/>
<path d="M95.921 256.229C98.6268 255.339 101.377 257.46 101.207 260.306L93.9762 403.628L85.3026 549.62L53.4641 546.536L42.2503 276.981C42.1684 275.169 43.3017 273.525 45.0223 272.96L84.7625 259.896L95.921 256.229Z" fill="#402B4A"/>
<path d="M85.947 550.494L52.7487 547.32L41.3719 277.48C41.2792 275.459 42.5749 273.605 44.5228 272.973L96.0792 256.25C97.5234 255.781 99.1047 256.049 100.309 256.966C101.513 257.882 102.178 259.324 102.088 260.824L94.7637 404.065L85.947 550.494ZM53.7101 546.421L85.0118 549.414L93.7667 404.011L101.091 260.769C101.163 259.575 100.656 258.475 99.6996 257.747C98.7434 257.019 97.5373 256.815 96.3907 257.187L44.8344 273.91C43.3105 274.404 42.2969 275.855 42.3694 277.437L53.7101 546.421Z" fill="black"/>
<path d="M108.144 545.931C108.144 545.931 110.669 540.568 120.046 541.998C129.424 543.429 130.506 545.216 131.588 549.864C132.67 554.512 135.916 559.517 138.08 560.59C140.244 561.662 148.179 567.025 154.672 568.098C161.163 569.17 161.885 573.103 160.442 574.891C159 576.679 134.474 578.109 129.063 577.394C129.063 577.394 110.669 577.036 106.341 575.606C102.013 574.176 107.783 547.719 108.144 545.931Z" fill="black"/>
<path d="M84.4926 271.079C84.3901 301.357 105.852 546.438 105.852 546.438C105.852 546.438 131.448 549.665 134.569 546.438C137.689 543.212 147.657 290.528 144.669 256.145C144.555 254.832 99.7053 264.527 87.6921 267.148C85.8285 267.554 84.499 269.186 84.4926 271.079Z" fill="#402B4A"/>
<path d="M125.925 548.746C118.02 548.746 107.933 547.517 106.247 547.304L105.849 547.253L105.815 546.857C105.601 544.407 84.3914 301.497 84.4925 271.554C84.4998 269.417 85.9735 267.603 88.0764 267.144C93.5732 265.943 107.729 262.87 120.429 260.279C144.272 255.416 144.953 255.913 145.319 256.181C145.455 256.28 145.538 256.424 145.552 256.585C147.123 274.699 145.05 352.391 142.798 413.418C141.528 447.837 140.101 480.351 138.779 504.971C136.584 545.859 135.675 546.801 135.333 547.156C134.177 548.352 130.401 548.746 125.925 548.746ZM106.77 546.374C116.92 547.632 132.387 548.672 134.595 546.493C135.988 543.902 139.166 485.127 141.838 412.49C144.056 352.2 146.097 275.55 144.588 256.991C141.778 256.888 119.991 261.182 88.2899 268.108C86.6449 268.467 85.4921 269.886 85.4865 271.557C85.3874 300.889 105.793 535.177 106.77 546.374Z" fill="black"/>
<path d="M132.902 80.8265C132.902 85.4109 129.75 89.1276 125.861 89.1276C121.973 89.1276 118.82 85.4109 118.82 80.8265C118.82 76.2421 121.973 72.5254 125.861 72.5254C129.75 72.5254 132.902 76.2421 132.902 80.8265Z" fill="white"/>
<path d="M125.859 89.1276C121.491 89.1276 117.938 85.4038 117.938 80.8265C117.938 76.2492 121.491 72.5254 125.859 72.5254C130.227 72.5254 133.78 76.2492 133.78 80.8265C133.78 85.4038 130.226 89.1276 125.859 89.1276ZM125.859 73.8643C122.265 73.8643 119.342 76.9876 119.342 80.8265C119.342 84.6654 122.265 87.7886 125.859 87.7886C129.452 87.7886 132.376 84.6654 132.376 80.8265C132.376 76.9876 129.452 73.8643 125.859 73.8643Z" fill="black"/>
<path d="M39.027 146.798L40.4868 167.77C40.0632 166.939 39.6624 166.11 39.2847 165.289C38.7122 156.542 38.5033 149.384 39.027 146.798Z" fill="white"/>
<path d="M43.1289 135.439C43.9188 134.255 44.797 133.082 45.7693 131.944L43.1289 135.439Z" fill="white"/>
<path d="M122.568 108.92C120.48 111.021 116.162 111.601 110.108 110.889V125.321C110.108 125.321 92.2425 128.854 70.0903 124.614L77.4192 98.6502C68.7662 90.5026 64.9861 78.5266 62.686 69.8064C56.6057 46.7375 76.8958 23.002 108.005 36.0416C108.005 36.0416 118.576 38.715 124.564 54.7624C130.554 70.8098 126.562 104.906 122.568 108.92Z" fill="white"/>
<path d="M92.8856 127.575C86.4736 127.575 78.7589 127.079 70.4794 125.494L69.948 125.392L77.3297 99.2194C69.0005 91.234 65.1371 79.6225 62.6995 70.3735C61.1822 64.6118 61.25 58.6422 62.8954 53.1101C64.5222 47.6409 67.61 42.8463 71.8251 39.2446C81.1069 31.3137 94.5047 30.1487 108.587 36.0449C109.405 36.2641 119.544 39.2764 125.424 55.0471C129.185 65.1317 128.615 80.6229 128.195 86.815C127.426 98.1607 125.421 107.561 123.319 109.675C121.243 111.764 117.108 112.495 111.024 111.848V126.12L110.622 126.2C110.511 126.222 103.478 127.574 92.8856 127.575ZM71.201 124.624C90.9215 128.301 107.287 125.779 110.025 125.304V110.739L110.583 110.805C116.651 111.52 120.696 110.907 122.607 108.982C124.494 107.084 126.468 97.526 127.199 86.7489C128.077 73.7945 127.089 62.3642 124.487 55.389C118.682 39.8183 108.404 37.0182 108.3 36.9917L108.23 36.9683C94.4992 31.2076 81.4679 32.3102 72.4777 39.9922C64.1728 47.0884 60.7139 58.9159 63.6656 70.1244C66.0908 79.3262 69.9385 90.8913 78.235 98.71L78.4522 98.9145L71.201 124.624Z" fill="black"/>
<path d="M66.0078 124.798C66.0078 124.798 68.4253 116.244 70.5909 115.517C72.756 114.79 99.462 111.884 113.898 120.603C120.394 125.689 119.672 129.322 119.672 129.322C119.672 129.322 76.5824 120.999 66.0078 124.798Z" fill="#762E5E"/>
<path d="M120.579 127.575L119.673 127.357C99.6761 122.547 78.4705 122.027 67.6104 122.144L66.8906 122.152L67.1354 121.511C69.2297 116.032 70.5633 115.613 71.0015 115.476C73.6173 114.65 100.318 112.173 114.608 120.286L114.658 120.318C118.309 123.005 119.723 125.294 120.266 126.741L120.579 127.575ZM70.2542 121.186C81.5298 121.186 100.651 121.944 118.939 126.209C118.244 124.905 116.851 123.133 114.069 121.082C106.582 116.842 95.8439 115.684 88.1502 115.459C79.3677 115.202 72.2653 116.073 71.3165 116.372C71.0224 116.465 69.9708 117.085 68.3242 121.193C68.9383 121.188 69.5827 121.186 70.2542 121.186Z" fill="black"/>
<path d="M45.7693 131.944L43.1289 135.439C43.9188 134.255 44.797 133.082 45.7693 131.944Z" fill="#9DB5ED"/>
<path d="M43.0691 212.349C43.0691 212.349 44.0064 219.261 44.0064 235.052L42.2461 205.343C42.5668 208.392 42.8503 210.821 43.0691 212.349Z" fill="#9DB5ED"/>
<path d="M117.472 77.9366C116.719 79.1863 116.307 81.3 116.115 82.5838C115.853 81.195 115.532 80.0382 115.274 79.3986C115.274 79.3986 113.765 72.8916 108.231 75.8938C106.352 76.914 105.864 79.3767 106.217 82.1469C105.307 80.7117 104.365 79.6353 103.514 79.4255C100.486 78.6713 97.4592 83.9433 96.3234 86.5793C95.6831 88.0656 94.0739 92.0807 92.7934 95.3025C91.6723 98.1191 89.0253 100.033 85.9883 100.25C82.7133 100.484 78.7883 100.645 77.3434 100.235C74.6939 99.4835 61.1206 74.5293 60.7429 62.477C60.3651 50.4271 68.6911 38.3748 77.3973 34.6088C86.1036 30.8427 103.136 27.455 119.413 43.2709C119.413 43.2709 125.467 51.5573 125.847 56.4534C126.225 61.347 118.277 66.2431 117.141 69.2575C116.005 72.2693 118.608 76.0548 117.472 77.9366Z" fill="black"/>
<path d="M97.829 31.6342C97.829 31.6342 106.174 31.9167 109.063 28.2413C111.952 24.566 121.26 23.7178 128 29.655C134.741 35.5921 134.42 46.6183 128.642 50.5765C128.642 50.5765 135.382 49.4456 136.345 53.6865C137.308 57.9272 128.963 64.4299 119.013 66.4089C119.013 66.4089 102.965 62.4509 98.15 64.9952C93.3354 67.5398 60.9176 64.7127 60.9176 64.7127C60.9176 64.7127 53.8563 59.0581 55.7819 53.9691C57.7079 48.8803 59.6338 54.2519 59.6338 54.2519C59.6338 54.2519 58.0289 47.1838 68.6208 37.0058C79.2129 26.8277 93.9774 32.4823 97.829 31.6342Z" fill="black"/>
<path d="M244.627 226.534C243.636 227.097 240.297 228.038 235.551 229.108C218.57 232.942 183.6 238.456 173.972 234.419C169.118 232.383 159.122 224.43 148.757 213.919C152.339 233.954 156.025 262.96 156.234 274.152C142.156 282.468 102.356 285.75 84.8066 287.36C67.2277 288.972 35.207 273.782 35.207 273.782L44.3101 234.889C44.3101 219.399 43.3875 212.616 43.3875 212.616C43.1734 211.117 42.893 208.734 42.578 205.743L40.2974 167.349V167.347L39.05 146.34C39.0598 146.279 39.0697 146.22 39.082 146.164C39.6774 143.207 41.129 139.148 43.5941 135.207L45.8601 132.008C48.7952 128.344 52.7169 125.093 57.7679 123.366C57.854 123.334 57.9426 123.305 58.0312 123.276C58.8603 123.004 59.7189 122.769 60.612 122.583C60.612 122.583 105.109 119.724 136.689 133.301C151.918 135.457 185.642 204.082 185.642 204.082L230.424 204.748L240.865 204.905C247.998 207.487 249.166 223.952 244.627 226.534Z" fill="#762E5E"/>
<path d="M244.652 226.35C243.671 226.916 240.366 227.86 235.669 228.936C234.3 220.716 232.605 212.551 230.594 204.469L240.929 204.627C247.988 207.22 249.145 223.757 244.652 226.35Z" fill="#592347"/>
<path d="M43.0907 230.683C42.9629 218.017 42.1981 212.256 42.1904 212.2C41.9764 210.703 41.6956 208.323 41.3788 205.319L37.8438 145.909L37.8523 145.856C37.8636 145.785 37.8752 145.717 37.8895 145.652C38.6058 142.1 40.2752 138.052 42.4678 134.552L42.4836 134.529L44.7683 131.31C48.1754 127.063 52.2605 124.105 56.91 122.518C56.9903 122.489 57.0843 122.457 57.1783 122.426C58.0603 122.138 58.9472 121.9 59.8152 121.719L59.8854 121.71C59.9138 121.708 62.7887 121.527 67.4958 121.474C78.3768 121.348 99.6265 121.898 119.682 126.965C125.682 128.476 131.23 130.315 136.172 132.43C142.652 133.421 152.912 145.661 166.667 168.815C176.193 184.851 184.198 200.85 185.325 203.119L240.274 203.936L240.259 204.926L184.701 204.099L184.566 203.826C184.23 203.143 150.769 135.492 135.965 133.4L135.899 133.39L135.838 133.364C130.928 131.259 125.41 129.429 119.437 127.924C99.4912 122.885 78.3403 122.34 67.5071 122.463C63.1079 122.513 60.324 122.674 59.9841 122.695C59.1633 122.867 58.3247 123.093 57.4907 123.366C57.4085 123.393 57.3251 123.421 57.2443 123.45C52.7698 124.978 48.841 127.824 45.5557 131.915L43.3053 135.087C40.2834 139.915 39.1926 144.225 38.8638 145.855C38.8558 145.891 38.8496 145.925 38.8439 145.959L42.3706 205.239C42.6843 208.208 42.9636 210.576 43.1764 212.064C43.1846 212.124 43.9576 217.933 44.0861 230.673L43.0907 230.683Z" fill="black"/>
<path d="M82.1175 287.48C64.3344 287.481 36.4484 274.386 35.207 273.799L35.634 272.909C35.9522 273.06 67.6589 287.949 84.8583 286.375L87.3491 286.149C105.17 284.535 142.134 281.187 155.661 273.443C155.456 264.718 153.163 244.706 150.173 225.591L151.154 225.44C154.183 244.807 156.499 265.109 156.66 273.713L156.665 274L156.417 274.146C142.907 282.107 105.443 285.5 87.4392 287.131L84.9493 287.357C84.0407 287.44 83.093 287.48 82.1175 287.48Z" fill="black"/>
<path d="M184.968 235.926C182.682 235.926 180.551 235.839 178.668 235.639L178.78 234.714C196.299 236.571 240.128 228.483 244.184 226.314L244.678 227.122C242.443 228.318 229.676 230.978 216.799 232.932C208.791 234.147 195.299 235.926 184.968 235.926Z" fill="black"/>
<path d="M132.9 80.3896V81.2634H115.675C115.55 80.9275 115.42 80.6316 115.297 80.3896H132.9Z" fill="black"/>
<path d="M113.378 94.3701C112.729 94.3701 112.048 94.1271 111.349 93.6442C108.802 91.8852 106.279 86.9751 105.725 82.6987C105.298 79.3927 106.108 77.0115 108.007 75.9937C109.734 75.0692 111.29 74.9001 112.631 75.4924C115.033 76.5533 115.788 79.6642 115.819 79.7961L114.847 80.0163C114.84 79.9893 114.167 77.2432 112.218 76.3852C111.177 75.927 109.922 76.0855 108.485 76.8547C106.443 77.949 106.499 80.9084 106.715 82.575C107.229 86.5458 109.615 91.2476 111.923 92.8419C112.581 93.2966 113.181 93.4682 113.707 93.3542C114.995 93.0734 115.788 91.8191 116.064 89.6266L117.055 89.7468C116.64 93.0459 115.123 94.05 113.923 94.3114C113.744 94.3507 113.562 94.3701 113.378 94.3701Z" fill="black"/>
<path d="M148.014 214.081C147.779 213.831 124.408 188.808 114.418 169.083L115.307 168.644C125.232 188.243 148.509 213.164 148.743 213.413L148.014 214.081Z" fill="black"/>
<path d="M56.3607 263.014C51.0879 254.94 46.9318 246.218 44.0078 237.089L44.9677 236.8C47.8654 245.846 51.9843 254.49 57.2098 262.492L56.3607 263.014Z" fill="black"/>
<path d="M450.759 195.731H350.16C344.4 195.731 339.73 200.367 339.73 206.086V305.96C339.73 311.679 344.4 316.315 350.16 316.315H450.759C456.519 316.315 461.189 311.679 461.189 305.96V206.086C461.189 200.367 456.519 195.731 450.759 195.731Z" fill="white"/>
<path d="M451.151 317.189H350.648C344.628 317.189 339.73 312.327 339.73 306.35V206.57C339.73 200.593 344.628 195.731 350.648 195.731H451.151C457.171 195.731 462.069 200.593 462.069 206.57V306.35C462.069 312.327 457.171 317.189 451.151 317.189ZM350.648 196.719C345.177 196.719 340.726 201.138 340.726 206.57V306.35C340.726 311.782 345.177 316.201 350.648 316.201H451.151C456.622 316.201 461.074 311.782 461.074 306.35V206.57C461.074 201.138 456.622 196.719 451.151 196.719H350.648Z" fill="black"/>
<path d="M406.619 242.043C406.619 236.675 404.514 231.628 400.687 227.832C396.861 224.036 391.776 221.945 386.369 221.945C380.961 221.945 375.877 224.036 372.053 227.832C364.159 235.668 364.159 248.417 372.053 256.253C375.877 260.049 380.961 262.14 386.369 262.14C391.776 262.14 396.861 260.049 400.687 256.253C404.514 252.457 406.619 247.41 406.619 242.043ZM375.858 252.477C375.494 252.837 374.903 252.813 374.561 252.432C371.994 249.563 370.59 245.909 370.59 242.042C370.59 238.174 371.994 234.52 374.561 231.653C374.903 231.272 375.494 231.248 375.858 231.609C376.192 231.94 376.201 232.471 375.887 232.822C373.607 235.367 372.363 238.609 372.363 242.042C372.363 245.474 373.607 248.717 375.887 251.264C376.201 251.615 376.192 252.145 375.858 252.477Z" fill="#FFC954"/>
<path d="M420.544 272.914L417.469 275.965L433.955 292.328L437.03 289.277L420.544 272.914Z" fill="#A6BCEE"/>
<path d="M410.998 242.034C410.998 235.5 408.434 229.359 403.78 224.739C399.125 220.12 392.939 217.576 386.358 217.576C379.779 217.576 373.592 220.12 368.939 224.739C359.333 234.275 359.333 249.791 368.939 259.325C373.592 263.945 379.779 266.489 386.358 266.489C390.476 266.489 394.431 265.48 397.959 263.597C399.588 262.728 401.595 262.995 402.903 264.294L431.209 292.388C432.832 294 435.464 294 437.088 292.388C438.712 290.776 438.712 288.163 437.088 286.551L408.784 258.457C407.476 257.159 407.207 255.167 408.083 253.549C409.98 250.047 410.998 246.12 410.998 242.034ZM386.358 264.52C380.308 264.52 374.619 262.181 370.342 257.933C361.51 249.166 361.51 234.9 370.342 226.132C374.619 221.885 380.308 219.545 386.358 219.545C392.407 219.545 398.096 221.885 402.376 226.132C406.658 230.38 409.013 236.027 409.013 242.034C409.013 248.038 406.658 253.686 402.376 257.933C398.096 262.181 392.407 264.52 386.358 264.52Z" fill="#FFC954"/>
</svg>
