<svg width="101" height="56" viewBox="0 0 101 56" fill="none" xmlns="http://www.w3.org/2000/svg">
<g clip-path="url(#clip0_597_464)">
<path d="M62.0127 0.524902H61.1445V6.55878H62.0127V0.524902Z" fill="white"/>
<path d="M69.0012 6.55878L66.406 3.0954C65.8963 2.42497 65.6738 2.10366 65.4854 1.77926H65.4606C65.473 2.05422 65.4854 2.35082 65.4854 2.7988V6.55878H64.6172V0.524902H65.5749L67.9817 3.76583C68.5533 4.53513 68.7881 4.84717 68.9734 5.18084H68.9982C68.9858 4.8966 68.9858 4.60927 68.9858 4.16438V0.524902H69.8663V6.55878H68.9951H69.0012Z" fill="white"/>
<path d="M74.1758 1.34363H73.3447V5.7246H74.2376C75.8503 5.7246 76.4343 4.70814 76.4343 3.50322C76.4343 2.2983 75.7638 1.34363 74.1758 1.34363ZM74.0646 6.55878H72.4766V0.524902H74.0522C76.3879 0.524902 77.3673 1.69275 77.3673 3.50322C77.3673 5.31369 76.2643 6.55878 74.0677 6.55878" fill="white"/>
<path d="M80.3478 0.524902H79.4766V6.55878H80.3478V0.524902Z" fill="white"/>
<path d="M85.1731 2.90984C85.0124 2.48966 84.8889 2.16526 84.8394 1.93046H84.8271C84.7653 2.17762 84.6541 2.47731 84.4903 2.89748L83.9805 4.26306H85.6829L85.1731 2.90984ZM86.6283 6.55859L86.0073 5.05707H83.6839L83.0907 6.55859H82.1484L84.6077 0.5H85.0928L87.5613 6.55859H86.6314H86.6283Z" fill="white"/>
<path d="M61.1445 18.7284V12.6914H62.0127V17.922H64.4071V18.7284H61.1445Z" fill="white"/>
<path d="M69.2859 13.5009H66.9533V15.2526H69.2488V16.059H66.9533V17.922H69.4496V18.7284H66.082V12.6914H69.5856L69.2859 13.5009Z" fill="white"/>
<path d="M74.2278 15.0763C74.0671 14.6562 73.9435 14.3318 73.891 14.097H73.8787C73.8169 14.3441 73.7056 14.6438 73.5419 15.064L73.0321 16.4296H74.7345L74.2247 15.0763H74.2278ZM75.6799 18.7251L75.062 17.2236H72.7386L72.1454 18.7251H71.2031L73.6624 12.6665H74.1475L76.616 18.7251H75.683H75.6799Z" fill="white"/>
<path d="M80.1094 13.5131H79.2783V17.894H80.1712C81.7839 17.894 82.3679 16.8776 82.3679 15.6727C82.3679 14.4677 81.6974 13.5131 80.1094 13.5131ZM79.9982 18.7282H78.4102V12.6943H79.9858C82.3184 12.6943 83.3009 13.8622 83.3009 15.6727C83.3009 17.4831 82.1948 18.7282 79.9982 18.7282Z" fill="white"/>
<path d="M88.6101 13.5009H86.2775V15.2526H88.573V16.059H86.2775V17.922H88.7738V18.7284H85.4062V12.6914H88.9098L88.6101 13.5009Z" fill="white"/>
<path d="M92.6453 13.5131H91.9502V15.5244H92.6577C93.3776 15.5244 93.773 15.0887 93.773 14.5048C93.773 13.958 93.4363 13.5131 92.6422 13.5131H92.6453ZM94.4465 18.7282C93.5753 17.3626 92.9697 16.3431 92.6577 16.3431H91.9502V18.7282H91.082V12.6943H92.6453C94.1098 12.6943 94.7184 13.5007 94.7184 14.4307C94.7184 15.237 94.2488 15.7344 93.6031 15.994V16.0187C93.8132 16.167 94.5825 17.3101 95.4908 18.7251H94.4496L94.4465 18.7282Z" fill="white"/>
<path d="M98.6411 18.8517C97.81 18.8517 97.3003 18.6416 96.9141 18.3914L97.2508 17.7209C97.4856 17.8816 98.0078 18.1318 98.5144 18.1318C99.2343 18.1318 99.7812 17.7858 99.7812 17.1648C99.7812 16.0587 98.292 16.1082 97.5103 15.3636C97.2385 15.1041 97.0376 14.7302 97.0376 14.171C97.0376 13.2905 97.7328 12.5923 98.8759 12.5923C99.534 12.5923 100.068 12.7777 100.316 12.9167V13.7478C99.9325 13.513 99.4228 13.3369 98.9624 13.3369C98.3909 13.3369 97.8965 13.6118 97.8965 14.1062C97.8965 15.4717 100.677 14.8631 100.677 17.0968C100.677 18.277 99.6483 18.8486 98.6411 18.8486" fill="white"/>
<path d="M64.3445 25.6703H62.0119V27.4808H64.3074V28.2871H62.0119V30.8947H61.1406V24.8608H64.6442L64.3445 25.6703Z" fill="white"/>
<path d="M68.899 25.544C67.7064 25.544 66.9618 26.4493 66.9618 27.8766C66.9618 29.304 67.7311 30.1969 68.9237 30.1969C70.1163 30.1969 70.8361 29.3256 70.8361 27.9013C70.8361 26.4771 70.0668 25.544 68.899 25.544ZM70.9226 30.2247C70.4252 30.7345 69.7301 31.0218 68.9113 31.0218C68.0926 31.0218 67.4345 30.7468 66.9402 30.2648C66.3563 29.718 66.0195 28.9116 66.0195 27.9075C66.0195 26.9034 66.3439 26.1187 66.8877 25.5749C67.3851 25.0652 68.0926 24.7686 68.9113 24.7686C69.7301 24.7686 70.4901 25.0806 70.9844 25.6244C71.4911 26.1836 71.7908 26.9652 71.7908 27.9075C71.7908 28.8498 71.4695 29.6809 70.9226 30.2278" fill="white"/>
<path d="M75.1688 25.6827H74.4736V27.6939H75.1811C75.901 27.6939 76.2965 27.2583 76.2965 26.6744C76.2965 26.1306 75.9628 25.6827 75.1657 25.6827H75.1688ZM76.97 30.8947C76.1018 29.5291 75.4932 28.5127 75.1811 28.5127H74.4736V30.8947H73.6055V24.8608H75.1688C76.6332 24.8608 77.2419 25.6672 77.2419 26.5972C77.2419 27.4035 76.7692 27.9009 76.1265 28.1605V28.1852C76.3366 28.3335 77.1059 29.4766 78.0142 30.8916H76.9731L76.97 30.8947Z" fill="white"/>
<path d="M62.3716 43.188C61.5405 43.188 61.0307 42.9779 60.6445 42.7276L60.9813 42.0572C61.2161 42.2178 61.7382 42.4681 62.248 42.4681C62.9679 42.4681 63.5147 42.1221 63.5147 41.5011C63.5147 40.395 62.0256 40.4444 61.2439 39.6999C60.9689 39.4403 60.7712 39.0665 60.7712 38.5073C60.7712 37.6268 61.4663 36.9316 62.6095 36.9316C63.2676 36.9316 63.802 37.117 64.0492 37.253V38.084C63.663 37.8492 63.1563 37.6762 62.696 37.6762C62.1244 37.6762 61.627 37.9481 61.627 38.4455C61.627 39.8111 64.4076 39.2025 64.4076 41.4362C64.4076 42.6164 63.3788 43.1849 62.3716 43.1849" fill="white"/>
<path d="M68.899 37.7136C67.7064 37.7136 66.9618 38.6189 66.9618 40.0462C66.9618 41.4736 67.7311 42.3665 68.9237 42.3665C70.1163 42.3665 70.8361 41.4983 70.8361 40.0709C70.8361 38.6436 70.0668 37.7136 68.899 37.7136ZM70.9226 42.3943C70.4252 42.9041 69.7301 43.1883 68.9113 43.1883C68.0926 43.1883 67.4345 42.9164 66.9371 42.4314C66.3532 41.8845 66.0195 41.0781 66.0195 40.074C66.0195 39.0699 66.3439 38.2852 66.8877 37.7414C67.3851 37.2317 68.0926 36.9351 68.9113 36.9351C69.7301 36.9351 70.4901 37.2471 70.9844 37.7909C71.4942 38.3501 71.7908 39.1317 71.7908 40.074C71.7908 41.0163 71.4664 41.8474 70.9226 42.3943Z" fill="white"/>
<path d="M76.2857 43.1883C74.6822 43.1883 73.4062 41.971 73.4062 40.1482C73.4062 38.3254 74.6853 36.9351 76.5112 36.9351C77.0581 36.9351 77.6544 37.0586 78.0622 37.346V38.1894C77.7285 37.9639 77.2064 37.7414 76.5483 37.7414C75.3063 37.7414 74.3269 38.659 74.3269 40.0987C74.3269 41.5385 75.2445 42.3943 76.4247 42.3943C77.1322 42.3943 77.6173 42.1471 77.951 41.9247L78.2105 42.6322C77.7625 42.9535 77.0303 43.1914 76.2857 43.1914" fill="white"/>
<path d="M81.0041 37.0308H80.1328V43.0646H81.0041V37.0308Z" fill="white"/>
<path d="M85.8324 39.4128C85.6718 38.9926 85.5451 38.6682 85.4957 38.4334H85.4833C85.4215 38.6805 85.3103 38.9771 85.1466 39.4004L84.6368 40.766H86.3391L85.8293 39.4128H85.8324ZM87.2845 43.0615L86.6635 41.56H84.3433L83.747 43.0615H82.8047L85.264 37.0029H85.749L88.2207 43.0615H87.2876H87.2845Z" fill="white"/>
<path d="M90.0156 43.0646V37.0308H90.8838V42.2583H93.2782V43.0646H90.0156Z" fill="white"/>
<path d="M62.3716 55.3548C61.5405 55.3548 61.0307 55.1447 60.6445 54.8945L60.9813 54.224C61.2161 54.3847 61.7382 54.6349 62.248 54.6349C62.9679 54.6349 63.5147 54.2889 63.5147 53.6679C63.5147 52.5618 62.0256 52.6113 61.2439 51.8698C60.9689 51.6103 60.7712 51.2364 60.7712 50.6772C60.7712 49.7967 61.4663 49.1016 62.6095 49.1016C63.2676 49.1016 63.802 49.2869 64.0492 49.4229V50.254C63.663 50.0192 63.1563 49.8431 62.696 49.8431C62.1244 49.8431 61.627 50.1149 61.627 50.6123C61.627 51.9779 64.4076 51.3693 64.4076 53.603C64.4076 54.7832 63.3788 55.3517 62.3716 55.3517" fill="white"/>
<path d="M69.6609 50.0067H67.3252V51.7554H69.6238V52.5618H67.3252V54.4248H69.8215V55.2311H66.457V49.1973H69.9575L69.6609 50.0067Z" fill="white"/>
<path d="M74.5123 55.355C72.9119 55.355 71.6328 54.1377 71.6328 52.3148C71.6328 50.492 72.9119 49.0986 74.7378 49.0986C75.2846 49.0986 75.8809 49.2222 76.2887 49.5095V50.353C75.952 50.1305 75.4329 49.905 74.7749 49.905C73.5329 49.905 72.5535 50.8226 72.5535 52.2623C72.5535 53.702 73.4711 54.5579 74.6513 54.5579C75.3588 54.5579 75.8439 54.3107 76.1775 54.0882L76.4401 54.7957C75.9952 55.1201 75.2599 55.355 74.5153 55.355" fill="white"/>
<path d="M82.1202 49.9913H80.3067V55.2311H79.4385V49.9913H77.5508V49.1973H82.355L82.1202 49.9913Z" fill="white"/>
<path d="M86.3521 49.8803C85.1595 49.8803 84.415 50.7855 84.415 52.2129C84.415 53.6403 85.1843 54.5331 86.3768 54.5331C87.5694 54.5331 88.2892 53.665 88.2892 52.2376C88.2892 50.8102 87.52 49.8803 86.3521 49.8803ZM88.3758 54.5609C87.8783 55.0707 87.1863 55.355 86.3645 55.355C85.5427 55.355 84.8877 55.0831 84.3933 54.598C83.8094 54.0512 83.4727 53.2448 83.4727 52.2376C83.4727 51.2304 83.7971 50.4488 84.3408 49.905C84.8382 49.3952 85.5457 49.0986 86.3645 49.0986C87.1832 49.0986 87.9432 49.4107 88.4375 49.9544C88.9442 50.5136 89.2408 51.2953 89.2408 52.2376C89.2408 53.1799 88.9195 54.0141 88.3727 54.5579" fill="white"/>
<path d="M92.5086 50.0191H91.8135V52.0304H92.521C93.2408 52.0304 93.6394 51.5948 93.6394 51.0108C93.6394 50.464 93.3026 50.0191 92.5086 50.0191ZM94.3098 55.2311C93.4417 53.8656 92.833 52.8491 92.521 52.8491H91.8135V55.2311H90.9453V49.1973H92.5086C93.9731 49.1973 94.5817 50.0036 94.5817 50.9336C94.5817 51.74 94.1121 52.2374 93.4633 52.4969V52.5216C93.6765 52.6699 94.4458 53.813 95.351 55.2281H94.3098V55.2311Z" fill="white"/>
<path d="M0.976295 54.5206H53.9928V1.50722H0.976295V54.5206ZM54.9722 55.5H0V0.527832H54.9722V55.4969V55.5Z" fill="white"/>
<path d="M46.1009 9.91699H8.875V14.7923H46.1009V9.91699Z" fill="white"/>
<path d="M8.875 16.8682V21.7342H41.3306V28.6857H46.1009V16.8682H8.875Z" fill="white"/>
<path d="M46.1009 37.8865V30.7775H13.8893V28.6859H39.1463V23.8198H8.875V35.6373H41.3306V37.7228H8.875V42.5888H46.1009V37.8865Z" fill="white"/>
<path d="M46.0953 42.5889H41.3281V46.1109H46.0953V42.5889Z" fill="white"/>
<path d="M13.6453 42.5889H8.875V46.1109H13.6453V42.5889Z" fill="white"/>
<path d="M24.4617 42.5889H19.6914V46.1109H24.4617V42.5889Z" fill="white"/>
<path d="M35.2789 42.5889H30.5117V46.1109H35.2789V42.5889Z" fill="white"/>
</g>
<defs>
<clipPath id="clip0_597_464">
<rect width="100.676" height="55" fill="white" transform="translate(0 0.5)"/>
</clipPath>
</defs>
</svg>
