<svg width="67" height="63" viewBox="0 0 67 63" fill="none" xmlns="http://www.w3.org/2000/svg">
<path d="M27.9846 29.9316H19.0241C15.7005 31.5853 13.4102 35.0161 13.4102 38.9735C13.4102 44.5394 17.9384 49.0677 23.5043 49.0677C29.0702 49.0677 33.5985 44.5394 33.5985 38.9735C33.5985 35.0162 31.3082 31.5853 27.9846 29.9316ZM23.5043 46.1886C19.526 46.1886 16.2892 42.952 16.2892 38.9735C16.2892 34.995 19.5258 31.7585 23.5043 31.7585C27.4828 31.7585 30.7194 34.9952 30.7194 38.9735C30.7194 42.9519 27.4827 46.1886 23.5043 46.1886Z" fill="#FFC954"/>
<path d="M43.6559 33.5748H42.2697C42.0649 33.5748 41.8844 33.444 41.8207 33.249C41.5155 32.3139 41.135 31.3952 40.6895 30.5183C40.5958 30.3339 40.6303 30.1126 40.7752 29.9677L41.7555 28.9873C43.0626 27.68 43.0626 25.5529 41.7555 24.2457L38.4931 20.9833L36.4572 23.0191L39.7196 26.2813C39.9043 26.4661 39.9043 26.7667 39.7196 26.9514L38.7393 27.9317C37.711 28.9601 37.463 30.5234 38.1224 31.8219C38.5009 32.567 38.8242 33.3478 39.0836 34.1423C39.5349 35.5249 40.8151 36.4538 42.2696 36.4538H43.6557C43.9171 36.4538 44.1296 36.6663 44.1296 36.9276V41.5412C44.1296 41.8024 43.9171 42.0151 43.6557 42.0151H42.2696C40.8154 42.0151 39.535 42.944 39.0836 44.3266C38.8244 45.1212 38.5009 45.9019 38.1224 46.647C37.463 47.9455 37.7108 49.5088 38.7393 50.5372L39.7196 51.5174C39.9043 51.7022 39.9043 52.0028 39.7196 52.1875L36.4572 55.4498C36.2727 55.6344 35.9723 55.6346 35.7872 55.4498L34.8069 54.4696C33.7788 53.4411 32.2154 53.1931 30.9169 53.8526C30.1716 54.231 29.3908 54.5544 28.5963 54.8137C27.2138 55.2649 26.2848 56.5453 26.2848 57.9996V59.3858C26.2848 59.647 26.0723 59.8596 25.8109 59.8596H21.1973C20.936 59.8596 20.7235 59.6471 20.7235 59.3858V57.9996C20.7235 56.5452 19.7944 55.2649 18.4118 54.8137C17.6175 54.5544 16.8368 54.231 16.0917 53.8526C14.793 53.193 13.23 53.441 12.2014 54.4695L11.2211 55.4499C11.1003 55.5706 10.9593 55.5886 10.8861 55.5886C10.8128 55.5886 10.6717 55.5706 10.551 55.4499L7.28865 52.1875C7.10386 52.0028 7.10386 51.7022 7.28865 51.5175L8.26884 50.5372C9.29733 49.5088 9.54519 47.9455 8.88575 46.647C8.50728 45.9019 8.18391 45.1211 7.92466 44.3267C7.47343 42.944 6.19316 42.015 4.7387 42.015H3.35295C3.09161 42.015 2.87908 41.8024 2.87908 41.5411V36.9275C2.87908 36.6662 3.09161 36.4536 3.35295 36.4536H4.73909C6.19342 36.4536 7.47383 35.5247 7.92506 34.142C8.1843 33.3475 8.50768 32.5669 8.88614 31.8216C9.54558 30.5231 9.29772 28.9598 8.26924 27.9314L7.28891 26.9511C7.10413 26.7663 7.10413 26.4657 7.28891 26.2811L10.5513 23.0187L8.5154 20.9829L5.25301 24.2453C3.94578 25.5525 3.94578 27.6796 5.25301 28.987L6.23334 29.9673C6.37821 30.1122 6.41275 30.3335 6.31905 30.518C5.87358 31.3951 5.49302 32.3138 5.18797 33.2487C5.12437 33.4436 4.9439 33.5746 4.73896 33.5746H3.35295C1.50406 33.5748 0 35.0789 0 36.9276V41.5412C0 43.39 1.50406 44.8942 3.35295 44.8942H4.73909C4.94403 44.8942 5.12437 45.025 5.1881 45.22C5.49341 46.1551 5.87397 47.0738 6.31931 47.9507C6.41302 48.1351 6.3786 48.3564 6.2336 48.5014L5.25327 49.4817C3.94604 50.7891 3.94604 52.9162 5.25327 54.2234L8.51566 57.4858C9.14893 58.1191 9.99093 58.4679 10.8866 58.4679C11.7822 58.4679 12.6241 58.1191 13.2574 57.4858L14.2377 56.5055C14.3826 56.3606 14.6041 56.3262 14.7883 56.4198C15.6653 56.8653 16.5841 57.2458 17.5191 57.551C17.7139 57.6146 17.8448 57.7951 17.8448 58V59.3862C17.8448 61.2349 19.3488 62.7391 21.1977 62.7391H25.8113C27.6602 62.7391 29.1643 61.235 29.1643 59.3862V58C29.1643 57.7951 29.2951 57.6146 29.49 57.551C30.4251 57.2458 31.3439 56.8653 32.2209 56.4198C32.4051 56.3262 32.6265 56.3605 32.7714 56.5055L33.7517 57.4858C35.0592 58.7932 37.1862 58.7929 38.4934 57.4858L41.7558 54.2234C43.0629 52.9162 43.0629 50.7891 41.7558 49.4817L40.7755 48.5014C40.6306 48.3565 40.5961 48.1352 40.6898 47.9507C41.1351 47.0738 41.5158 46.1551 41.821 45.22C41.8846 45.0252 42.065 44.8942 42.27 44.8942H43.6561C45.505 44.8942 47.0091 43.3901 47.0091 41.5412V36.9276C47.0088 35.0789 45.5047 33.5748 43.6559 33.5748Z" fill="#FFC954"/>
<path d="M25.1346 14.4962C24.1149 14.1358 22.9898 13.7024 22.3766 13.2214C22.2787 13.1447 22.2057 12.8987 22.2632 12.5939C22.2916 12.443 22.4233 11.9389 22.9218 11.7887C23.7752 11.5317 24.3822 11.8053 24.6821 12.0057L24.8413 12.1287C25.4704 12.6149 26.3744 12.4992 26.8607 11.8702C27.3469 11.2413 27.2312 10.3371 26.6021 9.85095L26.4092 9.70189C26.3898 9.68684 26.3699 9.67218 26.3496 9.65818C26.0803 9.4713 25.5946 9.18379 24.9384 8.99508V8.73544C24.9384 7.94042 24.2939 7.2959 23.4989 7.2959C22.7039 7.2959 22.0594 7.94042 22.0594 8.73544V9.04298C20.7112 9.46254 19.7064 10.6152 19.4339 12.0609C19.1796 13.4107 19.6263 14.7234 20.5997 15.4869C21.5381 16.223 22.8727 16.7504 24.1751 17.2108C25.0994 17.5376 25.1273 18.2415 25.0616 18.6321C24.9494 19.3001 24.3872 20.0221 23.4184 20.0285C22.3402 20.036 22.0626 19.9915 21.2629 19.4684C20.5977 19.0332 19.7054 19.2197 19.2702 19.8849C18.8349 20.5503 19.0215 21.4424 19.6869 21.8776C20.5893 22.468 21.2689 22.7309 22.0592 22.8393V23.1002C22.0592 23.8952 22.7037 24.5397 23.4988 24.5397C24.2938 24.5397 24.9383 23.8952 24.9383 23.1002V22.6511C26.5953 22.0683 27.6537 20.5792 27.9009 19.1093C28.2458 17.057 27.1343 15.203 25.1346 14.4962Z" fill="#363636"/>
<path d="M23.4993 0C14.7225 0 7.58203 7.14051 7.58203 15.9172C7.58203 24.694 14.7225 31.8345 23.4993 31.8345C32.276 31.8345 39.4165 24.6941 39.4165 15.9172C39.4165 7.14038 32.276 0 23.4993 0ZM23.4993 28.9554C16.31 28.9554 10.4611 23.1066 10.4611 15.9172C10.4611 8.72793 16.3101 2.87908 23.4993 2.87908C30.6885 2.87908 36.5375 8.72806 36.5375 15.9172C36.5375 23.1064 30.6886 28.9554 23.4993 28.9554Z" fill="#363636"/>
<path d="M66.4077 8.76039L61.5055 3.57897C60.8102 2.84389 59.8311 2.42236 58.8192 2.42236C57.8075 2.42236 56.8283 2.84389 56.133 3.57897L51.2308 8.76039C50.6385 9.38646 50.4758 10.3027 50.8167 11.0943C51.066 11.6734 51.5488 12.1026 52.1275 12.2913V58.7102C52.1275 60.438 53.5331 61.8437 55.2608 61.8437H62.3776C64.1053 61.8437 65.511 60.438 65.511 58.7102V12.2915C66.0897 12.1027 66.5723 11.6735 66.8218 11.0944C67.1625 10.3027 67.0001 9.38659 66.4077 8.76039ZM62.6319 11.6743V58.7103C62.6319 58.8506 62.5178 58.9647 62.3776 58.9647H55.2608C55.1207 58.9647 55.0065 58.8506 55.0065 58.7103V11.6743C55.0065 10.9505 54.648 10.3089 54.0991 9.91778L58.2242 5.55755C58.435 5.33468 58.6874 5.30144 58.8191 5.30144C58.9509 5.30144 59.2033 5.33468 59.4141 5.55755L63.5392 9.91778C62.9906 10.3089 62.6319 10.9506 62.6319 11.6743Z" fill="#363636"/>
</svg>
