<svg width="67" height="67" viewBox="0 0 67 67" fill="none" xmlns="http://www.w3.org/2000/svg">
<path d="M14.5241 12.4881L12.4883 14.5239L28.9958 31.0315L31.0316 28.9957L14.5241 12.4881Z" fill="#363636"/>
<path d="M65.8754 53.4929L48.9311 36.5486C48.5963 36.2138 48.0961 36.0636 47.6319 36.1547C47.3523 36.2104 47.0769 36.236 46.806 36.236C43.7614 36.2356 41.3578 32.997 41.334 32.9643C41.087 32.6222 40.7026 32.4055 40.282 32.3717C39.8607 32.3386 39.6567 33.0369 39.3582 33.3353L33.598 39.5433C33.3007 39.8407 32.3394 39.8611 32.3719 40.2802C32.4045 40.6995 32.6203 41.0848 32.9599 41.3328C32.9987 41.3611 36.8359 44.2084 36.1534 47.6342C36.0732 48.0992 36.2071 48.5918 36.5474 48.9322L53.4917 65.8764C54.2406 66.6253 55.2242 66.9997 56.208 66.9997C57.1918 66.9997 58.1754 66.6253 58.9243 65.8764L65.8754 58.9254C66.6009 58.1998 67.0006 57.2351 67.0006 56.2091C67.0006 55.183 66.6009 54.2182 65.8754 53.4929ZM35.715 39.9503L39.9691 35.7574C40.9486 36.7471 42.6599 38.203 44.6471 38.7969L38.796 44.6479C38.2021 42.6608 36.7046 40.9297 35.715 39.9503ZM63.8397 56.8896L56.8886 63.8407C56.5135 64.2159 55.903 64.216 55.5277 63.8407L39.6013 47.9144L47.9134 39.6024L63.8397 55.5287C64.0216 55.7105 64.1215 55.9521 64.1215 56.2092C64.1215 56.4661 64.0214 56.7077 63.8397 56.8896Z" fill="#363636"/>
<path d="M10.2183 18.2379C10.1867 18.2379 10.1549 18.2369 10.1229 18.2348C9.70888 18.2073 9.32688 18.0025 9.07484 17.6728L2.96013 9.67665C2.52186 9.10346 2.57551 8.29444 3.08563 7.78433L7.78921 3.08074C8.29946 2.57063 9.1086 2.51697 9.68153 2.95524L17.6777 9.06995C18.0072 9.322 18.212 9.704 18.2396 10.1181C18.2671 10.5321 18.1145 10.9379 17.8211 11.2313L11.2361 17.8164C10.9653 18.087 10.5988 18.2379 10.2183 18.2379ZM6.0127 8.92888L10.3631 14.6178L14.6229 10.3579L8.9339 6.00769L6.0127 8.92888Z" fill="#FFC954"/>
<path d="M13.3969 67.0005C11.4398 67.0005 9.46896 66.5734 7.62899 65.6941C7.20734 65.4926 6.90988 65.099 6.83084 64.6385C6.75179 64.1779 6.90137 63.7078 7.23168 63.3774L13.8877 56.7215L13.2399 53.7595L10.2785 53.1136L3.62318 59.7689C3.29275 60.0993 2.82241 60.249 2.3619 60.1698C1.90138 60.0908 1.50787 59.7932 1.30633 59.3716C-1.13968 54.2518 -0.0864741 48.1166 3.92732 44.1047C7.42144 40.6106 12.5629 39.3373 17.2558 40.7368L40.7368 17.2556C39.3372 12.563 40.6106 7.42132 44.105 3.92694C48.1167 -0.0865887 54.2519 -1.13967 59.3717 1.30648C59.7933 1.50801 60.0909 1.90153 60.17 2.36204C60.2489 2.82269 60.0994 3.29289 59.769 3.62333L53.1137 10.2786L53.7595 13.24L56.7215 13.8878L63.3774 7.23183C63.7075 6.90152 64.178 6.75181 64.6385 6.83098C65.0992 6.9099 65.4925 7.20749 65.6941 7.629C68.1401 12.747 67.0871 18.8824 63.0737 22.8958C60.5152 25.4543 57.073 26.8225 53.5717 26.8227C52.291 26.8228 51.0027 26.6398 49.7461 26.2651L26.265 49.7461C27.6638 54.4374 26.3897 59.5794 22.8957 63.0738C22.8954 63.0739 22.8959 63.0735 22.8957 63.0738C20.3252 65.6442 16.8837 67.0005 13.3969 67.0005ZM10.8675 63.8133C11.7019 64.0203 12.5528 64.1223 13.3995 64.1223C16.1383 64.1225 18.8407 63.0571 20.8599 61.0379C23.7803 58.1175 24.7261 53.7324 23.2693 49.8665C23.07 49.3374 23.1986 48.7407 23.5984 48.341L48.3411 23.5983C48.7409 23.1986 49.3377 23.07 49.8666 23.2692C53.7327 24.7262 58.1175 23.7803 61.0379 20.8598C63.6816 18.2162 64.6899 14.4005 63.8133 10.8674L58.2007 16.4801C57.854 16.8269 57.3543 16.9731 56.8753 16.8685L52.2424 15.8554C51.6926 15.7351 51.2634 15.3056 51.1435 14.7558L50.1331 10.1237C50.0285 9.64473 50.1749 9.14561 50.5216 8.79895L56.1333 3.18742C52.5987 2.31048 48.7837 3.3188 46.1411 5.96256C43.2207 8.88296 42.2754 13.2684 43.7325 17.1351C43.9319 17.6642 43.8032 18.2609 43.4034 18.6606L18.6607 43.4033C18.2611 43.8031 17.6643 43.9317 17.1352 43.7324C13.2685 42.2754 8.88308 43.2206 5.96293 46.1408C3.31879 48.7835 2.31047 52.5989 3.18753 56.1332L8.79906 50.5216C9.14573 50.1751 9.64459 50.0285 10.1238 50.1331L14.7559 51.1434C15.3057 51.2634 15.7352 51.6926 15.8555 52.2422L16.8686 56.8753C16.9735 57.3544 16.827 57.854 16.4802 58.2007L10.8675 63.8133Z" fill="#FFC954"/>
</svg>
