<svg width="67" height="67" viewBox="0 0 67 67" fill="none" xmlns="http://www.w3.org/2000/svg">
<g clip-path="url(#clip0_395_1523)">
<path d="M29.2243 19.9786C28.9204 19.9786 28.6164 19.8827 28.3606 19.6907L24.9495 17.1324L21.5386 19.6907C21.0268 20.0746 20.3231 20.0746 19.8113 19.6907L15.5367 16.4847C15.1742 16.2129 14.9609 15.7863 14.9609 15.3331V1.44055C15.0345 -0.463817 17.7622 -0.473107 17.8398 1.44055V14.6134L20.6751 16.7399L24.086 14.1816C24.5978 13.7977 25.3015 13.7977 25.8133 14.1816L29.2244 16.7399L32.0597 14.6134V1.44055C32.1331 -0.463947 34.8611 -0.472977 34.9385 1.44055V15.3331C34.9385 15.7862 34.7252 16.2129 34.3628 16.4847L30.0882 19.6907C29.832 19.8827 29.5281 19.9786 29.2243 19.9786Z" fill="#FFC954"/>
<path d="M9.9904 36.3354C8.08329 36.4102 8.07936 39.1379 9.9904 39.2143H18.5397C19.3347 39.2143 19.9791 38.5698 19.9791 37.7749C19.9791 36.9799 19.3347 36.3354 18.5397 36.3354H9.9904Z" fill="#363636"/>
<path d="M48.2274 1.6747C47.1482 0.595388 45.7135 0.00103388 44.1872 0.00103388H5.71512C2.64389 -0.0605999 -0.0624979 2.64239 0.00109876 5.71518V46.3245C0.00109876 47.1195 0.645571 47.764 1.44053 47.764H25.166C27.0674 47.6957 27.0786 44.9579 25.166 44.8851H2.87996V5.71505C2.87996 4.95739 3.17478 4.24565 3.71104 3.71019C4.24624 3.17472 4.95811 2.8799 5.71525 2.8799H44.1873C44.9444 2.8799 45.6563 3.17472 46.1923 3.71084C46.7278 4.24578 47.0226 4.95752 47.0226 5.71518V27.3034C47.0226 28.0983 47.6671 28.7428 48.462 28.7428C49.257 28.7428 49.9015 28.0983 49.9015 27.3034V5.71505C49.9015 4.18794 49.3067 2.75283 48.2274 1.6747Z" fill="#363636"/>
<path d="M37.9897 52.2537C36.7277 52.2609 36.0631 50.7004 36.9719 49.7964L49.7959 36.9724C50.358 36.4102 51.2695 36.4102 51.8316 36.9724C52.3937 37.5346 52.3937 38.446 51.8316 39.0082L39.0076 51.8322C38.7265 52.1131 38.358 52.2537 37.9897 52.2537Z" fill="#FFC954"/>
<path d="M37.9902 41.5671C37.1953 41.5671 36.5508 40.9227 36.5508 40.1277V37.9904C36.6263 36.0816 39.3539 36.0811 39.4296 37.9904V40.1277C39.4296 40.9227 38.7852 41.5671 37.9902 41.5671Z" fill="#FFC954"/>
<path d="M50.8144 52.2536C50.0195 52.2536 49.375 51.6092 49.375 50.8142V48.6769C49.4505 46.7681 52.1781 46.7676 52.2539 48.6769V50.8142C52.2539 51.6092 51.6094 52.2536 50.8144 52.2536Z" fill="#FFC954"/>
<path d="M44.4026 67.0001C44.0342 67.0001 43.6659 66.8596 43.3848 66.5785L37.6091 60.8029H29.4413C28.6463 60.8029 28.0019 60.1584 28.0019 59.3634V51.1954L22.2262 45.4198C21.6642 44.8576 21.6642 43.9462 22.2262 43.384L28.0019 37.6084V29.4404C28.0019 28.6455 28.6463 28.001 29.4413 28.001H37.6091L43.3848 22.2253C43.947 21.6632 44.8584 21.6632 45.4205 22.2253L51.1962 28.001H59.364C60.159 28.001 60.8035 28.6455 60.8035 29.4404V37.6084L66.5791 43.384C67.1412 43.9462 67.1412 44.8576 66.5791 45.4198L60.8035 51.1954V59.3634C60.8035 60.1584 60.159 60.8029 59.364 60.8029H51.1962L45.4205 66.5785C45.1395 66.8596 44.771 67.0001 44.4026 67.0001ZM30.8807 57.9241H38.2055C38.5873 57.9241 38.9533 58.0758 39.2233 58.3458L44.4026 63.5252L49.5819 58.3458C49.8519 58.0758 50.218 57.9241 50.5997 57.9241H57.9245V50.5994C57.9245 50.2175 58.0761 49.8515 58.3461 49.5816L63.5256 44.4022L58.3461 39.2229C58.0761 38.953 57.9245 38.5868 57.9245 38.2051V30.8804H50.5997C50.2179 30.8804 49.8519 30.7287 49.5819 30.4587L44.4026 25.2793L39.2233 30.4587C38.9533 30.7287 38.5872 30.8804 38.2055 30.8804H30.8807V38.2051C30.8807 38.5868 30.7291 38.953 30.4591 39.2229L25.2796 44.4022L30.4591 49.5816C30.7291 49.8515 30.8807 50.2177 30.8807 50.5994V57.9241Z" fill="#FFC954"/>
</g>
<defs>
<clipPath id="clip0_395_1523">
<rect width="67" height="67" fill="white"/>
</clipPath>
</defs>
</svg>
