<svg width="67" height="67" viewBox="0 0 67 67" fill="none" xmlns="http://www.w3.org/2000/svg">
<g clip-path="url(#clip0_395_1493)">
<path d="M33.502 55.4238C21.4131 55.4238 11.5781 45.5889 11.5781 33.5C11.5781 21.4111 21.4131 11.5762 33.502 11.5762C45.5908 11.5762 55.4258 21.4111 55.4258 33.5C55.4258 45.5889 45.5908 55.4238 33.502 55.4238ZM33.502 14.4551C23.0005 14.4551 14.4571 22.9986 14.4571 33.5C14.4571 44.0014 23.0005 52.5449 33.502 52.5449C44.0034 52.5449 52.5468 44.0014 52.5468 33.5C52.5468 22.9986 44.0034 14.4551 33.502 14.4551Z" fill="#363636"/>
<path d="M38.7641 67H28.236C27.441 67 26.7965 66.3555 26.7965 65.5605V61.4785C23.8426 60.7751 21.0467 59.6166 18.4571 58.0232L15.57 60.9103C15.0077 61.4723 14.0965 61.4723 13.5342 60.9103L6.08972 53.4658C5.52754 52.9036 5.52754 51.9921 6.08972 51.43L8.97676 48.5429C7.38367 45.9539 6.22503 43.1575 5.52152 40.2035H1.43946C0.644487 40.2035 0 39.559 0 38.764V28.2359C0 27.4409 0.644487 26.7964 1.43946 26.7964H5.52152C6.22503 23.8425 7.38367 21.0461 8.97676 18.4569L6.08972 15.5699C5.52754 15.0077 5.52754 14.0963 6.08972 13.5341L13.5342 6.08959C14.0965 5.52754 15.0077 5.52754 15.57 6.08959L18.4571 8.97663C21.0461 7.38354 23.8425 6.2249 26.7965 5.52139V1.43946C26.7965 0.644488 27.441 0 28.236 0H38.7641C39.5591 0 40.2036 0.644488 40.2036 1.43946V5.52152C43.1575 6.22503 45.9538 7.38367 48.5431 8.97676L51.4301 6.08972C51.9924 5.52767 52.9036 5.52767 53.4659 6.08972L60.9104 13.5342C61.4726 14.0964 61.4726 15.0079 60.9104 15.57L58.0234 18.4571C59.6165 21.0461 60.7751 23.8425 61.4786 26.7965H65.5607C66.3556 26.7965 67.0001 27.441 67.0001 28.236V38.7641C67.0001 39.5591 66.3556 40.2036 65.5607 40.2036H61.4786C60.7751 43.1575 59.6165 45.9539 58.0234 48.5431L60.9104 51.4301C61.4726 51.9923 61.4726 52.9037 60.9104 53.4659L53.4659 60.9104C52.9036 61.4725 51.9924 61.4725 51.4301 60.9104L48.5431 58.0234C45.9536 59.6169 43.1576 60.7752 40.2036 61.4786V65.5607C40.2036 66.3555 39.5591 67 38.7641 67ZM29.6753 64.1211H37.3245V60.3176C37.3245 59.6289 37.8124 59.0368 38.4884 58.9049C41.883 58.2423 45.0618 56.9253 47.9361 54.9904C48.5073 54.6059 49.2708 54.6799 49.7578 55.1667L52.4479 57.8568L57.8566 52.4481L55.1665 49.758C54.6796 49.271 54.6058 48.5075 54.9903 47.9363C56.9251 45.0622 58.242 41.8834 58.9047 38.4884C59.0366 37.8125 59.6288 37.3247 60.3175 37.3247H64.1209V29.6755H60.3175C59.6288 29.6755 59.0366 29.1876 58.9047 28.5117C58.242 25.1167 56.9251 21.938 54.9903 19.0639C54.6058 18.4927 54.6796 17.7291 55.1665 17.2422L57.8566 14.5521L52.4479 9.14335L49.7578 11.8334C49.2709 12.3202 48.5073 12.3943 47.9361 12.0097C45.062 10.0749 41.8833 8.75796 38.4883 8.09529C37.8124 7.96338 37.3245 7.37124 37.3245 6.68252V2.87893H29.6753V6.68239C29.6753 7.3711 29.1875 7.96325 28.5116 8.09516C25.1166 8.75783 21.9378 10.0748 19.0637 12.0096C18.4925 12.3939 17.729 12.3201 17.242 11.8333L14.5519 9.14322L9.14322 14.5519L11.8333 17.242C12.3202 17.729 12.394 18.4925 12.0096 19.0637C10.0748 21.9378 8.75783 25.1166 8.09515 28.5116C7.96325 29.1875 7.3711 29.6753 6.68239 29.6753H2.87893V37.3245H6.68239C7.3711 37.3245 7.96325 37.8124 8.09515 38.4883C8.75783 41.8833 10.0748 45.062 12.0096 47.9361C12.394 48.5073 12.3202 49.2709 11.8333 49.7578L9.14322 52.4479L14.5519 57.8567L17.242 55.1666C17.7291 54.6799 18.4925 54.6056 19.0637 54.9903C21.9381 56.9252 25.1168 58.2422 28.5115 58.9047C29.1875 59.0366 29.6753 59.6288 29.6753 60.3175V64.1211Z" fill="#363636"/>
<path d="M24.2256 40.1129C23.8572 40.1129 23.4888 39.9724 23.2077 39.6913L18.0505 34.5342C17.7807 34.2644 17.6289 33.8981 17.6289 33.5164C17.6289 33.1346 17.7806 32.7684 18.0505 32.4985L23.2077 27.3415C23.7699 26.7793 24.6814 26.7795 25.2435 27.3415C25.8057 27.9036 25.8057 28.8151 25.2435 29.3772L21.1042 33.5165L25.2435 37.6557C25.8057 38.2179 25.8057 39.1294 25.2435 39.6915C24.9625 39.9724 24.594 40.1129 24.2256 40.1129Z" fill="#FFC954"/>
<path d="M42.8066 40.1132C42.4383 40.1132 42.0699 39.9726 41.7888 39.6915C41.2266 39.1294 41.2266 38.2179 41.7888 37.6557L45.9282 33.5165L41.7888 29.3772C41.2266 28.8151 41.2266 27.9036 41.7888 27.3415C42.3509 26.7794 43.2623 26.7794 43.8246 27.3415L48.9818 32.4985C49.2517 32.7684 49.4035 33.1346 49.4035 33.5164C49.4035 33.8981 49.2518 34.2644 48.9818 34.5342L43.8246 39.6913C43.5435 39.9726 43.1749 40.1132 42.8066 40.1132Z" fill="#FFC954"/>
<path d="M30.2043 41.3335C29.9808 41.3335 29.7541 41.2814 29.542 41.1714C28.8364 40.805 28.5616 39.936 28.9279 39.2304L35.5511 26.4756C35.9176 25.7699 36.7866 25.4952 37.492 25.8615C38.1976 26.2279 38.4724 27.0968 38.1061 27.8024L31.4829 40.5572C31.2266 41.0507 30.7243 41.3335 30.2043 41.3335Z" fill="#FFC954"/>
</g>
<defs>
<clipPath id="clip0_395_1493">
<rect width="67" height="67" fill="white"/>
</clipPath>
</defs>
</svg>
