<svg width="59" height="67" viewBox="0 0 59 67" fill="none" xmlns="http://www.w3.org/2000/svg">
<path d="M56.5176 45.6376C55.5457 44.6657 54.2535 44.1304 52.879 44.1304C51.5044 44.1304 50.2122 44.6656 49.2403 45.6375L44.2471 50.6305C43.3635 49.0657 41.6845 48.0068 39.7628 48.0068H35.9688C34.5194 48.0068 33.0684 47.6634 31.7728 47.0139C30.0787 46.1644 28.1815 45.7155 26.2864 45.7155H24.5893C22.7267 45.7155 20.921 46.1029 19.2221 46.8672L18.0661 47.3873C16.7412 47.9834 15.3329 48.2855 13.8803 48.2855H11.5288C11.1234 47.2728 10.134 46.5547 8.97826 46.5547H2.74805C1.23283 46.5547 0 47.7875 0 49.3027V64.2521C0 65.7673 1.23283 67.0001 2.74805 67.0001H8.97826C9.87478 67.0001 10.6699 66.5666 11.1719 65.9004H41.0358C42.9729 65.9004 44.8522 65.098 46.1918 63.699L56.5292 52.9031C58.5238 50.8957 58.5199 47.6399 56.5176 45.6376ZM8.8474 64.1212H2.87891V49.4338H8.8474V64.1212ZM54.4819 50.879C54.4745 50.8864 54.4673 50.8938 54.46 50.9013L44.1124 61.7078C43.3131 62.5427 42.1917 63.0215 41.0358 63.0215H11.7263V51.1646H13.8803C15.7428 51.1646 17.5485 50.7771 19.2473 50.0129L20.4033 49.4927C21.7283 48.8967 23.1367 48.5945 24.5893 48.5945H26.2864C27.7358 48.5945 29.1867 48.9379 30.4824 49.5875C32.1765 50.4369 34.0736 50.8859 35.9688 50.8859H39.7628C41.0128 50.8859 42.0297 51.9028 42.0297 53.1527C42.0297 53.2065 42.0112 53.4282 42.0112 53.4282C41.8747 54.5485 40.9193 55.4196 39.7628 55.4196H26.6359C25.8409 55.4196 25.1964 56.0641 25.1964 56.8591C25.1964 57.654 25.8409 58.2985 26.6359 58.2985H39.7628C42.264 58.2985 44.3532 56.5044 44.8133 54.1357L51.2759 47.6731C51.704 47.245 52.2733 47.0091 52.8788 47.0091C53.4843 47.0091 54.0537 47.245 54.4817 47.6731C55.3657 48.5571 55.3657 49.9952 54.4819 50.879Z" fill="#363636"/>
<path d="M28.7723 42.8648C40.5902 42.8648 50.2047 33.2503 50.2047 21.4324C50.2047 9.6145 40.5902 0 28.7723 0C16.9543 0 7.33984 9.6145 7.33984 21.4324C7.33984 33.2503 16.9543 42.8648 28.7723 42.8648ZM28.7723 2.87891C39.0027 2.87891 47.3258 11.202 47.3258 21.4324C47.3258 31.6629 39.0027 39.9859 28.7723 39.9859C18.5418 39.9859 10.2188 31.6629 10.2188 21.4324C10.2188 11.202 18.5418 2.87891 28.7723 2.87891Z" fill="#363636"/>
<path d="M30.6079 20.0214C29.8205 19.7431 28.8549 19.3747 28.3596 18.9902C28.3351 18.9493 28.2961 18.7844 28.3688 18.5693C28.4084 18.4521 28.5088 18.2457 28.7358 18.1772C29.3585 17.9897 29.7983 18.1821 30.018 18.3268L30.1453 18.4252C30.7741 18.9115 31.6783 18.7959 32.1646 18.167C32.6509 17.5381 32.5353 16.634 31.9063 16.1477C31.9063 16.1477 31.7045 15.9925 31.6842 15.9784C31.4595 15.8224 31.0653 15.5876 30.5355 15.4207V15.3896C30.5355 14.5947 29.891 13.9502 29.0961 13.9502C28.3011 13.9502 27.6566 14.5947 27.6566 15.3896V15.5072C26.5528 15.9366 25.7411 16.9252 25.5112 18.1452C25.2813 19.3649 25.6892 20.5544 26.5756 21.2497C27.3911 21.8893 28.5344 22.3418 29.6484 22.7357C30.1215 22.9029 30.3224 23.2201 30.2454 23.6784C30.1843 24.0415 29.8716 24.6576 29.0865 24.6629C28.2129 24.6689 28.0275 24.6397 27.3995 24.2289C26.7343 23.7937 25.8423 23.9803 25.4069 24.6455C24.9717 25.3108 25.1583 26.2028 25.8234 26.6381C26.5127 27.0889 27.0646 27.3219 27.6566 27.4377V27.4757C27.6566 28.2707 28.3011 28.9151 29.0961 28.9151C29.891 28.9151 30.5355 28.2707 30.5355 27.4757V27.2731C31.846 26.7715 32.84 25.6099 33.0845 24.1557C33.3936 22.3158 32.3984 20.6544 30.6079 20.0214Z" fill="#FFC954"/>
<path d="M28.7755 6.48535C20.5336 6.48535 13.8281 13.1907 13.8281 21.4328C13.8281 29.6748 20.5335 36.3802 28.7755 36.3802C37.0176 36.3802 43.7231 29.6748 43.7231 21.4328C43.7231 13.1907 37.0176 6.48535 28.7755 6.48535ZM28.7755 33.5013C22.1209 33.5013 16.707 28.0874 16.707 21.4328C16.707 14.7782 22.1209 9.36426 28.7755 9.36426C35.4303 9.36426 40.8442 14.7782 40.8442 21.4328C40.8442 28.0874 35.4301 33.5013 28.7755 33.5013Z" fill="#FFC954"/>
</svg>
