<svg width="71" height="71" viewBox="0 0 71 71" fill="none" xmlns="http://www.w3.org/2000/svg">
<path d="M25.7086 50.8989H9.9668C9.12436 50.8989 8.44141 50.216 8.44141 49.3735C8.44141 48.5311 9.12436 47.8481 9.9668 47.8481H25.7087C26.5511 47.8481 27.2341 48.5311 27.2341 49.3735C27.2341 50.216 26.5511 50.8989 25.7086 50.8989Z" fill="#363636"/>
<path d="M42.1387 59.1104C40.8938 59.1147 38.8369 59.4046 38.8105 57.5848C38.8372 55.7655 40.8941 56.0549 42.1387 56.0596C44.133 56.0684 44.1337 59.1016 42.1387 59.1104ZM32.0156 59.1104C30.7708 59.1147 28.7138 59.4046 28.6875 57.5848C28.7141 55.7655 30.771 56.0549 32.0156 56.0596C34.01 56.0684 34.0107 59.1016 32.0156 59.1104ZM21.8926 59.1104C20.6477 59.1147 18.5908 59.4046 18.5645 57.5848C18.5911 55.7655 20.648 56.0549 21.8926 56.0596C23.887 56.0684 23.8877 59.1016 21.8926 59.1104ZM11.7695 59.1104C10.5247 59.1147 8.46775 59.4046 8.44141 57.5848C8.46803 55.7655 10.525 56.0549 11.7695 56.0596C13.7639 56.0684 13.7646 59.1016 11.7695 59.1104Z" fill="#363636"/>
<path d="M42.2045 48.5423C39.0935 48.5423 36.5625 46.0114 36.5625 42.9003C36.5625 39.7892 39.0934 37.2583 42.2045 37.2583C45.3155 37.2583 47.8465 39.7892 47.8465 42.9003C47.8465 46.0114 45.3155 48.5423 42.2045 48.5423ZM42.2045 40.3092C40.7758 40.3092 39.6133 41.4716 39.6133 42.9004C39.6133 44.3292 40.7756 45.4917 42.2045 45.4917C43.6332 45.4917 44.7957 44.3293 44.7957 42.9004C44.7957 41.4716 43.6332 40.3092 42.2045 40.3092Z" fill="#402B4A"/>
<path d="M57.1196 14.876L42.5352 29.4604L44.6924 31.6177L59.2769 17.0332L57.1196 14.876Z" fill="#402B4A"/>
<path d="M63.5105 21.2669L53.6328 31.1445L55.79 33.3017L65.6677 23.4241L63.5105 21.2669Z" fill="#402B4A"/>
<path d="M71 28.6842C71 27.3392 70.4762 26.0747 69.5252 25.1237L49.563 5.1613C48.612 4.21029 47.3474 3.68652 46.0025 3.68652C44.6573 3.68652 43.3929 4.21029 42.4418 5.1613L18.5916 29.0115H5.03545C2.25883 29.0115 0 31.2704 0 34.0469V62.2779C0 65.0544 2.25883 67.3133 5.03545 67.3133H51.6976C54.4741 67.3133 56.733 65.0544 56.733 62.2779V45.0369L69.5251 32.2447C70.4762 31.2937 71 30.0292 71 28.6842ZM51.6976 64.2626H5.03545C3.94105 64.2626 3.05078 63.3723 3.05078 62.2779V34.0469C3.05078 32.9525 3.94105 32.0623 5.03545 32.0623H19.0201C19.1464 32.0781 19.2739 32.0781 19.4002 32.0623H51.6976C52.792 32.0623 53.6822 32.9525 53.6822 34.0469V44.3812C53.682 44.398 53.682 44.4147 53.6822 44.4315V62.2779C53.6822 63.3721 52.792 64.2626 51.6976 64.2626ZM67.3679 30.0876L56.733 40.7225V34.0469C56.733 31.2703 54.4741 29.0115 51.6976 29.0115H22.9061L44.599 7.31862C44.9738 6.94379 45.4722 6.7373 46.0023 6.7373C46.5325 6.7373 47.0308 6.94379 47.4057 7.31862L67.3679 27.2808C68.1417 28.0546 68.1417 29.3138 67.3679 30.0876Z" fill="#363636"/>
</svg>
