<svg width="62" height="64" viewBox="0 0 62 64" fill="none" xmlns="http://www.w3.org/2000/svg">
<path d="M32.3744 38.875V38.0698C33.2112 37.6738 33.9096 36.9785 34.2908 36.058C35.1061 34.0892 34.1679 31.8241 32.1993 31.0088L30.8521 30.4508C30.2842 30.2155 30.0137 29.5623 30.2489 28.9944C30.3617 28.7219 30.5763 28.5086 30.8532 28.394C31.1299 28.2794 31.4327 28.2782 31.7052 28.3914L32.3789 28.6704C33.0806 28.9606 33.8849 28.6278 34.1754 27.926C34.4659 27.2244 34.1327 26.4201 33.4312 26.1295L32.7576 25.8506C32.6314 25.7984 32.5037 25.7531 32.3746 25.7149V25.125C32.3746 24.3656 31.7589 23.75 30.9996 23.75C30.2402 23.75 29.6246 24.3656 29.6246 25.125V25.9312C28.7539 26.3424 28.0776 27.0502 27.7083 27.942C26.8928 29.9107 27.8309 32.1759 29.7997 32.9915L31.1469 33.5495C31.7147 33.7846 31.9853 34.438 31.7501 35.0057C31.5149 35.5736 30.8618 35.8441 30.2938 35.609L29.6202 35.33C28.9187 35.0395 28.1143 35.3724 27.8237 36.0741C27.5331 36.7756 27.8662 37.58 28.5677 37.8708L29.2414 38.1499C29.3681 38.2023 29.4959 38.2474 29.6244 38.2855V38.875C29.6244 39.6344 30.2401 40.25 30.9994 40.25C31.7588 40.25 32.3744 39.6344 32.3744 38.875Z" fill="#363636"/>
<path d="M61.19 51.1307L58.6566 49.267C58.7251 48.723 58.7596 48.1735 58.7596 47.6249C58.7596 47.0762 58.7251 46.5268 58.6566 45.9829L61.19 44.1193C61.7544 43.704 61.9164 42.9309 61.566 42.3241L58.2327 36.5508C57.8822 35.944 57.1314 35.6975 56.4902 35.9789L53.6092 37.2411C52.7313 36.572 51.7795 36.0216 50.7651 35.5962L50.601 34.1189C50.58 33.9299 50.5216 33.7541 50.4341 33.5981C50.4771 33.071 50.499 32.5381 50.499 32.0001C50.499 21.6105 42.3311 13.0929 32.0794 12.531C32.366 12.106 32.3996 11.541 32.1301 11.0744L28.7969 5.30088C28.4464 4.69413 27.6956 4.44763 27.0544 4.729L24.1734 5.99125C23.2956 5.32212 22.3436 4.77163 21.3292 4.34637L20.9821 1.22325C20.9045 0.52675 20.3159 0 19.6154 0H12.949C12.2484 0 11.6599 0.52675 11.5824 1.22312L11.2354 4.34613C10.2207 4.7715 9.26873 5.32213 8.39098 5.991L5.51011 4.72888C4.86861 4.44775 4.11798 4.69387 3.7676 5.30075L0.434355 11.0743C0.0839798 11.681 0.24598 12.4541 0.810355 12.8694L3.34398 14.7331C3.27535 15.2776 3.24073 15.8271 3.24073 16.375C3.24073 16.9234 3.27523 17.4729 3.34373 18.017L0.810355 19.8808C0.24598 20.2959 0.0839798 21.069 0.434355 21.6758L3.7676 27.4491C4.11798 28.0559 4.86836 28.3022 5.51011 28.021L8.3911 26.7589C9.26898 27.428 10.2209 27.9784 11.2354 28.4037L11.3995 29.8814C11.4205 30.0702 11.4789 30.246 11.5664 30.4019C11.5234 30.929 11.5015 31.462 11.5015 32C11.5015 42.3896 19.6695 50.9074 29.9212 51.4692C29.6346 51.8942 29.601 52.4593 29.8705 52.9259L33.2037 58.6992C33.5541 59.306 34.3049 59.5522 34.9462 59.2711L37.8271 58.0089C38.705 58.678 39.6569 59.2284 40.6712 59.6538L41.0184 62.7769C41.0957 63.4733 41.6844 64 42.385 64H49.0515C49.7521 64 50.3406 63.4733 50.4181 62.7769L50.7652 59.6538C51.7797 59.2284 52.7313 58.678 53.6092 58.0089L56.4902 59.2711C57.1316 59.5522 57.8824 59.3061 58.2327 58.6992L61.566 52.9259C61.9162 52.319 61.7542 51.5459 61.19 51.1307ZM46.3197 44.0499C48.0446 44.3384 49.3431 45.8368 49.3431 47.6249C49.3431 49.6237 47.7169 51.2499 45.7181 51.2499C43.8506 51.2499 42.3084 49.8302 42.1139 48.0135C43.704 46.9066 45.1222 45.5691 46.3197 44.0499ZM9.51348 24.127C9.11261 23.7766 8.54498 23.6891 8.05698 23.903L5.53373 25.0084L3.43123 21.3666L5.64823 19.7356C6.07673 19.4205 6.28498 18.8862 6.18286 18.3641C6.05523 17.7116 5.99048 17.0424 5.99048 16.375C5.99048 15.7086 6.05536 15.0394 6.1831 14.386C6.2851 13.8639 6.07685 13.3298 5.64848 13.0145L3.43123 11.3834L5.53373 7.7415L8.05686 8.84688C8.54461 9.06063 9.11236 8.97338 9.51348 8.62275C10.5281 7.73588 11.6856 7.0665 12.9536 6.63325C13.4576 6.46113 13.8169 6.01338 13.8757 5.484L14.1797 2.75H18.3849L18.6887 5.48425C18.7476 6.01363 19.1069 6.46138 19.6109 6.63363C20.8784 7.06663 22.0357 7.73588 23.051 8.62313C23.4521 8.97375 24.0195 9.06087 24.5076 8.84713L27.0307 7.74162L29.1332 11.3835L27.2775 12.7486C27.2182 12.7922 27.1635 12.8398 27.1132 12.8905C25.4492 13.2285 23.8615 13.779 22.3797 14.5124C21.5809 11.903 19.1496 10 16.2822 10C12.7671 10 9.90723 12.8597 9.90723 16.375C9.90723 19.1025 11.6251 21.4466 14.0602 22.3516C13.4145 23.481 12.8784 24.6807 12.4666 25.9363C11.3886 25.5064 10.3972 24.8993 9.51348 24.127ZM15.6806 19.95C13.9556 19.6615 12.6572 18.1631 12.6572 16.375C12.6572 14.3761 14.2835 12.75 16.2822 12.75C18.1497 12.75 19.6919 14.1696 19.8864 15.9865C18.2962 17.0934 16.8781 18.4309 15.6806 19.95ZM14.2515 32C14.2515 22.7647 21.7649 15.2513 31.0001 15.2513C40.2355 15.2513 47.7489 22.7646 47.7489 32C47.7489 41.2354 40.2355 48.7489 31.0001 48.7489C21.7649 48.7487 14.2515 41.2353 14.2515 32ZM55.8174 45.636C55.945 46.2879 56.0096 46.957 56.0096 47.6249C56.0096 48.2927 55.9449 48.962 55.8174 49.6138C55.7152 50.1359 55.9234 50.6702 56.3519 50.9855L58.5689 52.6165L56.4664 56.2583L53.9431 55.1527C53.4555 54.939 52.8876 55.0263 52.4865 55.3769C51.4717 56.2639 50.3144 56.9331 49.0466 57.3662C48.5426 57.5384 48.1834 57.9861 48.1245 58.5155L47.8207 61.25H43.6154L43.3115 58.5156C43.2526 57.9863 42.8934 57.5385 42.3894 57.3662C41.1219 56.9334 39.9646 56.264 38.9492 55.3769C38.5479 55.0263 37.9805 54.939 37.4927 55.1529L34.9696 56.2583L32.8671 52.6165L34.7229 51.2513C34.7821 51.2076 34.8369 51.1601 34.887 51.1095C36.551 50.7715 38.1387 50.221 39.6206 49.4876C40.4194 52.097 42.8506 53.9999 45.7181 53.9999C49.2332 53.9999 52.0931 51.1401 52.0931 47.6249C52.0931 44.8974 50.3752 42.5531 47.9402 41.6483C48.586 40.519 49.122 39.3193 49.5337 38.0638C50.6116 38.4936 51.603 39.1007 52.4866 39.873C52.8877 40.2235 53.4554 40.3107 53.9431 40.097L56.4664 38.9915L58.5689 42.6333L56.3519 44.2643C55.9234 44.5796 55.7152 45.1139 55.8174 45.636Z" fill="#363636"/>
<path d="M34.402 8.24021C34.6739 8.55446 35.057 8.71559 35.4424 8.71559C35.7611 8.71559 36.0814 8.60534 36.3414 8.38046C36.9156 7.88359 36.9785 7.01534 36.4815 6.44096L36.428 6.37909C47.7931 8.80684 56.4837 18.7 57.151 30.5243C57.1922 31.2562 57.7986 31.822 58.5226 31.822C58.5486 31.822 58.575 31.8212 58.6012 31.8197C59.3595 31.777 59.9395 31.1276 59.8966 30.3695C59.5057 23.4405 56.6341 16.8763 51.8109 11.8861C47.5984 7.52771 42.1352 4.61646 36.2146 3.53171L36.7239 3.09121C37.2981 2.59434 37.361 1.72609 36.8641 1.15171C36.3672 0.57734 35.499 0.51459 34.9245 1.01146L32.0886 3.46484C31.8129 3.70346 31.6432 4.04184 31.6169 4.40546C31.5906 4.76921 31.7099 5.12846 31.9485 5.40434L34.402 8.24021Z" fill="#363636"/>
<path d="M27.5984 55.7595C27.1018 55.1854 26.2334 55.1225 25.6589 55.6193C25.0847 56.1161 25.0218 56.9844 25.5188 57.5588L25.579 57.6284C14.0704 55.2229 5.52567 45.4598 4.84942 33.4755C4.80667 32.7174 4.15992 32.1355 3.39904 32.1801C2.64092 32.2229 2.06092 32.8723 2.10379 33.6304C2.49117 40.4949 5.31929 47.0139 10.0673 51.9865C14.2903 56.4094 19.8055 59.3716 25.7859 60.468L25.2765 60.9086C24.7023 61.4055 24.6394 62.2738 25.1363 62.8481C25.4083 63.1625 25.7914 63.3236 26.1768 63.3235C26.4955 63.3235 26.8158 63.2133 27.0758 62.9884L29.9118 60.5349C30.1875 60.2963 30.3572 59.9579 30.3835 59.5943C30.4098 59.2305 30.2905 58.8713 30.0519 58.5954L27.5984 55.7595Z" fill="#363636"/>
<path d="M30.9999 45.875C23.3492 45.875 17.125 39.6507 17.125 32C17.125 24.3492 23.3492 18.125 30.9999 18.125C38.6506 18.125 44.8749 24.3492 44.8749 32C44.8749 39.6507 38.6506 45.875 30.9999 45.875ZM30.9999 20.875C24.8656 20.875 19.875 25.8656 19.875 32C19.875 38.1344 24.8656 43.125 30.9999 43.125C37.1342 43.125 42.1249 38.1344 42.1249 32C42.1249 25.8656 37.1342 20.875 30.9999 20.875Z" fill="#402B4A"/>
</svg>
