<svg width="67" height="67" viewBox="0 0 67 67" fill="none" xmlns="http://www.w3.org/2000/svg">
<g clip-path="url(#clip0_424_2257)">
<path d="M19.6957 14.194L24.106 23.6417H27.5808V3.94531H23.6546V13.3929L19.2445 3.94531H15.7695V23.6417H19.6957V14.194Z" fill="#402B4A"/>
<path d="M37.4447 23.6417C40.7011 23.6417 43.3504 20.9925 43.3504 17.7361V11.8304H37.4447V15.7566H39.4242V17.7361C39.4242 18.8276 38.5362 19.7155 37.4447 19.7155C36.3532 19.7155 35.4653 18.8276 35.4653 17.7361V9.85097C35.4653 8.75948 36.3532 7.87151 37.4447 7.87151C38.5362 7.87151 39.4242 8.75948 39.4242 9.85097H43.3504C43.3504 6.59458 40.7011 3.94531 37.4447 3.94531C34.1883 3.94531 31.5391 6.59458 31.5391 9.85097V17.7361C31.5391 20.9923 34.1885 23.6417 37.4447 23.6417Z" fill="#402B4A"/>
<path d="M53.2142 23.6417C56.4706 23.6417 59.1199 20.9925 59.1199 17.7361V9.85097C59.1199 6.59458 56.4706 3.94531 53.2142 3.94531C49.9579 3.94531 47.3086 6.59458 47.3086 9.85097V17.7361C47.3086 20.9923 49.958 23.6417 53.2142 23.6417ZM51.2348 9.85097C51.2348 8.75948 52.1228 7.87151 53.2142 7.87151C54.3057 7.87151 55.1937 8.75948 55.1937 9.85097V17.7361C55.1937 18.8276 54.3057 19.7155 53.2142 19.7155C52.1228 19.7155 51.2348 18.8276 51.2348 17.7361V9.85097Z" fill="#402B4A"/>
<path d="M65.2718 27.3582C63.0338 25.0255 59.0324 25.1427 56.9153 27.3582L48.992 35.2815H47.0702C46.2596 32.9831 44.0657 31.3314 41.4933 31.3314L19.6859 31.3326L0 46.7388L14.3824 63.0547L27.6624 51.0489L49.9441 51.0487L65.273 35.7146C67.5761 33.4107 67.5756 29.662 65.2718 27.3582ZM14.6986 57.4759L5.69796 47.2652L11.1054 43.0333L19.784 52.8786L14.6986 57.4759ZM62.4963 32.9389L48.3175 47.1225L26.1507 47.1227L22.6966 50.2454L14.2025 40.6095L21.0398 35.2586L41.4936 35.2576C42.5881 35.2576 43.4786 36.1481 43.4786 37.2425C43.4786 38.337 42.5881 39.2275 41.4936 39.2275H29.7586V43.1537H41.4936C44.0645 43.1537 46.2573 41.504 47.0691 39.2076H50.6185L59.6917 30.1343C60.4649 29.3612 61.7227 29.3612 62.4956 30.1343C63.2689 30.9076 63.2692 32.1657 62.4963 32.9389Z" fill="#363636"/>
</g>
<defs>
<clipPath id="clip0_424_2257">
<rect width="67" height="67" fill="white"/>
</clipPath>
</defs>
</svg>
