<svg width="62" height="62" viewBox="0 0 62 62" fill="none" xmlns="http://www.w3.org/2000/svg">
<path d="M14.2422 31.4287C14.2422 32.1644 14.8386 32.7607 15.5742 32.7607H37.5238C38.2594 32.7607 38.8558 32.1644 38.8558 31.4287C38.8558 30.6931 38.2594 30.0967 37.5238 30.0967H15.5742C14.8386 30.0967 14.2422 30.6931 14.2422 31.4287Z" fill="#363636"/>
<path d="M45.4954 36.7842H29.0195C28.2839 36.7842 27.6875 37.3806 27.6875 38.1162C27.6875 38.8519 28.2839 39.4482 29.0195 39.4482H45.4954C46.2311 39.4482 46.8275 38.8519 46.8275 38.1162C46.8275 37.3806 46.2311 36.7842 45.4954 36.7842Z" fill="#363636"/>
<path d="M15.5742 39.4482H22.4337C23.1693 39.4482 23.7657 38.8519 23.7657 38.1162C23.7657 37.3806 23.1693 36.7842 22.4337 36.7842H15.5742C14.8386 36.7842 14.2422 37.3806 14.2422 38.1162C14.2422 38.8519 14.8386 39.4482 15.5742 39.4482Z" fill="#363636"/>
<path d="M15.5742 46.207H45.4975C46.2331 46.207 46.8295 45.6106 46.8295 44.875C46.8295 44.1394 46.2331 43.543 45.4975 43.543H15.5742C14.8386 43.543 14.2422 44.1394 14.2422 44.875C14.2422 45.6106 14.8386 46.207 15.5742 46.207Z" fill="#363636"/>
<path d="M53.7604 23.7937V51.9436C53.7604 53.9017 52.1674 55.4946 50.2092 55.4946H23.438C23.2516 55.4946 23.0673 55.5337 22.8968 55.6095L16.1312 58.6179V56.8266C16.1312 56.0909 15.5349 55.4946 14.7992 55.4946H10.8598C8.90158 55.4946 7.30847 53.9005 7.30847 51.9411V24.3888C7.30847 22.4309 8.90098 20.8379 10.8585 20.8379H35.9159C36.6516 20.8379 36.6516 18.1738 35.9159 18.1738H10.8586C7.43211 18.1738 4.64453 20.9619 4.64453 24.3888V51.9411C4.64453 55.3695 7.43271 58.1586 10.8599 58.1586H13.4673V60.668C13.4673 61.119 13.6954 61.5393 14.0736 61.785C14.293 61.9277 14.5455 62.0001 14.7995 62.0001C14.9832 62.0001 15.1676 61.9622 15.3406 61.8852L23.7209 58.1587H50.2092C53.6364 58.1587 56.4245 55.3708 56.4245 51.9437V22.6515C56.4245 21.9157 53.7604 23.058 53.7604 23.7937Z" fill="#363636"/>
<path d="M43.6869 32.2944C44.0364 33.3884 45.0408 34.1224 46.1907 34.1224C47.3374 34.1224 48.3394 33.3923 48.6913 32.3033L51.3035 24.7806C51.5447 24.0857 49.028 23.2118 48.7868 23.9067L46.1909 31.3823L43.6592 23.7996C43.4261 23.1015 40.8994 23.9454 41.1323 24.6433L43.6869 32.2944Z" fill="#363636"/>
<path d="M56.0186 16.0443H54.7566L51.965 8.7489H53.4779C54.2136 8.7489 54.81 8.15252 54.81 7.41687V4.78841C54.8099 2.14808 52.6618 0 50.0213 0H42.3603C39.72 0 37.5719 2.14808 37.5719 4.78841V7.41687C37.5719 8.15252 38.1683 8.7489 38.9039 8.7489H40.4169L37.6252 16.0443H36.3633C35.6276 16.0443 35.0312 16.6407 35.0312 17.3763V20.0047C35.0312 22.6451 37.1793 24.7932 39.8197 24.7932H52.5622C55.2027 24.7932 57.3508 22.6451 57.3508 20.0047V17.3763C57.3506 16.6407 56.7543 16.0443 56.0186 16.0443ZM40.236 4.78841C40.236 3.61707 41.189 2.66406 42.3603 2.66406H50.0214C51.1929 2.66406 52.1459 3.61707 52.1459 4.78841V6.08484H40.236V4.78841ZM43.2694 8.7489H49.1125L51.9041 16.0443H40.4777L43.2694 8.7489ZM54.6866 20.0047C54.6866 21.1761 53.7336 22.1292 52.5621 22.1292H39.8195C38.6482 22.1292 37.6952 21.1761 37.6952 20.0047V18.7084H54.6865V20.0047H54.6866Z" fill="#402B4A"/>
</svg>
