<svg width="67" height="67" viewBox="0 0 67 67" fill="none" xmlns="http://www.w3.org/2000/svg">
<g clip-path="url(#clip0_424_2287)">
<path d="M21.7862 20.6158C21.0068 20.46 20.2486 20.9667 20.0934 21.7465L18.7591 28.4514L16.6431 21.5825C16.409 20.8228 15.6037 20.3964 14.8436 20.6307C14.3278 20.7897 13.9665 21.2122 13.8605 21.7049L11.772 28.4524L10.4417 21.7269C10.2874 20.947 9.52996 20.4395 8.7503 20.5942C7.97037 20.7484 7.46329 21.5057 7.61745 22.2856L9.86116 33.6284C9.87477 33.6971 9.89335 33.7649 9.91691 33.831C10.1576 34.5084 10.8001 34.9615 11.5182 34.9615C11.522 34.9615 11.5261 34.9615 11.53 34.9615C12.2527 34.9565 12.8946 34.4934 13.1273 33.8089C13.1315 33.7964 13.1355 33.784 13.1395 33.7714L15.2676 26.8957L17.3862 33.7729C17.3922 33.7924 17.3987 33.8117 17.4055 33.831C17.6461 34.5084 18.2886 34.9615 19.0068 34.9615C19.0106 34.9615 19.0145 34.9615 19.0183 34.9615C19.741 34.9566 20.3829 34.4935 20.6157 33.8093C20.636 33.7496 20.6523 33.6886 20.6648 33.6267L22.9173 22.3085C23.0722 21.5288 22.566 20.771 21.7862 20.6158Z" fill="#402B4A"/>
<path d="M40.0208 20.6158C39.2414 20.4602 38.4832 20.967 38.328 21.7465L36.9936 28.4514L34.8775 21.5825C34.6432 20.8228 33.8383 20.3964 33.078 20.6307C32.5622 20.7897 32.2009 21.2122 32.0949 21.7049L30.0063 28.4524L28.676 21.7269C28.5217 20.947 27.7645 20.4395 26.9847 20.5942C26.2048 20.7484 25.6977 21.5057 25.8518 22.2856L28.0955 33.6284C28.1091 33.6971 28.1277 33.7649 28.1513 33.831C28.3919 34.5084 29.0345 34.9615 29.7526 34.9615C29.7564 34.9615 29.7605 34.9615 29.7644 34.9615C30.4871 34.9565 31.129 34.4934 31.3617 33.8089C31.3658 33.7964 31.3699 33.784 31.3738 33.7714L33.5019 26.8954L35.6205 33.7727C35.6265 33.7921 35.6329 33.8115 35.6396 33.8305C35.8801 34.5082 36.5226 34.9613 37.2409 34.9613C37.2446 34.9613 37.2485 34.9613 37.2523 34.9613C37.975 34.9565 38.6172 34.4935 38.8498 33.8091C38.8701 33.7495 38.8865 33.6885 38.8988 33.6266L41.1514 22.3084C41.3068 21.5288 40.8004 20.771 40.0208 20.6158Z" fill="#402B4A"/>
<path d="M58.2552 20.6158C57.4746 20.4602 56.7176 20.967 56.5624 21.7465L55.228 28.4514L53.112 21.5826C52.8779 20.8227 52.0718 20.3971 51.3125 20.6307C50.7964 20.7897 50.435 21.2126 50.3291 21.7056L48.2408 28.4526L46.9104 21.7271C46.7562 20.9471 45.9985 20.4399 45.2189 20.5943C44.4392 20.7486 43.9319 21.5059 44.0862 22.2858L46.3299 33.6286C46.3436 33.6971 46.3621 33.7648 46.3856 33.8308C46.6261 34.5085 47.2686 34.9616 47.9869 34.9616C47.9906 34.9616 47.9945 34.9616 47.9983 34.9616C48.721 34.9568 49.3631 34.4938 49.5958 33.8094C49.6001 33.7967 49.6042 33.7843 49.6081 33.7716L51.7363 26.8959L53.8549 33.773C53.8609 33.7927 53.8674 33.8122 53.8742 33.8314C54.115 34.5087 54.7574 34.9616 55.4754 34.9616C55.4792 34.9616 55.4834 34.9616 55.4872 34.9616C56.2098 34.9567 56.8517 34.4937 57.0844 33.8094C57.1046 33.7498 57.121 33.6886 57.1333 33.6269L59.3858 22.3087C59.5411 21.5288 59.0348 20.771 58.2552 20.6158Z" fill="#402B4A"/>
<path d="M65.5605 0H1.43945C0.644482 0 0 0.644482 0 1.43945V46.7168C0 47.5118 0.644482 48.1562 1.43945 48.1562H19.63C19.2041 49.521 18.9746 50.9716 18.9746 52.4746C18.9746 60.484 25.4906 67 33.5 67C41.5094 67 48.0254 60.484 48.0254 52.4746C48.0254 50.9716 47.7959 49.521 47.37 48.1562H65.5605C66.3555 48.1562 67 47.5118 67 46.7168V1.43945C67 0.644482 66.3555 0 65.5605 0ZM64.1211 2.87891V11.5156H2.87891V2.87891H64.1211ZM45.0575 51.0352H39.2756C39.1665 47.9284 38.7057 45.0337 37.95 42.7663C37.7991 42.3135 37.6414 41.9034 37.4792 41.5286C41.5141 42.9999 44.5136 46.6422 45.0575 51.0352ZM33.5 64.1211C33.3735 64.1211 32.5657 63.6259 31.7812 61.2725C31.1176 59.2817 30.7098 56.7084 30.6053 53.9141H36.3946C36.2899 56.7084 35.8823 59.2818 35.2187 61.2725C34.4343 63.6259 33.6265 64.1211 33.5 64.1211ZM35.2188 43.6767C35.8824 45.6676 36.2901 48.2408 36.3947 51.0352H30.6054C30.7101 48.2408 31.1177 45.6674 31.7813 43.6767C32.5657 41.3233 33.3735 40.8281 33.5 40.8281C33.6265 40.8281 34.4343 41.3233 35.2188 43.6767ZM27.7244 51.0352H21.9425C22.4861 46.6446 25.4826 43.0037 29.5144 41.5308C28.4309 44.0284 27.849 47.5293 27.7244 51.0352ZM21.9425 53.9141H27.7244C27.8335 57.0208 28.2943 59.9155 29.0501 62.1829C29.201 62.6357 29.3587 63.0458 29.521 63.4206C25.4859 61.9494 22.4864 58.307 21.9425 53.9141ZM37.4856 63.4184C38.569 60.9208 39.1509 57.4199 39.2755 53.9141H45.0575C44.5139 58.3047 41.5174 61.9456 37.4856 63.4184ZM46.1134 45.2773C43.6076 40.903 38.8925 37.9492 33.5 37.9492C28.1077 37.9492 23.3924 40.903 20.8866 45.2773H2.87891V14.3945H64.1211V45.2773H46.1134Z" fill="#363636"/>
<path d="M8.76733 8.63668C9.76068 8.6656 10.5042 7.5529 10.0969 6.64631C9.63558 5.47931 7.90143 5.47329 7.4378 6.64631C7.03096 7.55356 7.77358 8.66534 8.76733 8.63668Z" fill="#363636"/>
<path d="M15.5721 8.63683C16.5656 8.66575 17.3081 7.55344 16.9016 6.64646C16.4397 5.47317 14.7036 5.47998 14.2426 6.64646C13.8353 7.55331 14.579 8.66536 15.5721 8.63683Z" fill="#363636"/>
<path d="M22.3769 8.63678C23.3708 8.66557 24.1131 7.55353 23.7064 6.64641C23.241 5.47496 21.5126 5.47496 21.0474 6.64641C20.6399 7.55301 21.3837 8.66557 22.3769 8.63678Z" fill="#363636"/>
<path d="M33.502 8.63672H58.2344C59.0293 8.63672 59.6738 7.99224 59.6738 7.19727C59.6738 6.40229 59.0293 5.75781 58.2344 5.75781H33.502C32.707 5.75781 32.0625 6.40229 32.0625 7.19727C32.0625 7.99224 32.707 8.63672 33.502 8.63672Z" fill="#363636"/>
</g>
<defs>
<clipPath id="clip0_424_2287">
<rect width="67" height="67" fill="white"/>
</clipPath>
</defs>
</svg>
