<svg width="67" height="67" viewBox="0 0 67 67" fill="none" xmlns="http://www.w3.org/2000/svg">
<path d="M25.4968 44.751C24.0899 44.751 22.9453 43.6064 22.9453 42.1995C22.9453 40.7926 24.0899 39.648 25.4968 39.648C26.9037 39.648 28.0483 40.7926 28.0483 42.1995C28.0483 42.9945 28.6928 43.6389 29.4878 43.6389C30.2827 43.6389 30.9272 42.9945 30.9272 42.1995C30.9272 39.7113 29.2444 37.61 26.9576 36.9703V33.6333C26.9576 32.8383 26.3131 32.1938 25.5181 32.1938C24.7232 32.1938 24.0787 32.8383 24.0787 33.6333V36.9583C21.7701 37.5837 20.0664 39.6959 20.0664 42.1996C20.0664 45.1939 22.5025 47.63 25.4968 47.63C26.9037 47.63 28.0483 48.7746 28.0483 50.1815C28.0483 51.5884 26.9037 52.733 25.4968 52.733C24.0899 52.733 22.9453 51.5884 22.9453 50.1815C22.9453 49.3865 22.3008 48.7421 21.5059 48.7421C20.7109 48.7421 20.0664 49.3865 20.0664 50.1815C20.0664 52.6852 21.7701 54.7974 24.0787 55.4228V57.5789C24.0787 58.3738 24.7232 59.0183 25.5181 59.0183C26.3131 59.0183 26.9576 58.3738 26.9576 57.5789V55.4107C29.2444 54.7709 30.9272 52.6697 30.9272 50.1815C30.9272 47.1871 28.4911 44.751 25.4968 44.751Z" fill="#402B4A"/>
<path d="M67 45.6059C67 44.0292 66.324 42.6079 65.2473 41.615C66.324 40.622 67 39.2008 67 37.624C67 34.6297 64.5639 32.1936 61.5696 32.1936H45.4728C45.1967 32.1936 44.9255 32.2147 44.6603 32.2546C42.4987 29.5788 39.9156 27.378 37.054 25.7608C38.2022 24.7644 38.9304 23.2962 38.9304 21.6602C38.9304 19.3245 37.4479 17.3287 35.3746 16.5635L38.8595 5.87663C39.0024 5.43825 38.9267 4.958 38.6559 4.58492C38.385 4.21184 37.952 3.99095 37.4909 3.99095H30.7534C30.1208 1.69319 28.014 0 25.5181 0C23.022 0 20.9137 1.69306 20.2812 3.99095H13.5453C13.0842 3.99095 12.6511 4.21184 12.3803 4.58492C12.1096 4.958 12.034 5.43825 12.1767 5.87663L15.6615 16.5635C13.5882 17.3285 12.1058 19.3244 12.1058 21.6602C12.1058 23.297 12.8347 24.7658 13.9838 25.7623C10.4065 27.7864 7.21938 30.7343 4.80856 34.2912C1.70771 38.8658 0 44.3014 0 49.5967C0 56.2406 2.63773 61.0217 7.84005 63.807C11.9089 65.9853 17.5263 67 25.5181 67C32.2506 67 37.2474 66.2837 41.0807 64.7576C42.0688 66.1151 43.6691 67 45.4728 67H61.5696C64.5639 67 67 64.5639 67 61.5696C67 59.9929 66.324 58.5716 65.2473 57.5786C66.324 56.5857 67 55.1644 67 53.5877C67 52.0111 66.324 50.5897 65.2474 49.5967C66.324 48.6038 67 47.1825 67 45.6059ZM64.1211 37.624C64.1211 39.0309 62.9765 40.1755 61.5696 40.1755H45.4728C44.066 40.1755 42.9214 39.0309 42.9214 37.624C42.9214 36.2172 44.066 35.0725 45.4728 35.0725H61.5696C62.9765 35.0725 64.1211 36.2172 64.1211 37.624ZM21.5272 6.86986C22.3221 6.86986 22.9666 6.22537 22.9666 5.4304C22.9666 4.02353 24.1112 2.87891 25.5181 2.87891C26.925 2.87891 28.0696 4.02353 28.0696 5.4304V9.42135C28.0696 10.2163 28.7141 10.8608 29.5091 10.8608C30.304 10.8608 30.9485 10.2163 30.9485 9.42135V6.86986H35.5075L32.4553 16.2297H18.5809L15.5288 6.86986H21.5272ZM17.5318 19.1089C17.5331 19.1089 17.5345 19.109 17.5358 19.109C17.5391 19.109 17.5424 19.1086 17.5456 19.1086H33.4903C33.4936 19.1086 33.4969 19.109 33.5001 19.109C33.5014 19.109 33.5029 19.1089 33.5042 19.1089C34.9091 19.1112 36.0514 20.2548 36.0514 21.6601C36.0514 23.0662 34.9079 24.2103 33.5021 24.2115C33.4864 24.2115 33.4707 24.2111 33.455 24.2116H17.5781C17.5649 24.2112 17.5516 24.2116 17.5384 24.2116H17.5362C16.1293 24.2116 14.9848 23.067 14.9848 21.6601C14.9848 20.2548 16.127 19.1112 17.5318 19.1089ZM25.5181 64.1211C18.0188 64.1211 12.8332 63.2148 9.19889 61.2689C4.94622 58.9921 2.87891 55.174 2.87891 49.5967C2.87891 44.8714 4.41048 40.0092 7.19151 35.9062C9.88839 31.9275 13.6536 28.8063 17.8165 27.0906H33.2142C36.5117 28.4478 39.5023 30.6427 41.9489 33.4974C40.7835 34.4941 40.0426 35.9738 40.0426 37.624C40.0426 39.2008 40.7186 40.622 41.7953 41.615C40.7186 42.6079 40.0426 44.0292 40.0426 45.6059C40.0426 47.1825 40.7186 48.6038 41.7952 49.5967C40.7185 50.5897 40.0426 52.011 40.0426 53.5877C40.0426 55.1644 40.7186 56.5857 41.7953 57.5786C40.6023 58.6622 39.8968 60.3572 40.0661 62.0637C36.5816 63.4644 31.9139 64.1211 25.5181 64.1211ZM64.1211 61.5696C64.1211 62.9765 62.9765 64.1211 61.5696 64.1211H45.4728C44.066 64.1211 42.9214 62.9765 42.9214 61.5696C42.9214 60.1627 44.066 59.0181 45.4728 59.0181H61.5696C62.9765 59.0181 64.1211 60.1627 64.1211 61.5696ZM64.1211 53.5877C64.1211 54.9946 62.9765 56.1392 61.5696 56.1392H45.4728C44.066 56.1392 42.9214 54.9946 42.9214 53.5877C42.9214 52.1808 44.066 51.0362 45.4728 51.0362H61.5696C62.9765 51.0362 64.1211 52.1808 64.1211 53.5877ZM45.4728 48.1573C44.066 48.1573 42.9214 47.0128 42.9214 45.6059C42.9214 44.1991 44.066 43.0544 45.4728 43.0544H61.5696C62.9765 43.0544 64.1211 44.1991 64.1211 45.6059C64.1211 47.0128 62.9765 48.1573 61.5696 48.1573H45.4728Z" fill="#363636"/>
</svg>
