<svg width="63" height="63" viewBox="0 0 63 63" fill="none" xmlns="http://www.w3.org/2000/svg">
<g clip-path="url(#clip0_424_2314)">
<path d="M6.89258 25.2246C6.14507 25.2246 5.53906 25.8306 5.53906 26.5781V48.9762C5.53906 49.7237 6.14507 50.3297 6.89258 50.3297C7.64009 50.3297 8.24609 49.7237 8.24609 48.9762V26.5781C8.24609 25.8306 7.64009 25.2246 6.89258 25.2246Z" fill="#402B4A"/>
<path d="M56.1113 25.2246C55.3638 25.2246 54.7578 25.8306 54.7578 26.5781V48.9762C54.7578 49.7237 55.3638 50.3297 56.1113 50.3297C56.8588 50.3297 57.4648 49.7237 57.4648 48.9762V26.5781C57.4648 25.8306 56.859 25.2246 56.1113 25.2246Z" fill="#402B4A"/>
<path d="M25.9633 31.9897H25.9624C25.2149 31.9897 24.6094 32.5958 24.6094 33.3433C24.6094 34.0908 25.2158 34.6968 25.9633 34.6968C26.7108 34.6968 27.3168 34.0908 27.3168 33.3433C27.3168 32.5958 26.7108 31.9897 25.9633 31.9897Z" fill="#402B4A"/>
<path d="M31.5024 31.9897H31.5016C30.7541 31.9897 30.1484 32.5958 30.1484 33.3433C30.1484 34.0908 30.7549 34.6968 31.5024 34.6968C32.25 34.6968 32.856 34.0908 32.856 33.3433C32.856 32.5958 32.25 31.9897 31.5024 31.9897Z" fill="#402B4A"/>
<path d="M37.0415 31.9897H37.0405C36.293 31.9897 35.6875 32.5958 35.6875 33.3433C35.6875 34.0908 36.294 34.6968 37.0415 34.6968C37.789 34.6968 38.395 34.0908 38.395 33.3433C38.395 32.5958 37.789 31.9897 37.0415 31.9897Z" fill="#402B4A"/>
<path d="M57.4341 24.7332C57.1324 18.2851 54.4619 12.2499 49.8376 7.62546C44.9201 2.70814 38.4077 0 31.5 0C24.5923 0 18.0799 2.70814 13.1626 7.62546C8.5381 12.2499 5.86774 18.2851 5.56603 24.733C2.39806 25.3326 0 28.04 0 31.2794V44.2751C0 47.953 3.09118 50.9451 6.89062 50.9451H14.2734C15.0209 50.9451 15.627 50.3391 15.627 49.5916V25.9629C15.627 25.2154 15.0209 24.6094 14.2734 24.6094H13.8332C14.5366 15.5256 22.3238 8.24414 31.5 8.24414C40.7104 8.24414 48.464 15.5108 49.1667 24.6094H48.7266C47.9791 24.6094 47.373 25.2154 47.373 25.9629V49.5916C47.373 50.3391 47.9791 50.9451 48.7266 50.9451H54.6375C53.9832 54.6999 50.7028 57.5245 46.8059 57.5245H37.1889C36.4414 57.5245 35.8354 58.1305 35.8354 58.8781C35.8354 59.6256 36.4414 60.2316 37.1889 60.2316H46.8059C52.2291 60.2316 56.7616 56.1503 57.3891 50.8298C60.5793 50.2475 63 47.5299 63 44.2752V31.2794C63 28.04 60.6021 25.3326 57.4341 24.7332ZM12.9199 48.2381H6.89062C4.58374 48.2381 2.70703 46.4603 2.70703 44.2751V31.2794C2.70703 29.0942 4.58374 27.3164 6.89062 27.3164H12.9199V48.2381ZM45.7264 11.3463C41.8791 7.60024 36.8268 5.53711 31.5 5.53711C26.208 5.53711 21.1794 7.5771 17.3407 11.2813C13.6498 14.8429 11.4538 19.5572 11.1191 24.6094H8.28315C8.98636 12.4136 19.131 2.70703 31.5 2.70703C43.869 2.70703 54.0136 12.4135 54.717 24.6094H51.8811C51.549 19.5897 49.3811 14.9049 45.7264 11.3463ZM60.293 44.2751C60.293 46.4603 58.4163 48.2381 56.1094 48.2381H50.0801V27.3164H56.1094C58.4163 27.3164 60.293 29.0942 60.293 31.2794V44.2751Z" fill="#363636"/>
<path d="M44.5428 37.2902V29.3965C44.5428 26.7569 42.3953 24.6094 39.7557 24.6094H23.244C20.6044 24.6094 18.457 26.7569 18.457 29.3965V37.2902C18.457 39.9298 20.6046 42.0774 23.2442 42.0774H27.0937V45.1934C27.0937 45.7267 27.4068 46.2104 27.8936 46.4285C28.0712 46.508 28.2597 46.5469 28.447 46.5469C28.7729 46.5469 29.095 46.4292 29.3479 46.2037L33.9767 42.0774H39.7558C42.3953 42.0774 44.5428 39.9299 44.5428 37.2902ZM33.4609 39.3703C33.1286 39.3703 32.8081 39.4925 32.5602 39.7135L29.8006 42.1735V40.7238C29.8006 39.9763 29.1946 39.3703 28.4471 39.3703H23.244C22.0971 39.3703 21.1639 38.4373 21.1639 37.2902V29.3965C21.1639 28.2496 22.097 27.3164 23.244 27.3164H39.7556C40.9025 27.3164 41.8357 28.2495 41.8357 29.3965V37.2902C41.8357 38.4371 40.9026 39.3703 39.7556 39.3703H33.4609Z" fill="#363636"/>
<path d="M34.2686 63H28.7314C26.4585 63 24.6094 61.1509 24.6094 58.8779C24.6094 56.605 26.4585 54.7559 28.7314 54.7559H34.2686C36.5415 54.7559 38.3906 56.605 38.3906 58.8779C38.3906 61.1509 36.5415 63 34.2686 63ZM28.7314 57.4629C27.9512 57.4629 27.3164 58.0977 27.3164 58.8779C27.3164 59.6582 27.9512 60.293 28.7314 60.293H34.2686C35.0488 60.293 35.6836 59.6582 35.6836 58.8779C35.6836 58.0977 35.0488 57.4629 34.2686 57.4629H28.7314Z" fill="#402B4A"/>
</g>
<defs>
<clipPath id="clip0_424_2314">
<rect width="63" height="63" fill="white"/>
</clipPath>
</defs>
</svg>
